{
.appVersion = "1268";
DisplayStrings = (
"/alefabove-ar/alefbelow-ar/hamzaabove-ar/hamzaabove-ar.nostem/hamzabelow-ar/hamzabelow-ar.nostem/hamzacenter-ar/hamzaaboveDamma-ar/hamzaaboveDammatan-ar/hamzaaboveFatha-ar/hamzaaboveFathatan-ar/hamzaaboveSukun-ar/hamzabelowKasra-ar/hamzabelowKasratan-ar/fathatan-ar/dammatan-ar/kasratan-ar/fatha-ar/alefabove-ar/fatha_alefabove-ar/damma-ar/kasra-ar/shadda-ar/sukun-ar/madda-ar/shaddaAlefabove-ar/shaddaDamma-ar/shaddaDammatan-ar/shaddaFatha-ar/shaddaFathatan-ar/vabove-ar/vinvertedabove-ar/dotvowelbelow-ar/dotvowelbelow-ar.ss04",
"/alef-ar.high/alef-ar.high.ss08/alef-ar.ss08/damma-ar.ss08/fatha-ar  /alef-ar/lam-ar/hah-ar/meem-ar  /alef-ar/lam-ar/jeem-ar \012/lam-ar/theh-ar/sheen-ar/jeem-ar  /yeh-ar/ain-ar/tehMarbuta-ar   /sad-ar/yeh-ar/seen-ar  /heh-ar/sheen-ar \012/kaf-ar/seen-ar/yeh-ar/sheen-ar/alef-ar/noon-ar/yeh-ar/beh-ar/feh-ar/noon-ar  /sad-ar/reh-ar/yeh-ar \012 ",

glyphs = (
{
glyphname = .notdef;
layers = (
{
layerId = "0CED4075-D7BB-4A7E-97B8-19FE9A07C10E";
paths = (
{
closed = 1;
nodes = (
"973 -226 LINE",
"973 699 LINE",
"60 699 LINE",
"60 -226 LINE"
);
},
{
closed = 1;
nodes = (
"76 682 LINE",
"957 682 LINE",
"957 -209 LINE",
"76 -209 LINE"
);
},
{
closed = 1;
nodes = (
"630 207 OFFCURVE",
"644 163 OFFCURVE",
"644 136 CURVE SMOOTH",
"644 108 OFFCURVE",
"509 -21 OFFCURVE",
"335 -21 CURVE SMOOTH",
"249 -21 OFFCURVE",
"183 17 OFFCURVE",
"183 98 CURVE SMOOTH",
"183 123 OFFCURVE",
"189 152 OFFCURVE",
"203 184 CURVE",
"201 190 OFFCURVE",
"195 192 OFFCURVE",
"189 192 CURVE SMOOTH",
"188 192 OFFCURVE",
"188 192 OFFCURVE",
"187 192 CURVE",
"157 144 OFFCURVE",
"141 108 OFFCURVE",
"141 53 CURVE SMOOTH",
"141 -46 OFFCURVE",
"217 -88 OFFCURVE",
"315 -88 CURVE SMOOTH",
"435 -88 OFFCURVE",
"554 -40 OFFCURVE",
"678 75 CURVE SMOOTH",
"683 81 OFFCURVE",
"684 82 OFFCURVE",
"691 82 CURVE SMOOTH",
"848 82 LINE",
"887 82 OFFCURVE",
"900 129 OFFCURVE",
"900 183 CURVE SMOOTH",
"900 215 OFFCURVE",
"898 251 OFFCURVE",
"889 281 CURVE",
"887 287 OFFCURVE",
"885 291 OFFCURVE",
"876 291 CURVE",
"870 287 OFFCURVE",
"848 277 OFFCURVE",
"826 263 CURVE",
"837 238 OFFCURVE",
"858 196 OFFCURVE",
"858 163 CURVE SMOOTH",
"858 150 OFFCURVE",
"853 148 OFFCURVE",
"844 148 CURVE SMOOTH",
"819 148 LINE SMOOTH",
"795 148 OFFCURVE",
"794 156 OFFCURVE",
"792 183 CURVE SMOOTH",
"789 215 OFFCURVE",
"785 251 OFFCURVE",
"775 281 CURVE",
"774 287 OFFCURVE",
"771 291 OFFCURVE",
"763 291 CURVE",
"756 287 OFFCURVE",
"735 277 OFFCURVE",
"713 263 CURVE",
"724 238 OFFCURVE",
"750 196 OFFCURVE",
"750 163 CURVE SMOOTH",
"750 150 OFFCURVE",
"746 148 OFFCURVE",
"736 148 CURVE SMOOTH",
"695 148 LINE SMOOTH",
"678 148 OFFCURVE",
"682 199 OFFCURVE",
"658 272 CURVE SMOOTH",
"653 287 OFFCURVE",
"650 291 OFFCURVE",
"642 291 CURVE",
"634 287 OFFCURVE",
"608 273 OFFCURVE",
"593 263 CURVE"
);
},
{
closed = 1;
nodes = (
"711 428 OFFCURVE",
"746 428 OFFCURVE",
"779 435 CURVE",
"787 476 OFFCURVE",
"787 504 OFFCURVE",
"779 524 CURVE",
"762 531 OFFCURVE",
"731 530 OFFCURVE",
"696 522 CURVE",
"688 481 OFFCURVE",
"689 454 OFFCURVE",
"696 433 CURVE"
);
},
{
closed = 1;
nodes = (
"668 320 OFFCURVE",
"698 320 OFFCURVE",
"726 327 CURVE",
"731 360 OFFCURVE",
"731 383 OFFCURVE",
"726 401 CURVE",
"711 406 OFFCURVE",
"685 406 OFFCURVE",
"656 399 CURVE",
"649 365 OFFCURVE",
"650 343 OFFCURVE",
"656 324 CURVE"
);
},
{
closed = 1;
nodes = (
"771 330 OFFCURVE",
"800 330 OFFCURVE",
"828 337 CURVE",
"834 370 OFFCURVE",
"834 393 OFFCURVE",
"828 411 CURVE",
"814 417 OFFCURVE",
"788 416 OFFCURVE",
"759 409 CURVE",
"752 375 OFFCURVE",
"753 353 OFFCURVE",
"759 335 CURVE"
);
}
);
width = 1033;
},
{
layerId = "3B5B530A-BB7C-47AF-9BD0-0E3C29910424";
paths = (
{
closed = 1;
nodes = (
"973 -226 LINE",
"973 699 LINE",
"60 699 LINE",
"60 -226 LINE"
);
},
{
closed = 1;
nodes = (
"76 682 LINE",
"957 682 LINE",
"957 -209 LINE",
"76 -209 LINE"
);
},
{
closed = 1;
nodes = (
"96 -99 OFFCURVE",
"129 -154 OFFCURVE",
"157 -163 CURVE SMOOTH",
"203 -178 OFFCURVE",
"253 -185 OFFCURVE",
"302 -185 CURVE SMOOTH",
"458 -185 OFFCURVE",
"619 -111 OFFCURVE",
"722 24 CURVE",
"894 24 LINE SMOOTH",
"920 24 OFFCURVE",
"929 83 OFFCURVE",
"929 164 CURVE SMOOTH",
"929 259 OFFCURVE",
"924 290 OFFCURVE",
"920 318 CURVE",
"906 318 OFFCURVE",
"886 315 OFFCURVE",
"873 310 CURVE SMOOTH",
"866 306 OFFCURVE",
"863 305 OFFCURVE",
"863 300 CURVE SMOOTH",
"863 293 OFFCURVE",
"876 254 OFFCURVE",
"876 175 CURVE SMOOTH",
"876 145 OFFCURVE",
"873 140 OFFCURVE",
"862 140 CURVE SMOOTH",
"827 140 LINE SMOOTH",
"820 140 OFFCURVE",
"819 140 OFFCURVE",
"819 153 CURVE SMOOTH",
"819 251 OFFCURVE",
"815 291 OFFCURVE",
"811 318 CURVE",
"796 318 OFFCURVE",
"777 315 OFFCURVE",
"764 310 CURVE SMOOTH",
"757 306 OFFCURVE",
"754 305 OFFCURVE",
"754 300 CURVE SMOOTH",
"754 293 OFFCURVE",
"766 254 OFFCURVE",
"767 175 CURVE SMOOTH",
"767 148 OFFCURVE",
"766 140 OFFCURVE",
"758 140 CURVE SMOOTH",
"725 140 LINE SMOOTH",
"711 140 OFFCURVE",
"710 142 OFFCURVE",
"710 164 CURVE SMOOTH",
"710 243 OFFCURVE",
"706 291 OFFCURVE",
"702 318 CURVE",
"687 318 OFFCURVE",
"668 315 OFFCURVE",
"655 310 CURVE SMOOTH",
"649 306 OFFCURVE",
"645 305 OFFCURVE",
"645 302 CURVE SMOOTH",
"645 301 OFFCURVE",
"645 301 OFFCURVE",
"645 300 CURVE SMOOTH",
"652 254 OFFCURVE",
"656 211 OFFCURVE",
"656 170 CURVE SMOOTH",
"656 137 OFFCURVE",
"655 117 OFFCURVE",
"652 73 CURVE",
"564 -32 OFFCURVE",
"427 -80 OFFCURVE",
"285 -80 CURVE SMOOTH",
"222 -80 OFFCURVE",
"157 -70 OFFCURVE",
"96 -52 CURVE"
);
},
{
closed = 1;
nodes = (
"667 488 OFFCURVE",
"662 460 OFFCURVE",
"662 430 CURVE SMOOTH",
"662 405 OFFCURVE",
"665 379 OFFCURVE",
"672 361 CURVE",
"681 360 OFFCURVE",
"690 360 OFFCURVE",
"699 360 CURVE SMOOTH",
"719 360 OFFCURVE",
"739 360 OFFCURVE",
"757 364 CURVE SMOOTH",
"768 367 OFFCURVE",
"773 393 OFFCURVE",
"773 423 CURVE SMOOTH",
"773 446 OFFCURVE",
"771 475 OFFCURVE",
"764 493 CURVE",
"755 494 OFFCURVE",
"747 494 OFFCURVE",
"738 494 CURVE SMOOTH",
"717 494 OFFCURVE",
"698 493 OFFCURVE",
"681 489 CURVE SMOOTH"
);
},
{
closed = 1;
nodes = (
"798 496 OFFCURVE",
"792 469 OFFCURVE",
"792 438 CURVE SMOOTH",
"792 413 OFFCURVE",
"795 387 OFFCURVE",
"802 369 CURVE",
"811 369 OFFCURVE",
"820 368 OFFCURVE",
"829 368 CURVE SMOOTH",
"850 368 OFFCURVE",
"870 369 OFFCURVE",
"888 373 CURVE SMOOTH",
"899 375 OFFCURVE",
"904 402 OFFCURVE",
"904 431 CURVE SMOOTH",
"904 455 OFFCURVE",
"901 483 OFFCURVE",
"895 502 CURVE",
"885 502 OFFCURVE",
"877 502 OFFCURVE",
"869 502 CURVE SMOOTH",
"847 502 OFFCURVE",
"829 501 OFFCURVE",
"812 497 CURVE SMOOTH"
);
},
{
closed = 1;
nodes = (
"714 650 OFFCURVE",
"706 625 OFFCURVE",
"706 591 CURVE SMOOTH",
"706 565 OFFCURVE",
"710 536 OFFCURVE",
"716 516 CURVE",
"728 515 OFFCURVE",
"743 514 OFFCURVE",
"758 514 CURVE SMOOTH",
"792 514 OFFCURVE",
"829 517 OFFCURVE",
"837 522 CURVE SMOOTH",
"847 529 OFFCURVE",
"854 551 OFFCURVE",
"854 584 CURVE SMOOTH",
"854 611 OFFCURVE",
"851 641 OFFCURVE",
"844 661 CURVE",
"834 663 OFFCURVE",
"820 663 OFFCURVE",
"805 663 CURVE SMOOTH",
"773 663 OFFCURVE",
"738 660 OFFCURVE",
"727 655 CURVE SMOOTH"
);
}
);
width = 1033;
}
);
},
{
glyphname = exclam;
layers = (
{
layerId = "0CED4075-D7BB-4A7E-97B8-19FE9A07C10E";
paths = (
{
closed = 1;
nodes = (
"47 709 LINE",
"73 490 OFFCURVE",
"81 330 OFFCURVE",
"89 151 CURVE",
"141 151 LINE",
"144 330 OFFCURVE",
"144 489 OFFCURVE",
"160 709 CURVE",
"136 721 OFFCURVE",
"104 729 OFFCURVE",
"77 733 CURVE"
);
},
{
closed = 1;
nodes = (
"97 100 OFFCURVE",
"83 97 OFFCURVE",
"66 93 CURVE",
"63 77 OFFCURVE",
"60 63 OFFCURVE",
"60 47 CURVE SMOOTH",
"60 32 OFFCURVE",
"63 17 OFFCURVE",
"66 2 CURVE",
"83 -1 OFFCURVE",
"97 -5 OFFCURVE",
"110 -5 CURVE SMOOTH",
"126 -5 OFFCURVE",
"141 -1 OFFCURVE",
"157 2 CURVE",
"160 17 OFFCURVE",
"162 32 OFFCURVE",
"162 47 CURVE SMOOTH",
"162 63 OFFCURVE",
"160 77 OFFCURVE",
"157 93 CURVE",
"141 97 OFFCURVE",
"126 100 OFFCURVE",
"110 100 CURVE SMOOTH"
);
}
);
width = 232;
},
{
background = {
paths = (
{
closed = 1;
nodes = (
"60 709 LINE",
"86 490 OFFCURVE",
"94 330 OFFCURVE",
"102 151 CURVE",
"154 151 LINE",
"157 330 OFFCURVE",
"157 489 OFFCURVE",
"173 709 CURVE",
"149 721 OFFCURVE",
"117 729 OFFCURVE",
"90 733 CURVE"
);
},
{
closed = 1;
nodes = (
"110 100 OFFCURVE",
"96 97 OFFCURVE",
"79 93 CURVE",
"76 77 OFFCURVE",
"73 63 OFFCURVE",
"73 47 CURVE SMOOTH",
"73 32 OFFCURVE",
"76 17 OFFCURVE",
"79 2 CURVE",
"96 -1 OFFCURVE",
"110 -5 OFFCURVE",
"123 -5 CURVE SMOOTH",
"139 -5 OFFCURVE",
"154 -1 OFFCURVE",
"170 2 CURVE",
"173 17 OFFCURVE",
"175 32 OFFCURVE",
"175 47 CURVE SMOOTH",
"175 63 OFFCURVE",
"173 77 OFFCURVE",
"170 93 CURVE",
"154 97 OFFCURVE",
"139 100 OFFCURVE",
"123 100 CURVE SMOOTH"
);
}
);
};
layerId = "3B5B530A-BB7C-47AF-9BD0-0E3C29910424";
paths = (
{
closed = 1;
nodes = (
"30 711 LINE",
"73 492 OFFCURVE",
"88 350 OFFCURVE",
"98 171 CURVE",
"158 171 LINE",
"163 350 OFFCURVE",
"180 492 OFFCURVE",
"203 701 CURVE",
"166 723 OFFCURVE",
"122 735 OFFCURVE",
"68 743 CURVE"
);
},
{
closed = 1;
nodes = (
"112 119 OFFCURVE",
"95 116 OFFCURVE",
"74 111 CURVE",
"71 91 OFFCURVE",
"67 75 OFFCURVE",
"67 55 CURVE SMOOTH",
"67 36 OFFCURVE",
"71 19 OFFCURVE",
"74 0 CURVE",
"95 -3 OFFCURVE",
"112 -8 OFFCURVE",
"128 -8 CURVE SMOOTH",
"148 -8 OFFCURVE",
"165 -3 OFFCURVE",
"185 0 CURVE",
"189 19 OFFCURVE",
"191 36 OFFCURVE",
"191 55 CURVE SMOOTH",
"191 75 OFFCURVE",
"189 91 OFFCURVE",
"185 111 CURVE",
"165 116 OFFCURVE",
"148 119 OFFCURVE",
"128 119 CURVE SMOOTH"
);
}
);
width = 263;
}
);
leftKerningGroup = "0";
rightKerningGroup = "0";
unicode = 0021;
},
{
glyphname = numbersign;
layers = (
{
layerId = "0CED4075-D7BB-4A7E-97B8-19FE9A07C10E";
paths = (
{
closed = 1;
nodes = (
"331 584 LINE",
"93 -138 LINE",
"169 -138 LINE",
"408 584 LINE"
);
},
{
closed = 1;
nodes = (
"552 584 LINE",
"313 -138 LINE",
"389 -138 LINE",
"628 584 LINE"
);
},
{
closed = 1;
nodes = (
"13 149 LINE",
"13 85 LINE",
"662 85 LINE",
"662 149 LINE"
);
},
{
closed = 1;
nodes = (
"65 359 LINE",
"65 295 LINE",
"715 295 LINE",
"715 359 LINE"
);
}
);
width = 728;
},
{
background = {
paths = (
{
closed = 1;
nodes = (
"331 584 LINE",
"93 -138 LINE",
"169 -138 LINE",
"408 584 LINE"
);
},
{
closed = 1;
nodes = (
"552 584 LINE",
"313 -138 LINE",
"389 -138 LINE",
"628 584 LINE"
);
},
{
closed = 1;
nodes = (
"13 149 LINE",
"13 85 LINE",
"662 85 LINE",
"662 149 LINE"
);
},
{
closed = 1;
nodes = (
"65 359 LINE",
"65 295 LINE",
"715 295 LINE",
"715 359 LINE"
);
}
);
};
layerId = "3B5B530A-BB7C-47AF-9BD0-0E3C29910424";
paths = (
{
closed = 1;
nodes = (
"331 584 LINE",
"93 -138 LINE",
"189 -138 LINE",
"428 584 LINE"
);
},
{
closed = 1;
nodes = (
"552 584 LINE",
"313 -138 LINE",
"409 -138 LINE",
"648 584 LINE"
);
},
{
closed = 1;
nodes = (
"13 165 LINE",
"13 85 LINE",
"672 85 LINE",
"672 165 LINE"
);
},
{
closed = 1;
nodes = (
"65 359 LINE",
"65 280 LINE",
"725 280 LINE",
"725 359 LINE"
);
}
);
width = 738;
}
);
leftKerningGroup = "0";
rightKerningGroup = "0";
unicode = 0023;
},
{
glyphname = dollar;
layers = (
{
components = (
{
name = S;
}
);
layerId = "0CED4075-D7BB-4A7E-97B8-19FE9A07C10E";
paths = (
{
closed = 1;
nodes = (
"243 172 OFFCURVE",
"243 489 OFFCURVE",
"249 726 CURVE",
"196 726 LINE",
"202 489 OFFCURVE",
"202 172 OFFCURVE",
"196 -65 CURVE",
"249 -65 LINE"
);
},
{
closed = 1;
nodes = (
"334 172 OFFCURVE",
"334 489 OFFCURVE",
"340 726 CURVE",
"287 726 LINE",
"293 489 OFFCURVE",
"293 172 OFFCURVE",
"287 -65 CURVE",
"340 -65 LINE"
);
}
);
width = 542;
},
{
components = (
{
name = S;
transform = "{1.03, 0, 0, 1, -2, 0}";
}
);
layerId = "3B5B530A-BB7C-47AF-9BD0-0E3C29910424";
paths = (
{
closed = 1;
nodes = (
"281 172 OFFCURVE",
"281 489 OFFCURVE",
"288 726 CURVE",
"225 726 LINE",
"232 489 OFFCURVE",
"232 172 OFFCURVE",
"225 -65 CURVE",
"288 -65 LINE"
);
},
{
closed = 1;
nodes = (
"371 172 OFFCURVE",
"371 489 OFFCURVE",
"378 726 CURVE",
"315 726 LINE",
"322 489 OFFCURVE",
"322 172 OFFCURVE",
"315 -65 CURVE",
"378 -65 LINE"
);
}
);
width = 602;
}
);
unicode = 0024;
},
{
glyphname = percent;
layers = (
{
layerId = "0CED4075-D7BB-4A7E-97B8-19FE9A07C10E";
paths = (
{
closed = 1;
nodes = (
"321 613 OFFCURVE",
"257 671 OFFCURVE",
"171 671 CURVE SMOOTH",
"84 671 OFFCURVE",
"20 613 OFFCURVE",
"20 508 CURVE SMOOTH",
"20 403 OFFCURVE",
"84 345 OFFCURVE",
"171 345 CURVE SMOOTH",
"257 345 OFFCURVE",
"321 403 OFFCURVE",
"321 508 CURVE SMOOTH"
);
},
{
closed = 1;
nodes = (
"91 586 OFFCURVE",
"125 629 OFFCURVE",
"171 629 CURVE SMOOTH",
"216 629 OFFCURVE",
"250 586 OFFCURVE",
"250 508 CURVE SMOOTH",
"250 430 OFFCURVE",
"216 387 OFFCURVE",
"171 387 CURVE SMOOTH",
"125 387 OFFCURVE",
"91 430 OFFCURVE",
"91 508 CURVE SMOOTH"
);
},
{
closed = 1;
nodes = (
"541 683 LINE",
"102 -18 LINE",
"172 -18 LINE",
"612 683 LINE"
);
},
{
closed = 1;
nodes = (
"635 322 OFFCURVE",
"549 322 CURVE SMOOTH",
"462 322 OFFCURVE",
"398 264 OFFCURVE",
"398 159 CURVE SMOOTH",
"398 54 OFFCURVE",
"462 -4 OFFCURVE",
"549 -4 CURVE SMOOTH",
"635 -4 OFFCURVE",
"699 54 OFFCURVE",
"699 159 CURVE SMOOTH",
"699 264 OFFCURVE"
);
},
{
closed = 1;
nodes = (
"503 280 OFFCURVE",
"549 280 CURVE SMOOTH",
"594 280 OFFCURVE",
"628 237 OFFCURVE",
"628 159 CURVE SMOOTH",
"628 81 OFFCURVE",
"594 38 OFFCURVE",
"549 38 CURVE SMOOTH",
"503 38 OFFCURVE",
"469 81 OFFCURVE",
"469 159 CURVE SMOOTH",
"469 237 OFFCURVE"
);
}
);
width = 719;
},
{
layerId = "3B5B530A-BB7C-47AF-9BD0-0E3C29910424";
paths = (
{
closed = 1;
nodes = (
"284 671 OFFCURVE",
"192 671 CURVE SMOOTH",
"99 671 OFFCURVE",
"30 613 OFFCURVE",
"30 508 CURVE SMOOTH",
"30 403 OFFCURVE",
"99 345 OFFCURVE",
"192 345 CURVE SMOOTH",
"284 345 OFFCURVE",
"353 403 OFFCURVE",
"353 508 CURVE SMOOTH",
"353 613 OFFCURVE"
);
},
{
closed = 1;
nodes = (
"157 626 OFFCURVE",
"192 626 CURVE SMOOTH",
"226 626 OFFCURVE",
"252 586 OFFCURVE",
"252 508 CURVE SMOOTH",
"252 430 OFFCURVE",
"226 390 OFFCURVE",
"192 390 CURVE SMOOTH",
"157 390 OFFCURVE",
"131 430 OFFCURVE",
"131 508 CURVE SMOOTH",
"131 586 OFFCURVE"
);
},
{
closed = 1;
nodes = (
"562 683 LINE",
"123 -18 LINE",
"213 -18 LINE",
"653 683 LINE"
);
},
{
closed = 1;
nodes = (
"681 320 OFFCURVE",
"589 320 CURVE SMOOTH",
"496 320 OFFCURVE",
"427 262 OFFCURVE",
"427 157 CURVE SMOOTH",
"427 52 OFFCURVE",
"496 -6 OFFCURVE",
"589 -6 CURVE SMOOTH",
"681 -6 OFFCURVE",
"750 52 OFFCURVE",
"750 157 CURVE SMOOTH",
"750 262 OFFCURVE"
);
},
{
closed = 1;
nodes = (
"554 275 OFFCURVE",
"589 275 CURVE SMOOTH",
"623 275 OFFCURVE",
"649 235 OFFCURVE",
"649 157 CURVE SMOOTH",
"649 79 OFFCURVE",
"623 39 OFFCURVE",
"589 39 CURVE SMOOTH",
"554 39 OFFCURVE",
"528 79 OFFCURVE",
"528 157 CURVE SMOOTH",
"528 235 OFFCURVE"
);
}
);
width = 770;
}
);
unicode = 0025;
},
{
glyphname = ampersand;
layers = (
{
layerId = "0CED4075-D7BB-4A7E-97B8-19FE9A07C10E";
paths = (
{
closed = 1;
nodes = (
"477 104 OFFCURVE",
"411 183 OFFCURVE",
"341 270 CURVE SMOOTH",
"250 383 OFFCURVE",
"189 462 OFFCURVE",
"189 532 CURVE SMOOTH",
"189 574 OFFCURVE",
"200 603 OFFCURVE",
"228 621 CURVE",
"275 621 OFFCURVE",
"304 617 OFFCURVE",
"358 579 CURVE",
"371 495 LINE",
"414 495 LINE",
"423 544 OFFCURVE",
"429 573 OFFCURVE",
"439 625 CURVE",
"384 654 OFFCURVE",
"342 664 OFFCURVE",
"274 664 CURVE SMOOTH",
"159 664 OFFCURVE",
"107 593 OFFCURVE",
"107 517 CURVE SMOOTH",
"107 435 OFFCURVE",
"166 357 OFFCURVE",
"222 288 CURVE SMOOTH",
"355 124 OFFCURVE",
"450 6 OFFCURVE",
"521 -24 CURVE",
"553 13 OFFCURVE",
"596 55 OFFCURVE",
"646 98 CURVE",
"629 123 LINE",
"602 106 OFFCURVE",
"575 89 OFFCURVE",
"542 74 CURVE"
);
},
{
closed = 1;
nodes = (
"186 384 LINE",
"85 333 OFFCURVE",
"40 252 OFFCURVE",
"40 177 CURVE SMOOTH",
"40 80 OFFCURVE",
"107 -6 OFFCURVE",
"244 -6 CURVE SMOOTH",
"386 -6 OFFCURVE",
"549 119 OFFCURVE",
"558 398 CURVE",
"477 409 LINE",
"478 391 OFFCURVE",
"479 374 OFFCURVE",
"479 358 CURVE SMOOTH",
"479 140 OFFCURVE",
"382 46 OFFCURVE",
"269 46 CURVE SMOOTH",
"173 46 OFFCURVE",
"126 122 OFFCURVE",
"126 202 CURVE SMOOTH",
"126 256 OFFCURVE",
"150 313 OFFCURVE",
"207 350 CURVE"
);
},
{
closed = 1;
nodes = (
"653 418 LINE",
"396 418 LINE",
"384 382 LINE",
"505 378 OFFCURVE",
"572 372 OFFCURVE",
"661 360 CURVE"
);
}
);
width = 682;
},
{
layerId = "3B5B530A-BB7C-47AF-9BD0-0E3C29910424";
paths = (
{
closed = 1;
nodes = (
"530 144 OFFCURVE",
"464 221 OFFCURVE",
"394 300 CURVE SMOOTH",
"298 409 OFFCURVE",
"230 462 OFFCURVE",
"230 532 CURVE SMOOTH",
"230 559 OFFCURVE",
"238 595 OFFCURVE",
"265 613 CURVE",
"305 613 OFFCURVE",
"339 604 OFFCURVE",
"372 574 CURVE",
"395 465 LINE",
"448 465 LINE",
"460 514 OFFCURVE",
"473 573 OFFCURVE",
"483 620 CURVE",
"416 654 OFFCURVE",
"344 664 OFFCURVE",
"294 664 CURVE SMOOTH",
"165 664 OFFCURVE",
"93 593 OFFCURVE",
"93 507 CURVE SMOOTH",
"93 425 OFFCURVE",
"167 356 OFFCURVE",
"225 288 CURVE SMOOTH",
"358 132 OFFCURVE",
"483 6 OFFCURVE",
"554 -24 CURVE",
"606 25 OFFCURVE",
"649 67 OFFCURVE",
"709 118 CURVE",
"695 153 LINE",
"668 140 OFFCURVE",
"628 119 OFFCURVE",
"595 104 CURVE"
);
},
{
closed = 1;
nodes = (
"229 387 LINE",
"100 355 OFFCURVE",
"40 266 OFFCURVE",
"40 181 CURVE SMOOTH",
"40 84 OFFCURVE",
"117 -8 OFFCURVE",
"259 -8 CURVE SMOOTH",
"424 -8 OFFCURVE",
"579 109 OFFCURVE",
"623 398 CURVE",
"511 409 LINE",
"517 386 OFFCURVE",
"520 361 OFFCURVE",
"520 335 CURVE SMOOTH",
"520 209 OFFCURVE",
"450 61 OFFCURVE",
"311 61 CURVE SMOOTH",
"228 61 OFFCURVE",
"180 134 OFFCURVE",
"180 214 CURVE SMOOTH",
"180 268 OFFCURVE",
"202 324 OFFCURVE",
"250 363 CURVE"
);
},
{
closed = 1;
nodes = (
"727 420 LINE",
"413 420 LINE",
"397 366 LINE",
"508 366 OFFCURVE",
"625 352 OFFCURVE",
"739 340 CURVE"
);
}
);
width = 759;
}
);
leftKerningGroup = "0";
rightKerningGroup = "0";
unicode = 0026;
},
{
glyphname = quotesingle;
layers = (
{
layerId = "0CED4075-D7BB-4A7E-97B8-19FE9A07C10E";
paths = (
{
closed = 1;
nodes = (
"116 474 LINE",
"151 588 OFFCURVE",
"164 668 OFFCURVE",
"173 741 CURVE",
"157 748 OFFCURVE",
"137 751 OFFCURVE",
"118 751 CURVE SMOOTH",
"102 751 OFFCURVE",
"87 749 OFFCURVE",
"73 744 CURVE",
"76 662 OFFCURVE",
"82 576 OFFCURVE",
"90 477 CURVE"
);
}
);
width = 241;
},
{
background = {
paths = (
{
closed = 1;
nodes = (
"119 470 LINE",
"222 562 OFFCURVE",
"245 636 OFFCURVE",
"243 690 CURVE SMOOTH",
"242 707 OFFCURVE",
"238 722 OFFCURVE",
"232 737 CURVE",
"217 742 OFFCURVE",
"199 744 OFFCURVE",
"180 743 CURVE SMOOTH",
"160 742 OFFCURVE",
"146 737 OFFCURVE",
"132 731 CURVE",
"128 717 OFFCURVE",
"127 701 OFFCURVE",
"128 685 CURVE SMOOTH",
"129 668 OFFCURVE",
"131 651 OFFCURVE",
"137 634 CURVE",
"145 632 OFFCURVE",
"163 629 OFFCURVE",
"174 629 CURVE SMOOTH",
"168 601 OFFCURVE",
"147 552 OFFCURVE",
"84 494 CURVE"
);
}
);
};
layerId = "3B5B530A-BB7C-47AF-9BD0-0E3C29910424";
paths = (
{
closed = 1;
nodes = (
"139 472 LINE",
"179 586 OFFCURVE",
"192 668 OFFCURVE",
"201 738 CURVE",
"181 747 OFFCURVE",
"155 753 OFFCURVE",
"128 753 CURVE SMOOTH",
"109 753 OFFCURVE",
"89 749 OFFCURVE",
"71 741 CURVE",
"76 662 OFFCURVE",
"81 586 OFFCURVE",
"95 477 CURVE"
);
}
);
width = 298;
}
);
leftKerningGroup = "0";
rightKerningGroup = "0";
unicode = 0027;
},
{
glyphname = parenleft;
layers = (
{
layerId = "0CED4075-D7BB-4A7E-97B8-19FE9A07C10E";
paths = (
{
closed = 1;
nodes = (
"97 718 OFFCURVE",
"17 540 OFFCURVE",
"17 364 CURVE SMOOTH",
"17 188 OFFCURVE",
"95 12 OFFCURVE",
"253 -68 CURVE",
"272 -41 LINE",
"161 47 OFFCURVE",
"104 206 OFFCURVE",
"104 365 CURVE SMOOTH",
"104 525 OFFCURVE",
"161 684 OFFCURVE",
"272 772 CURVE",
"253 798 LINE"
);
}
);
width = 323;
},
{
background = {
paths = (
{
closed = 1;
nodes = (
"133 718 OFFCURVE",
"53 540 OFFCURVE",
"53 364 CURVE",
"53 188 OFFCURVE",
"131 12 OFFCURVE",
"289 -68 CURVE",
"308 -41 LINE",
"197 47 OFFCURVE",
"140 206 OFFCURVE",
"140 365 CURVE",
"140 525 OFFCURVE",
"197 684 OFFCURVE",
"308 772 CURVE",
"289 798 LINE"
);
}
);
};
layerId = "3B5B530A-BB7C-47AF-9BD0-0E3C29910424";
paths = (
{
closed = 1;
nodes = (
"111 718 OFFCURVE",
"20 540 OFFCURVE",
"20 364 CURVE SMOOTH",
"20 188 OFFCURVE",
"110 15 OFFCURVE",
"289 -78 CURVE",
"315 -41 LINE",
"212 43 OFFCURVE",
"161 201 OFFCURVE",
"161 364 CURVE SMOOTH",
"161 527 OFFCURVE",
"213 695 OFFCURVE",
"319 774 CURVE",
"293 804 LINE"
);
}
);
width = 354;
}
);
leftKerningGroup = "0";
rightKerningGroup = "0";
unicode = 0028;
},
{
glyphname = asterisk;
layers = (
{
background = {
paths = (
{
closed = 1;
nodes = (
"276 583 LINE",
"252 559 OFFCURVE",
"228 512 OFFCURVE",
"203 487 CURVE",
"214 476 LINE",
"239 500 OFFCURVE",
"285 524 OFFCURVE",
"311 549 CURVE",
"311 583 LINE"
);
},
{
closed = 1;
nodes = (
"181 465 OFFCURVE",
"135 441 OFFCURVE",
"110 416 CURVE",
"110 383 LINE",
"144 383 LINE",
"169 407 OFFCURVE",
"192 454 OFFCURVE",
"218 478 CURVE",
"206 490 LINE"
);
},
{
closed = 1;
nodes = (
"202 485 LINE",
"202 450 OFFCURVE",
"186 399 OFFCURVE",
"186 365 CURVE",
"211 341 LINE",
"234 365 LINE",
"234 399 OFFCURVE",
"218 450 OFFCURVE",
"218 485 CURVE"
);
},
{
closed = 1;
nodes = (
"68 482 LINE",
"92 458 LINE",
"128 458 OFFCURVE",
"177 475 OFFCURVE",
"212 475 CURVE",
"212 491 LINE",
"177 491 OFFCURVE",
"128 507 OFFCURVE",
"93 507 CURVE"
);
},
{
closed = 1;
nodes = (
"110 583 LINE",
"110 549 LINE",
"135 524 OFFCURVE",
"181 501 OFFCURVE",
"205 476 CURVE",
"217 487 LINE",
"192 512 OFFCURVE",
"169 559 OFFCURVE",
"144 583 CURVE"
);
},
{
closed = 1;
nodes = (
"204 478 LINE",
"228 452 OFFCURVE",
"252 407 OFFCURVE",
"276 383 CURVE",
"311 383 LINE",
"311 416 LINE",
"285 441 OFFCURVE",
"239 465 OFFCURVE",
"216 490 CURVE"
);
},
{
closed = 1;
nodes = (
"186 600 LINE",
"186 566 OFFCURVE",
"202 516 OFFCURVE",
"202 481 CURVE",
"218 481 LINE",
"218 516 OFFCURVE",
"234 566 OFFCURVE",
"234 600 CURVE",
"211 625 LINE"
);
},
{
closed = 1;
nodes = (
"293 507 OFFCURVE",
"243 491 OFFCURVE",
"208 491 CURVE",
"208 475 LINE",
"243 475 OFFCURVE",
"293 458 OFFCURVE",
"327 458 CURVE",
"352 483 LINE",
"328 507 LINE"
);
}
);
};
layerId = "0CED4075-D7BB-4A7E-97B8-19FE9A07C10E";
paths = (
{
closed = 1;
nodes = (
"234 365 LINE",
"234 391 OFFCURVE",
"225 427 OFFCURVE",
"220 458 CURVE",
"239 433 OFFCURVE",
"257 402 OFFCURVE",
"276 383 CURVE",
"311 383 LINE",
"311 416 LINE",
"291 435 OFFCURVE",
"260 454 OFFCURVE",
"235 473 CURVE",
"266 468 OFFCURVE",
"301 458 OFFCURVE",
"327 458 CURVE",
"352 483 LINE",
"328 507 LINE",
"301 507 OFFCURVE",
"266 498 OFFCURVE",
"235 493 CURVE",
"260 512 OFFCURVE",
"291 530 OFFCURVE",
"311 549 CURVE",
"311 583 LINE",
"276 583 LINE",
"258 565 OFFCURVE",
"239 532 OFFCURVE",
"220 507 CURVE",
"225 538 OFFCURVE",
"234 574 OFFCURVE",
"234 600 CURVE",
"211 625 LINE",
"186 600 LINE",
"186 574 OFFCURVE",
"195 538 OFFCURVE",
"200 507 CURVE",
"181 533 OFFCURVE",
"163 565 OFFCURVE",
"144 583 CURVE",
"110 583 LINE",
"110 549 LINE",
"129 530 OFFCURVE",
"161 512 OFFCURVE",
"185 493 CURVE",
"155 498 OFFCURVE",
"120 507 OFFCURVE",
"93 507 CURVE",
"68 482 LINE",
"92 458 LINE",
"120 458 OFFCURVE",
"155 468 OFFCURVE",
"186 473 CURVE",
"161 454 OFFCURVE",
"129 435 OFFCURVE",
"110 416 CURVE",
"110 383 LINE",
"144 383 LINE",
"163 401 OFFCURVE",
"181 433 OFFCURVE",
"200 457 CURVE",
"195 426 OFFCURVE",
"186 391 OFFCURVE",
"186 365 CURVE",
"211 341 LINE"
);
}
);
width = 420;
},
{
layerId = "3B5B530A-BB7C-47AF-9BD0-0E3C29910424";
paths = (
{
closed = 1;
nodes = (
"73 445 LINE",
"102 445 OFFCURVE",
"141 460 OFFCURVE",
"175 469 CURVE",
"145 450 OFFCURVE",
"107 433 OFFCURVE",
"86 413 CURVE",
"95 366 LINE",
"140 359 LINE",
"160 380 OFFCURVE",
"177 418 OFFCURVE",
"196 448 CURVE",
"187 414 OFFCURVE",
"172 375 OFFCURVE",
"172 346 CURVE",
"211 319 LINE",
"248 346 LINE",
"248 374 OFFCURVE",
"233 413 OFFCURVE",
"225 447 CURVE",
"243 417 OFFCURVE",
"259 380 OFFCURVE",
"279 361 CURVE",
"325 366 LINE",
"332 414 LINE",
"313 434 OFFCURVE",
"276 450 OFFCURVE",
"246 468 CURVE",
"280 460 OFFCURVE",
"317 445 OFFCURVE",
"345 445 CURVE",
"374 482 LINE",
"345 521 LINE",
"317 521 OFFCURVE",
"280 506 OFFCURVE",
"246 498 CURVE",
"276 516 OFFCURVE",
"313 532 OFFCURVE",
"332 552 CURVE",
"327 598 LINE",
"279 605 LINE",
"259 586 OFFCURVE",
"243 549 OFFCURVE",
"225 519 CURVE",
"233 553 OFFCURVE",
"248 590 OFFCURVE",
"248 618 CURVE",
"211 647 LINE",
"172 618 LINE",
"172 590 OFFCURVE",
"187 552 OFFCURVE",
"195 518 CURVE",
"177 548 OFFCURVE",
"160 586 OFFCURVE",
"140 607 CURVE",
"93 598 LINE",
"86 553 LINE",
"107 533 OFFCURVE",
"145 516 OFFCURVE",
"175 497 CURVE",
"141 506 OFFCURVE",
"102 521 OFFCURVE",
"73 521 CURVE",
"46 482 LINE"
);
}
);
width = 420;
}
);
unicode = 002A;
},
{
glyphname = plus;
layers = (
{
layerId = "0CED4075-D7BB-4A7E-97B8-19FE9A07C10E";
paths = (
{
closed = 1;
nodes = (
"355 358 OFFCURVE",
"166 358 OFFCURVE",
"25 361 CURVE",
"25 298 LINE",
"166 301 OFFCURVE",
"355 301 OFFCURVE",
"496 298 CURVE",
"496 361 LINE"
);
},
{
closed = 1;
nodes = (
"289 235 OFFCURVE",
"289 424 OFFCURVE",
"292 565 CURVE",
"229 565 LINE",
"232 424 OFFCURVE",
"232 235 OFFCURVE",
"229 94 CURVE",
"292 94 LINE"
);
}
);
width = 521;
},
{
layerId = "3B5B530A-BB7C-47AF-9BD0-0E3C29910424";
paths = (
{
closed = 1;
nodes = (
"386 369 OFFCURVE",
"185 369 OFFCURVE",
"35 372 CURVE",
"35 289 LINE",
"185 292 OFFCURVE",
"386 292 OFFCURVE",
"536 289 CURVE",
"536 372 LINE"
);
},
{
closed = 1;
nodes = (
"324 230 OFFCURVE",
"324 431 OFFCURVE",
"327 581 CURVE",
"244 581 LINE",
"247 431 OFFCURVE",
"247 230 OFFCURVE",
"244 80 CURVE",
"327 80 LINE"
);
}
);
width = 571;
}
);
unicode = 002B;
},
{
glyphname = comma;
layers = (
{
layerId = "0CED4075-D7BB-4A7E-97B8-19FE9A07C10E";
paths = (
{
closed = 1;
nodes = (
"20 -180 LINE",
"148 -85 OFFCURVE",
"181 -5 OFFCURVE",
"181 53 CURVE SMOOTH",
"181 70 OFFCURVE",
"178 86 OFFCURVE",
"173 100 CURVE",
"158 106 OFFCURVE",
"141 109 OFFCURVE",
"121 109 CURVE SMOOTH",
"101 109 OFFCURVE",
"87 105 OFFCURVE",
"72 99 CURVE",
"68 86 OFFCURVE",
"66 70 OFFCURVE",
"66 54 CURVE SMOOTH",
"66 37 OFFCURVE",
"68 20 OFFCURVE",
"72 3 CURVE",
"81 0 OFFCURVE",
"98 -4 OFFCURVE",
"109 -5 CURVE",
"101 -35 OFFCURVE",
"70 -88 OFFCURVE",
"-5 -148 CURVE"
);
}
);
width = 216;
},
{
background = {
paths = (
{
closed = 1;
nodes = (
"20 -180 LINE",
"148 -85 OFFCURVE",
"181 -5 OFFCURVE",
"181 53 CURVE SMOOTH",
"181 70 OFFCURVE",
"178 86 OFFCURVE",
"173 100 CURVE",
"158 106 OFFCURVE",
"141 109 OFFCURVE",
"121 109 CURVE SMOOTH",
"101 109 OFFCURVE",
"87 105 OFFCURVE",
"72 99 CURVE",
"68 86 OFFCURVE",
"66 70 OFFCURVE",
"66 54 CURVE SMOOTH",
"66 37 OFFCURVE",
"68 20 OFFCURVE",
"72 3 CURVE",
"81 0 OFFCURVE",
"98 -4 OFFCURVE",
"109 -5 CURVE",
"101 -35 OFFCURVE",
"70 -88 OFFCURVE",
"-5 -148 CURVE"
);
}
);
};
layerId = "3B5B530A-BB7C-47AF-9BD0-0E3C29910424";
paths = (
{
closed = 1;
nodes = (
"19 -202 LINE",
"175 -87 OFFCURVE",
"201 -8 OFFCURVE",
"201 62 CURVE SMOOTH",
"201 83 OFFCURVE",
"197 105 OFFCURVE",
"191 122 CURVE",
"173 129 OFFCURVE",
"152 133 OFFCURVE",
"128 133 CURVE SMOOTH",
"104 133 OFFCURVE",
"87 128 OFFCURVE",
"69 121 CURVE",
"64 105 OFFCURVE",
"61 83 OFFCURVE",
"61 63 CURVE SMOOTH",
"61 43 OFFCURVE",
"64 22 OFFCURVE",
"69 1 CURVE",
"79 -2 OFFCURVE",
"100 -7 OFFCURVE",
"114 -8 CURVE",
"104 -45 OFFCURVE",
"78 -86 OFFCURVE",
"-13 -158 CURVE"
);
}
);
width = 244;
}
);
leftKerningGroup = "0";
rightKerningGroup = "0";
unicode = 002C;
},
{
glyphname = hyphen;
layers = (
{
layerId = "0CED4075-D7BB-4A7E-97B8-19FE9A07C10E";
paths = (
{
closed = 1;
nodes = (
"68 280 LINE",
"68 217 LINE",
"280 217 LINE",
"280 280 LINE"
);
}
);
width = 348;
},
{
background = {
paths = (
{
closed = 1;
nodes = (
"68 280 LINE",
"68 217 LINE",
"280 217 LINE",
"280 280 LINE"
);
}
);
};
layerId = "3B5B530A-BB7C-47AF-9BD0-0E3C29910424";
paths = (
{
closed = 1;
nodes = (
"48 310 LINE",
"48 227 LINE",
"300 227 LINE",
"300 310 LINE"
);
}
);
width = 348;
}
);
leftKerningGroup = "0";
rightKerningGroup = "0";
unicode = 002D;
},
{
glyphname = period;
layers = (
{
layerId = "0CED4075-D7BB-4A7E-97B8-19FE9A07C10E";
paths = (
{
closed = 1;
nodes = (
"106 108 OFFCURVE",
"90 104 OFFCURVE",
"73 99 CURVE",
"68 83 OFFCURVE",
"65 66 OFFCURVE",
"65 50 CURVE SMOOTH",
"65 33 OFFCURVE",
"68 17 OFFCURVE",
"73 0 CURVE",
"90 -5 OFFCURVE",
"106 -9 OFFCURVE",
"123 -9 CURVE SMOOTH",
"138 -9 OFFCURVE",
"155 -5 OFFCURVE",
"172 0 CURVE",
"177 17 OFFCURVE",
"180 33 OFFCURVE",
"180 50 CURVE SMOOTH",
"180 66 OFFCURVE",
"177 83 OFFCURVE",
"172 99 CURVE",
"155 104 OFFCURVE",
"138 108 OFFCURVE",
"123 108 CURVE SMOOTH"
);
}
);
width = 255;
},
{
background = {
paths = (
{
closed = 1;
nodes = (
"106 108 OFFCURVE",
"90 104 OFFCURVE",
"73 99 CURVE",
"68 83 OFFCURVE",
"65 66 OFFCURVE",
"65 50 CURVE SMOOTH",
"65 33 OFFCURVE",
"68 17 OFFCURVE",
"73 0 CURVE",
"90 -5 OFFCURVE",
"106 -9 OFFCURVE",
"123 -9 CURVE SMOOTH",
"138 -9 OFFCURVE",
"155 -5 OFFCURVE",
"172 0 CURVE",
"177 17 OFFCURVE",
"180 33 OFFCURVE",
"180 50 CURVE SMOOTH",
"180 66 OFFCURVE",
"177 83 OFFCURVE",
"172 99 CURVE",
"155 104 OFFCURVE",
"138 108 OFFCURVE",
"123 108 CURVE SMOOTH"
);
}
);
};
layerId = "3B5B530A-BB7C-47AF-9BD0-0E3C29910424";
paths = (
{
closed = 1;
nodes = (
"102 133 OFFCURVE",
"83 128 OFFCURVE",
"62 122 CURVE",
"56 102 OFFCURVE",
"53 82 OFFCURVE",
"53 62 CURVE SMOOTH",
"53 41 OFFCURVE",
"56 22 OFFCURVE",
"62 1 CURVE",
"83 -5 OFFCURVE",
"102 -10 OFFCURVE",
"123 -10 CURVE SMOOTH",
"141 -10 OFFCURVE",
"162 -5 OFFCURVE",
"183 1 CURVE",
"189 22 OFFCURVE",
"192 41 OFFCURVE",
"192 62 CURVE SMOOTH",
"192 82 OFFCURVE",
"189 102 OFFCURVE",
"183 122 CURVE",
"162 128 OFFCURVE",
"141 133 OFFCURVE",
"123 133 CURVE SMOOTH"
);
}
);
width = 255;
}
);
leftKerningGroup = "0";
rightKerningGroup = "0";
unicode = 002E;
},
{
glyphname = slash;
layers = (
{
layerId = "0CED4075-D7BB-4A7E-97B8-19FE9A07C10E";
paths = (
{
closed = 1;
nodes = (
"326 763 LINE",
"26 -138 LINE",
"91 -138 LINE",
"392 763 LINE"
);
}
);
width = 418;
},
{
background = {
paths = (
{
closed = 1;
nodes = (
"326 763 LINE",
"26 -138 LINE",
"91 -138 LINE",
"392 763 LINE"
);
}
);
};
layerId = "3B5B530A-BB7C-47AF-9BD0-0E3C29910424";
paths = (
{
closed = 1;
nodes = (
"326 763 LINE",
"26 -138 LINE",
"111 -138 LINE",
"412 763 LINE"
);
}
);
width = 330;
}
);
leftKerningGroup = "0";
rightKerningGroup = "0";
unicode = 002F;
},
{
glyphname = zero;
layers = (
{
layerId = "0CED4075-D7BB-4A7E-97B8-19FE9A07C10E";
paths = (
{
closed = 1;
nodes = (
"389 625 OFFCURVE",
"261 625 CURVE SMOOTH",
"134 625 OFFCURVE",
"25 522 OFFCURVE",
"25 303 CURVE SMOOTH",
"25 95 OFFCURVE",
"134 -6 OFFCURVE",
"261 -6 CURVE SMOOTH",
"389 -6 OFFCURVE",
"498 95 OFFCURVE",
"498 303 CURVE SMOOTH",
"498 522 OFFCURVE"
);
},
{
closed = 1;
nodes = (
"178 580 OFFCURVE",
"260 580 CURVE SMOOTH",
"345 580 OFFCURVE",
"402 487 OFFCURVE",
"402 303 CURVE SMOOTH",
"402 127 OFFCURVE",
"346 40 OFFCURVE",
"261 40 CURVE SMOOTH",
"179 40 OFFCURVE",
"122 128 OFFCURVE",
"122 303 CURVE SMOOTH",
"122 488 OFFCURVE"
);
}
);
width = 523;
},
{
background = {
paths = (
{
closed = 1;
nodes = (
"364 467 OFFCURVE",
"234 467 CURVE SMOOTH",
"103 467 OFFCURVE",
"13 383 OFFCURVE",
"13 229 CURVE SMOOTH",
"13 76 OFFCURVE",
"103 -9 OFFCURVE",
"234 -9 CURVE SMOOTH",
"364 -9 OFFCURVE",
"454 76 OFFCURVE",
"454 229 CURVE SMOOTH",
"454 383 OFFCURVE"
);
},
{
closed = 1;
nodes = (
"158 423 OFFCURVE",
"234 423 CURVE SMOOTH",
"309 423 OFFCURVE",
"359 354 OFFCURVE",
"359 229 CURVE SMOOTH",
"359 104 OFFCURVE",
"309 36 OFFCURVE",
"234 36 CURVE SMOOTH",
"158 36 OFFCURVE",
"108 104 OFFCURVE",
"108 229 CURVE SMOOTH",
"108 354 OFFCURVE"
);
}
);
};
layerId = "3B5B530A-BB7C-47AF-9BD0-0E3C29910424";
paths = (
{
closed = 1;
nodes = (
"434 625 OFFCURVE",
"281 625 CURVE SMOOTH",
"127 625 OFFCURVE",
"25 512 OFFCURVE",
"25 303 CURVE SMOOTH",
"25 105 OFFCURVE",
"127 -6 OFFCURVE",
"281 -6 CURVE SMOOTH",
"434 -6 OFFCURVE",
"536 105 OFFCURVE",
"536 303 CURVE SMOOTH",
"536 512 OFFCURVE"
);
},
{
closed = 1;
nodes = (
"223 572 OFFCURVE",
"275 572 CURVE SMOOTH",
"339 572 OFFCURVE",
"399 500 OFFCURVE",
"399 303 CURVE SMOOTH",
"399 116 OFFCURVE",
"339 47 OFFCURVE",
"288 47 CURVE SMOOTH",
"223 47 OFFCURVE",
"162 116 OFFCURVE",
"162 303 CURVE SMOOTH",
"162 500 OFFCURVE"
);
}
);
width = 561;
}
);
leftKerningGroup = "0";
rightKerningGroup = "0";
unicode = 0030;
},
{
glyphname = one;
layers = (
{
layerId = "0CED4075-D7BB-4A7E-97B8-19FE9A07C10E";
paths = (
{
closed = 1;
nodes = (
"216 630 LINE",
"166 592 OFFCURVE",
"91 568 OFFCURVE",
"25 557 CURVE",
"39 517 LINE",
"167 520 LINE",
"170 440 OFFCURVE",
"171 383 OFFCURVE",
"171 305 CURVE SMOOTH",
"171 219 OFFCURVE",
"170 132 OFFCURVE",
"167 58 CURVE",
"33 35 LINE",
"46 0 LINE",
"90 1 OFFCURVE",
"168 3 OFFCURVE",
"215 3 CURVE SMOOTH",
"266 3 OFFCURVE",
"338 2 OFFCURVE",
"376 0 CURVE",
"388 35 LINE",
"260 58 LINE",
"257 136 OFFCURVE",
"256 228 OFFCURVE",
"256 319 CURVE SMOOTH",
"256 402 OFFCURVE",
"258 451 OFFCURVE",
"260 630 CURVE"
);
}
);
width = 403;
},
{
background = {
paths = (
{
closed = 1;
nodes = (
"209 462 LINE",
"158 414 OFFCURVE",
"108 404 OFFCURVE",
"42 393 CURVE",
"56 363 LINE",
"150 364 LINE",
"155 262 OFFCURVE",
"157 188 OFFCURVE",
"154 48 CURVE",
"56 29 LINE",
"65 0 LINE",
"103 1 OFFCURVE",
"150 3 OFFCURVE",
"199 3 CURVE",
"244 3 OFFCURVE",
"293 2 OFFCURVE",
"331 0 CURVE",
"340 29 LINE",
"242 48 LINE",
"236 193 OFFCURVE",
"239 287 OFFCURVE",
"242 462 CURVE"
);
}
);
};
layerId = "3B5B530A-BB7C-47AF-9BD0-0E3C29910424";
paths = (
{
closed = 1;
nodes = (
"270 630 LINE",
"200 572 OFFCURVE",
"111 548 OFFCURVE",
"35 537 CURVE",
"53 487 LINE",
"171 490 LINE",
"174 410 OFFCURVE",
"175 383 OFFCURVE",
"175 305 CURVE SMOOTH",
"175 219 OFFCURVE",
"174 164 OFFCURVE",
"171 70 CURVE",
"44 45 LINE",
"60 0 LINE",
"104 1 OFFCURVE",
"194 3 OFFCURVE",
"251 3 CURVE SMOOTH",
"317 3 OFFCURVE",
"392 2 OFFCURVE",
"430 0 CURVE",
"446 45 LINE",
"324 70 LINE",
"321 168 OFFCURVE",
"320 228 OFFCURVE",
"320 319 CURVE SMOOTH",
"320 402 OFFCURVE",
"322 451 OFFCURVE",
"324 630 CURVE"
);
}
);
width = 466;
}
);
leftKerningGroup = "0";
rightKerningGroup = "0";
unicode = 0031;
},
{
glyphname = two;
layers = (
{
layerId = "0CED4075-D7BB-4A7E-97B8-19FE9A07C10E";
paths = (
{
closed = 1;
nodes = (
"37 434 LINE",
"108 519 OFFCURVE",
"174 547 OFFCURVE",
"230 547 CURVE SMOOTH",
"290 547 OFFCURVE",
"340 510 OFFCURVE",
"340 439 CURVE SMOOTH",
"340 346 OFFCURVE",
"278 291 OFFCURVE",
"36 21 CURVE",
"44 0 LINE",
"108 3 OFFCURVE",
"181 4 OFFCURVE",
"249 4 CURVE SMOOTH",
"333 4 OFFCURVE",
"375 3 OFFCURVE",
"447 0 CURVE",
"431 88 LINE",
"329 72 OFFCURVE",
"227 73 OFFCURVE",
"125 74 CURVE",
"123 47 LINE",
"273 241 OFFCURVE",
"440 322 OFFCURVE",
"440 467 CURVE SMOOTH",
"440 564 OFFCURVE",
"363 628 OFFCURVE",
"269 628 CURVE SMOOTH",
"169 628 OFFCURVE",
"86 568 OFFCURVE",
"22 455 CURVE"
);
},
{
closed = 1;
nodes = (
"447 0 LINE",
"445 71 OFFCURVE",
"448 120 OFFCURVE",
"454 190 CURVE",
"415 190 LINE",
"401 154 OFFCURVE",
"394 121 OFFCURVE",
"378 81 CURVE"
);
}
);
width = 494;
},
{
background = {
paths = (
{
closed = 1;
nodes = (
"59 420 LINE",
"141 502 OFFCURVE",
"197 527 OFFCURVE",
"249 527 CURVE SMOOTH",
"293 527 OFFCURVE",
"346 501 OFFCURVE",
"346 431 CURVE SMOOTH",
"346 345 OFFCURVE",
"294 305 OFFCURVE",
"37 31 CURVE",
"52 0 LINE",
"116 3 OFFCURVE",
"194 4 OFFCURVE",
"268 4 CURVE SMOOTH",
"352 4 OFFCURVE",
"424 3 OFFCURVE",
"496 0 CURVE",
"480 114 LINE",
"367 99 OFFCURVE",
"259 89 OFFCURVE",
"146 86 CURVE",
"141 47 LINE",
"342 271 OFFCURVE",
"489 312 OFFCURVE",
"489 461 CURVE SMOOTH",
"489 564 OFFCURVE",
"406 628 OFFCURVE",
"302 628 CURVE SMOOTH",
"187 628 OFFCURVE",
"108 555 OFFCURVE",
"34 459 CURVE"
);
},
{
closed = 1;
nodes = (
"496 0 LINE",
"494 71 OFFCURVE",
"497 145 OFFCURVE",
"503 215 CURVE",
"450 215 LINE",
"436 179 OFFCURVE",
"427 145 OFFCURVE",
"411 105 CURVE"
);
}
);
};
layerId = "3B5B530A-BB7C-47AF-9BD0-0E3C29910424";
paths = (
{
closed = 1;
nodes = (
"63 427 LINE",
"130 502 OFFCURVE",
"177 527 OFFCURVE",
"236 527 CURVE SMOOTH",
"302 527 OFFCURVE",
"346 485 OFFCURVE",
"346 424 CURVE SMOOTH",
"346 345 OFFCURVE",
"277 284 OFFCURVE",
"40 41 CURVE",
"58 0 LINE",
"122 3 OFFCURVE",
"171 4 OFFCURVE",
"268 4 CURVE SMOOTH",
"352 4 OFFCURVE",
"424 3 OFFCURVE",
"496 0 CURVE",
"480 114 LINE",
"402 107 OFFCURVE",
"298 105 OFFCURVE",
"229 105 CURVE SMOOTH",
"198 105 OFFCURVE",
"169 105 OFFCURVE",
"143 106 CURVE",
"128 47 LINE",
"436 312 OFFCURVE",
"485 369 OFFCURVE",
"485 470 CURVE SMOOTH",
"485 582 OFFCURVE",
"391 629 OFFCURVE",
"299 629 CURVE SMOOTH",
"195 629 OFFCURVE",
"105 565 OFFCURVE",
"40 459 CURVE"
);
},
{
closed = 1;
nodes = (
"496 0 LINE",
"496 15 OFFCURVE",
"495 30 OFFCURVE",
"495 45 CURVE SMOOTH",
"495 102 OFFCURVE",
"498 160 OFFCURVE",
"503 215 CURVE",
"450 215 LINE",
"436 179 OFFCURVE",
"427 145 OFFCURVE",
"411 105 CURVE"
);
}
);
width = 538;
}
);
leftKerningGroup = "0";
rightKerningGroup = "0";
unicode = 0032;
},
{
glyphname = three;
layers = (
{
layerId = "0CED4075-D7BB-4A7E-97B8-19FE9A07C10E";
paths = (
{
closed = 1;
nodes = (
"310 438 OFFCURVE",
"357 489 OFFCURVE",
"414 547 CURVE",
"403 620 LINE",
"335 618 OFFCURVE",
"283 617 OFFCURVE",
"220 617 CURVE SMOOTH",
"158 617 OFFCURVE",
"117 618 OFFCURVE",
"59 620 CURVE",
"59 564 OFFCURVE",
"58 491 OFFCURVE",
"52 427 CURVE",
"85 427 LINE",
"99 463 OFFCURVE",
"106 494 OFFCURVE",
"122 534 CURVE",
"150 536 OFFCURVE",
"177 537 OFFCURVE",
"215 537 CURVE SMOOTH",
"249 537 OFFCURVE",
"288 536 OFFCURVE",
"326 535 CURVE",
"275 461 OFFCURVE",
"245 422 OFFCURVE",
"168 346 CURVE",
"178 321 LINE",
"289 321 OFFCURVE",
"368 264 OFFCURVE",
"368 174 CURVE SMOOTH",
"368 91 OFFCURVE",
"303 48 OFFCURVE",
"226 48 CURVE SMOOTH",
"169 48 OFFCURVE",
"107 70 OFFCURVE",
"57 111 CURVE",
"43 82 LINE",
"83 43 OFFCURVE",
"143 -6 OFFCURVE",
"244 -6 CURVE SMOOTH",
"349 -6 OFFCURVE",
"454 67 OFFCURVE",
"454 190 CURVE SMOOTH",
"454 293 OFFCURVE",
"388 372 OFFCURVE",
"272 395 CURVE"
);
}
);
width = 499;
},
{
background = {
paths = (
{
closed = 1;
nodes = (
"176 340 LINE",
"264 323 OFFCURVE",
"348 287 OFFCURVE",
"348 192 CURVE SMOOTH",
"348 104 OFFCURVE",
"277 61 OFFCURVE",
"187 61 CURVE SMOOTH",
"142 61 OFFCURVE",
"92 72 OFFCURVE",
"44 93 CURVE",
"33 39 LINE",
"87 8 OFFCURVE",
"150 -8 OFFCURVE",
"211 -8 CURVE SMOOTH",
"350 -8 OFFCURVE",
"482 72 OFFCURVE",
"482 220 CURVE SMOOTH",
"482 315 OFFCURVE",
"408 407 OFFCURVE",
"271 438 CURVE",
"223 366 LINE",
"287 439 OFFCURVE",
"359 499 OFFCURVE",
"445 587 CURVE",
"425 660 LINE",
"357 658 OFFCURVE",
"298 657 OFFCURVE",
"228 657 CURVE SMOOTH",
"168 657 OFFCURVE",
"101 658 OFFCURVE",
"43 660 CURVE",
"43 604 OFFCURVE",
"43 521 OFFCURVE",
"38 457 CURVE",
"87 457 LINE",
"101 492 OFFCURVE",
"111 524 OFFCURVE",
"124 554 CURVE",
"162 556 OFFCURVE",
"187 557 OFFCURVE",
"223 557 CURVE SMOOTH",
"257 557 OFFCURVE",
"280 556 OFFCURVE",
"304 555 CURVE",
"266 496 OFFCURVE",
"235 461 OFFCURVE",
"163 386 CURVE"
);
}
);
};
layerId = "3B5B530A-BB7C-47AF-9BD0-0E3C29910424";
paths = (
{
closed = 1;
nodes = (
"396 -8 OFFCURVE",
"484 103 OFFCURVE",
"484 212 CURVE SMOOTH",
"484 297 OFFCURVE",
"434 381 OFFCURVE",
"304 409 CURVE",
"345 453 OFFCURVE",
"397 499 OFFCURVE",
"445 547 CURVE",
"435 620 LINE",
"367 618 OFFCURVE",
"308 617 OFFCURVE",
"238 617 CURVE SMOOTH",
"178 617 OFFCURVE",
"111 618 OFFCURVE",
"53 620 CURVE",
"53 564 OFFCURVE",
"53 481 OFFCURVE",
"48 417 CURVE",
"97 417 LINE",
"111 452 OFFCURVE",
"121 484 OFFCURVE",
"134 514 CURVE",
"172 516 OFFCURVE",
"197 517 OFFCURVE",
"233 517 CURVE SMOOTH",
"267 517 OFFCURVE",
"290 516 OFFCURVE",
"314 515 CURVE",
"276 456 OFFCURVE",
"245 421 OFFCURVE",
"173 346 CURVE",
"190 300 LINE",
"272 300 OFFCURVE",
"349 256 OFFCURVE",
"349 174 CURVE SMOOTH",
"349 101 OFFCURVE",
"294 55 OFFCURVE",
"222 55 CURVE SMOOTH",
"167 55 OFFCURVE",
"103 78 OFFCURVE",
"49 124 CURVE",
"30 80 LINE",
"102 10 OFFCURVE",
"181 -8 OFFCURVE",
"242 -8 CURVE SMOOTH"
);
}
);
width = 509;
}
);
leftKerningGroup = "0";
rightKerningGroup = "0";
unicode = 0033;
},
{
glyphname = four;
layers = (
{
layerId = "0CED4075-D7BB-4A7E-97B8-19FE9A07C10E";
paths = (
{
closed = 1;
nodes = (
"349 628 LINE",
"248 468 OFFCURVE",
"127 308 OFFCURVE",
"20 178 CURVE",
"20 146 LINE",
"127 147 OFFCURVE",
"206 147 OFFCURVE",
"279 147 CURVE SMOOTH",
"352 147 OFFCURVE",
"419 147 OFFCURVE",
"500 146 CURVE",
"500 203 LINE",
"424 201 OFFCURVE",
"348 200 OFFCURVE",
"278 200 CURVE SMOOTH",
"215 200 OFFCURVE",
"161 201 OFFCURVE",
"133 203 CURVE",
"171 281 OFFCURVE",
"236 368 OFFCURVE",
"307 458 CURVE",
"307 370 OFFCURVE",
"309 289 OFFCURVE",
"309 193 CURVE SMOOTH",
"309 125 OFFCURVE",
"308 85 OFFCURVE",
"305 10 CURVE",
"399 10 LINE",
"397 95 OFFCURVE",
"397 194 OFFCURVE",
"397 289 CURVE SMOOTH",
"397 394 OFFCURVE",
"397 503 OFFCURVE",
"398 628 CURVE"
);
},
{
closed = 1;
nodes = (
"308 58 LINE",
"182 35 LINE",
"195 0 LINE",
"239 1 OFFCURVE",
"307 3 OFFCURVE",
"351 3 CURVE SMOOTH",
"401 3 OFFCURVE",
"453 2 OFFCURVE",
"491 0 CURVE",
"503 35 LINE",
"394 58 LINE"
);
}
);
width = 528;
},
{
background = {
paths = (
{
closed = 1;
nodes = (
"309 462 LINE",
"213 323 OFFCURVE",
"84 147 OFFCURVE",
"-5 29 CURVE",
"-5 0 LINE",
"189 1 OFFCURVE",
"314 1 OFFCURVE",
"447 0 CURVE",
"447 52 LINE",
"336 48 OFFCURVE",
"168 47 OFFCURVE",
"75 52 CURVE",
"120 123 OFFCURVE",
"205 236 OFFCURVE",
"269 318 CURVE",
"270 153 OFFCURVE",
"272 16 OFFCURVE",
"267 -145 CURVE",
"353 -145 LINE",
"349 86 OFFCURVE",
"353 236 OFFCURVE",
"354 462 CURVE"
);
}
);
};
layerId = "3B5B530A-BB7C-47AF-9BD0-0E3C29910424";
paths = (
{
closed = 1;
nodes = (
"369 628 LINE",
"260 468 OFFCURVE",
"132 328 OFFCURVE",
"15 198 CURVE",
"38 146 LINE",
"145 150 OFFCURVE",
"176 150 OFFCURVE",
"249 150 CURVE SMOOTH",
"372 150 OFFCURVE",
"444 150 OFFCURVE",
"525 146 CURVE",
"525 228 LINE",
"449 221 OFFCURVE",
"438 220 OFFCURVE",
"318 220 CURVE SMOOTH",
"255 220 OFFCURVE",
"182 221 OFFCURVE",
"148 228 CURVE",
"187 276 OFFCURVE",
"222 325 OFFCURVE",
"282 416 CURVE",
"282 329 OFFCURVE",
"284 272 OFFCURVE",
"284 203 CURVE SMOOTH",
"284 135 OFFCURVE",
"284 85 OFFCURVE",
"280 10 CURVE",
"424 10 LINE",
"422 125 OFFCURVE",
"422 184 OFFCURVE",
"422 279 CURVE SMOOTH",
"422 394 OFFCURVE",
"422 503 OFFCURVE",
"423 628 CURVE"
);
},
{
closed = 1;
nodes = (
"283 70 LINE",
"138 45 LINE",
"155 0 LINE",
"199 1 OFFCURVE",
"277 3 OFFCURVE",
"321 3 CURVE SMOOTH",
"426 3 OFFCURVE",
"465 2 OFFCURVE",
"503 0 CURVE",
"520 45 LINE",
"423 70 LINE"
);
}
);
width = 565;
}
);
leftKerningGroup = "0";
rightKerningGroup = "0";
unicode = 0034;
},
{
glyphname = five;
layers = (
{
background = {
paths = (
{
closed = 1;
nodes = (
"65 324 LINE",
"88 326 OFFCURVE",
"118 328 OFFCURVE",
"154 328 CURVE SMOOTH",
"263 328 OFFCURVE",
"345 286 OFFCURVE",
"345 187 CURVE SMOOTH",
"345 128 OFFCURVE",
"247 -11 OFFCURVE",
"37 69 CURVE",
"32 33 LINE",
"293 -95 OFFCURVE",
"433 125 OFFCURVE",
"433 213 CURVE SMOOTH",
"433 354 OFFCURVE",
"319 418 OFFCURVE",
"158 418 CURVE SMOOTH",
"115 418 LINE",
"126 542 LINE",
"164 542 OFFCURVE",
"308 549 OFFCURVE",
"406 521 CURVE",
"410 620 LINE",
"370 619 OFFCURVE",
"288 618 OFFCURVE",
"241 618 CURVE SMOOTH",
"174 618 OFFCURVE",
"135 619 OFFCURVE",
"77 620 CURVE",
"72 538 OFFCURVE",
"63 423 OFFCURVE",
"50 344 CURVE"
);
}
);
};
layerId = "0CED4075-D7BB-4A7E-97B8-19FE9A07C10E";
paths = (
{
closed = 1;
nodes = (
"46 314 LINE",
"72 319 OFFCURVE",
"97 321 OFFCURVE",
"129 321 CURVE SMOOTH",
"227 321 OFFCURVE",
"317 277 OFFCURVE",
"317 172 CURVE SMOOTH",
"317 90 OFFCURVE",
"237 33 OFFCURVE",
"148 33 CURVE SMOOTH",
"99 33 OFFCURVE",
"60 39 OFFCURVE",
"21 51 CURVE",
"15 18 LINE",
"61 -2 OFFCURVE",
"108 -8 OFFCURVE",
"152 -8 CURVE SMOOTH",
"277 -8 OFFCURVE",
"409 68 OFFCURVE",
"409 207 CURVE SMOOTH",
"409 330 OFFCURVE",
"302 410 OFFCURVE",
"142 410 CURVE SMOOTH",
"123 410 OFFCURVE",
"103 409 OFFCURVE",
"82 407 CURVE",
"85 443 OFFCURVE",
"90 501 OFFCURVE",
"99 542 CURVE",
"167 542 OFFCURVE",
"305 542 OFFCURVE",
"386 517 CURVE",
"390 620 LINE",
"350 619 OFFCURVE",
"278 618 OFFCURVE",
"231 618 CURVE SMOOTH",
"142 618 OFFCURVE",
"107 619 OFFCURVE",
"49 620 CURVE",
"48 543 OFFCURVE",
"41 434 OFFCURVE",
"26 341 CURVE"
);
}
);
width = 446;
},
{
background = {
paths = (
{
closed = 1;
nodes = (
"420 660 LINE",
"380 659 OFFCURVE",
"288 658 OFFCURVE",
"241 658 CURVE SMOOTH",
"174 658 OFFCURVE",
"135 659 OFFCURVE",
"77 660 CURVE",
"72 570 OFFCURVE",
"61 422 OFFCURVE",
"46 326 CURVE",
"68 343 OFFCURVE",
"101 407 OFFCURVE",
"122 424 CURVE",
"147 562 LINE",
"175 562 OFFCURVE",
"335 562 OFFCURVE",
"416 537 CURVE"
);
},
{
closed = 1;
nodes = (
"53 -15 LINE",
"357 28 OFFCURVE",
"460 152 OFFCURVE",
"460 274 CURVE SMOOTH",
"460 423 OFFCURVE",
"335 468 OFFCURVE",
"168 468 CURVE SMOOTH",
"131 468 OFFCURVE",
"108 467 OFFCURVE",
"106 467 CURVE",
"46 326 LINE",
"58 327 OFFCURVE",
"103 332 OFFCURVE",
"161 332 CURVE SMOOTH",
"259 332 OFFCURVE",
"340 300 OFFCURVE",
"340 232 CURVE SMOOTH",
"340 166 OFFCURVE",
"300 84 OFFCURVE",
"36 49 CURVE"
);
}
);
};
layerId = "3B5B530A-BB7C-47AF-9BD0-0E3C29910424";
paths = (
{
closed = 1;
nodes = (
"82 286 LINE",
"103 292 OFFCURVE",
"134 297 OFFCURVE",
"179 297 CURVE SMOOTH",
"286 297 OFFCURVE",
"343 237 OFFCURVE",
"343 172 CURVE SMOOTH",
"343 85 OFFCURVE",
"265 46 OFFCURVE",
"170 46 CURVE SMOOTH",
"132 46 OFFCURVE",
"92 52 OFFCURVE",
"53 64 CURVE",
"45 10 LINE",
"91 -2 OFFCURVE",
"138 -8 OFFCURVE",
"182 -8 CURVE SMOOTH",
"337 -8 OFFCURVE",
"469 64 OFFCURVE",
"469 215 CURVE SMOOTH",
"469 320 OFFCURVE",
"376 428 OFFCURVE",
"212 428 CURVE SMOOTH",
"174 428 OFFCURVE",
"155 427 OFFCURVE",
"130 423 CURVE",
"133 459 OFFCURVE",
"138 491 OFFCURVE",
"147 522 CURVE",
"175 522 OFFCURVE",
"355 522 OFFCURVE",
"436 497 CURVE",
"440 620 LINE",
"400 619 OFFCURVE",
"288 618 OFFCURVE",
"241 618 CURVE SMOOTH",
"174 618 OFFCURVE",
"135 619 OFFCURVE",
"77 620 CURVE",
"76 543 OFFCURVE",
"67 414 OFFCURVE",
"52 321 CURVE"
);
}
);
width = 504;
}
);
leftKerningGroup = "0";
rightKerningGroup = "0";
unicode = 0035;
},
{
glyphname = six;
layers = (
{
background = {
paths = (
{
closed = 1;
nodes = (
"114 313 LINE",
"131 327 OFFCURVE",
"172 353 OFFCURVE",
"235 353 CURVE SMOOTH",
"326 353 OFFCURVE",
"369 276 OFFCURVE",
"369 192 CURVE SMOOTH",
"369 116 OFFCURVE",
"335 39 OFFCURVE",
"257 39 CURVE SMOOTH",
"188 39 OFFCURVE",
"115 114 OFFCURVE",
"115 268 CURVE SMOOTH",
"115 418 OFFCURVE",
"184 551 OFFCURVE",
"412 627 CURVE",
"393 668 LINE",
"113 598 OFFCURVE",
"16 420 OFFCURVE",
"16 252 CURVE SMOOTH",
"16 108 OFFCURVE",
"97 -6 OFFCURVE",
"237 -6 CURVE SMOOTH",
"392 -6 OFFCURVE",
"463 105 OFFCURVE",
"463 215 CURVE SMOOTH",
"463 320 OFFCURVE",
"398 413 OFFCURVE",
"269 413 CURVE SMOOTH",
"205 413 OFFCURVE",
"154 383 OFFCURVE",
"114 362 CURVE"
);
}
);
};
layerId = "0CED4075-D7BB-4A7E-97B8-19FE9A07C10E";
paths = (
{
closed = 1;
nodes = (
"119 302 LINE",
"155 326 OFFCURVE",
"186 341 OFFCURVE",
"235 341 CURVE SMOOTH",
"317 341 OFFCURVE",
"358 256 OFFCURVE",
"358 176 CURVE SMOOTH",
"358 104 OFFCURVE",
"325 35 OFFCURVE",
"257 35 CURVE SMOOTH",
"193 35 OFFCURVE",
"130 110 OFFCURVE",
"130 235 CURVE SMOOTH",
"130 357 OFFCURVE",
"183 504 OFFCURVE",
"400 594 CURVE",
"387 627 LINE",
"133 537 OFFCURVE",
"35 359 OFFCURVE",
"35 219 CURVE SMOOTH",
"35 104 OFFCURVE",
"112 -10 OFFCURVE",
"237 -10 CURVE SMOOTH",
"378 -10 OFFCURVE",
"449 101 OFFCURVE",
"449 211 CURVE SMOOTH",
"449 296 OFFCURVE",
"384 401 OFFCURVE",
"269 401 CURVE SMOOTH",
"220 401 OFFCURVE",
"159 381 OFFCURVE",
"114 335 CURVE"
);
}
);
width = 484;
},
{
background = {
anchors = (
{
name = bottom;
position = "{304, -141}";
}
);
paths = (
{
closed = 1;
nodes = (
"150 291 LINE",
"157 305 OFFCURVE",
"194 343 OFFCURVE",
"258 343 CURVE SMOOTH",
"331 343 OFFCURVE",
"366 258 OFFCURVE",
"366 181 CURVE SMOOTH",
"366 114 OFFCURVE",
"340 54 OFFCURVE",
"290 54 CURVE SMOOTH",
"241 54 OFFCURVE",
"185 114 OFFCURVE",
"185 268 CURVE SMOOTH",
"185 418 OFFCURVE",
"274 536 OFFCURVE",
"462 618 CURVE",
"436 673 LINE",
"146 587 OFFCURVE",
"35 420 OFFCURVE",
"35 252 CURVE SMOOTH",
"35 108 OFFCURVE",
"116 -6 OFFCURVE",
"273 -6 CURVE SMOOTH",
"435 -6 OFFCURVE",
"506 105 OFFCURVE",
"506 215 CURVE SMOOTH",
"506 320 OFFCURVE",
"441 413 OFFCURVE",
"292 413 CURVE SMOOTH",
"238 413 OFFCURVE",
"170 383 OFFCURVE",
"140 357 CURVE"
);
}
);
};
layerId = "3B5B530A-BB7C-47AF-9BD0-0E3C29910424";
paths = (
{
closed = 1;
nodes = (
"168 284 LINE",
"175 298 OFFCURVE",
"210 336 OFFCURVE",
"268 336 CURVE SMOOTH",
"327 336 OFFCURVE",
"359 258 OFFCURVE",
"359 183 CURVE SMOOTH",
"359 113 OFFCURVE",
"332 47 OFFCURVE",
"277 47 CURVE SMOOTH",
"228 47 OFFCURVE",
"180 114 OFFCURVE",
"180 248 CURVE SMOOTH",
"180 418 OFFCURVE",
"265 543 OFFCURVE",
"453 595 CURVE",
"436 633 LINE",
"186 587 OFFCURVE",
"35 420 OFFCURVE",
"35 232 CURVE SMOOTH",
"35 108 OFFCURVE",
"116 -6 OFFCURVE",
"273 -6 CURVE SMOOTH",
"423 -6 OFFCURVE",
"499 102 OFFCURVE",
"499 206 CURVE SMOOTH",
"499 304 OFFCURVE",
"432 400 OFFCURVE",
"295 400 CURVE SMOOTH",
"240 400 OFFCURVE",
"187 375 OFFCURVE",
"156 347 CURVE"
);
}
);
width = 534;
}
);
leftKerningGroup = "0";
rightKerningGroup = "0";
unicode = 0036;
},
{
glyphname = seven;
layers = (
{
layerId = "0CED4075-D7BB-4A7E-97B8-19FE9A07C10E";
paths = (
{
closed = 1;
nodes = (
"161 537 OFFCURVE",
"196 538 OFFCURVE",
"242 538 CURVE SMOOTH",
"289 538 OFFCURVE",
"334 537 OFFCURVE",
"377 535 CURVE",
"254 362 OFFCURVE",
"183 176 OFFCURVE",
"152 0 CURVE",
"251 0 LINE",
"268 194 OFFCURVE",
"333 380 OFFCURVE",
"457 592 CURVE",
"441 620 LINE",
"377 618 OFFCURVE",
"306 617 OFFCURVE",
"236 617 CURVE SMOOTH",
"166 617 OFFCURVE",
"109 618 OFFCURVE",
"48 620 CURVE",
"48 569 OFFCURVE",
"44 508 OFFCURVE",
"40 430 CURVE",
"70 430 LINE",
"81 463 OFFCURVE",
"92 502 OFFCURVE",
"105 535 CURVE"
);
}
);
width = 479;
},
{
background = {
paths = (
{
closed = 1;
nodes = (
"160 562 OFFCURVE",
"177 562 OFFCURVE",
"223 562 CURVE SMOOTH",
"260 562 OFFCURVE",
"319 562 OFFCURVE",
"362 560 CURVE",
"235 365 OFFCURVE",
"164 187 OFFCURVE",
"137 0 CURVE",
"276 0 LINE",
"286 137 OFFCURVE",
"305 336 OFFCURVE",
"469 627 CURVE",
"441 660 LINE",
"377 658 OFFCURVE",
"320 657 OFFCURVE",
"230 657 CURVE SMOOTH",
"174 657 OFFCURVE",
"92 658 OFFCURVE",
"31 660 CURVE",
"31 609 OFFCURVE",
"29 536 OFFCURVE",
"25 458 CURVE",
"74 458 LINE",
"84 491 OFFCURVE",
"95 524 OFFCURVE",
"110 560 CURVE"
);
}
);
};
layerId = "3B5B530A-BB7C-47AF-9BD0-0E3C29910424";
paths = (
{
closed = 1;
nodes = (
"204 515 OFFCURVE",
"258 516 OFFCURVE",
"366 510 CURVE",
"239 333 OFFCURVE",
"164 155 OFFCURVE",
"137 0 CURVE",
"284 0 LINE",
"294 105 OFFCURVE",
"305 304 OFFCURVE",
"469 575 CURVE",
"441 620 LINE",
"377 618 OFFCURVE",
"320 617 OFFCURVE",
"230 617 CURVE SMOOTH",
"174 617 OFFCURVE",
"92 618 OFFCURVE",
"31 620 CURVE",
"31 569 OFFCURVE",
"29 486 OFFCURVE",
"25 408 CURVE",
"74 408 LINE",
"84 441 OFFCURVE",
"95 474 OFFCURVE",
"110 510 CURVE"
);
}
);
width = 474;
}
);
leftKerningGroup = "0";
rightKerningGroup = "0";
unicode = 0037;
},
{
glyphname = eight;
layers = (
{
layerId = "0CED4075-D7BB-4A7E-97B8-19FE9A07C10E";
paths = (
{
closed = 1;
nodes = (
"417 430 OFFCURVE",
"417 485 CURVE SMOOTH",
"417 582 OFFCURVE",
"328 629 OFFCURVE",
"233 629 CURVE SMOOTH",
"139 629 OFFCURVE",
"48 579 OFFCURVE",
"48 475 CURVE SMOOTH",
"48 304 OFFCURVE",
"356 300 OFFCURVE",
"356 131 CURVE SMOOTH",
"356 61 OFFCURVE",
"301 26 OFFCURVE",
"245 26 CURVE SMOOTH",
"166 26 OFFCURVE",
"127 85 OFFCURVE",
"127 155 CURVE SMOOTH",
"127 218 OFFCURVE",
"162 290 OFFCURVE",
"232 327 CURVE",
"190 338 LINE",
"85 300 OFFCURVE",
"35 224 OFFCURVE",
"35 153 CURVE SMOOTH",
"35 69 OFFCURVE",
"104 -7 OFFCURVE",
"239 -7 CURVE SMOOTH",
"340 -7 OFFCURVE",
"445 50 OFFCURVE",
"445 157 CURVE SMOOTH",
"445 365 OFFCURVE",
"128 377 OFFCURVE",
"128 511 CURVE SMOOTH",
"128 567 OFFCURVE",
"173 596 OFFCURVE",
"220 596 CURVE SMOOTH",
"287 596 OFFCURVE",
"330 544 OFFCURVE",
"330 487 CURVE SMOOTH",
"330 438 OFFCURVE",
"307 379 OFFCURVE",
"233 351 CURVE",
"258 332 LINE",
"378 358 OFFCURVE"
);
}
);
width = 480;
},
{
background = {
paths = (
{
closed = 1;
nodes = (
"449 453 OFFCURVE",
"449 522 CURVE SMOOTH",
"449 596 OFFCURVE",
"385 665 OFFCURVE",
"251 665 CURVE SMOOTH",
"126 665 OFFCURVE",
"37 597 OFFCURVE",
"37 500 CURVE SMOOTH",
"37 304 OFFCURVE",
"358 304 OFFCURVE",
"358 141 CURVE SMOOTH",
"358 85 OFFCURVE",
"316 54 OFFCURVE",
"259 54 CURVE SMOOTH",
"202 54 OFFCURVE",
"146 93 OFFCURVE",
"146 167 CURVE SMOOTH",
"146 240 OFFCURVE",
"176 302 OFFCURVE",
"239 341 CURVE",
"206 363 LINE",
"75 329 OFFCURVE",
"15 249 OFFCURVE",
"15 163 CURVE SMOOTH",
"15 76 OFFCURVE",
"94 -6 OFFCURVE",
"250 -6 CURVE SMOOTH",
"397 -6 OFFCURVE",
"490 67 OFFCURVE",
"490 181 CURVE SMOOTH",
"490 396 OFFCURVE",
"161 408 OFFCURVE",
"161 541 CURVE SMOOTH",
"161 586 OFFCURVE",
"200 606 OFFCURVE",
"237 606 CURVE SMOOTH",
"301 606 OFFCURVE",
"342 563 OFFCURVE",
"342 514 CURVE SMOOTH",
"342 464 OFFCURVE",
"303 406 OFFCURVE",
"237 382 CURVE",
"284 350 LINE",
"393 378 OFFCURVE"
);
}
);
};
layerId = "3B5B530A-BB7C-47AF-9BD0-0E3C29910424";
paths = (
{
closed = 1;
nodes = (
"443 437 OFFCURVE",
"443 486 CURVE SMOOTH",
"443 560 OFFCURVE",
"385 629 OFFCURVE",
"251 629 CURVE SMOOTH",
"126 629 OFFCURVE",
"42 561 OFFCURVE",
"42 464 CURVE SMOOTH",
"42 288 OFFCURVE",
"348 288 OFFCURVE",
"348 141 CURVE SMOOTH",
"348 79 OFFCURVE",
"306 48 OFFCURVE",
"261 48 CURVE SMOOTH",
"210 48 OFFCURVE",
"156 88 OFFCURVE",
"156 167 CURVE SMOOTH",
"156 220 OFFCURVE",
"176 286 OFFCURVE",
"239 325 CURVE",
"206 347 LINE",
"75 313 OFFCURVE",
"25 229 OFFCURVE",
"25 163 CURVE SMOOTH",
"25 76 OFFCURVE",
"94 -6 OFFCURVE",
"250 -6 CURVE SMOOTH",
"387 -6 OFFCURVE",
"480 67 OFFCURVE",
"480 181 CURVE SMOOTH",
"480 380 OFFCURVE",
"172 392 OFFCURVE",
"172 505 CURVE SMOOTH",
"172 548 OFFCURVE",
"203 577 OFFCURVE",
"242 577 CURVE SMOOTH",
"290 577 OFFCURVE",
"336 543 OFFCURVE",
"336 478 CURVE SMOOTH",
"336 448 OFFCURVE",
"323 400 OFFCURVE",
"237 366 CURVE",
"284 334 LINE",
"393 362 OFFCURVE"
);
}
);
width = 505;
}
);
leftKerningGroup = "0";
rightKerningGroup = "0";
unicode = 0038;
},
{
glyphname = nine;
layers = (
{
layerId = "0CED4075-D7BB-4A7E-97B8-19FE9A07C10E";
paths = (
{
closed = 1;
nodes = (
"365 316 LINE",
"329 292 OFFCURVE",
"298 277 OFFCURVE",
"249 277 CURVE SMOOTH",
"167 277 OFFCURVE",
"126 362 OFFCURVE",
"126 442 CURVE SMOOTH",
"126 514 OFFCURVE",
"159 583 OFFCURVE",
"227 583 CURVE SMOOTH",
"291 583 OFFCURVE",
"354 508 OFFCURVE",
"354 383 CURVE SMOOTH",
"354 261 OFFCURVE",
"299 113 OFFCURVE",
"71 23 CURVE",
"86 -9 LINE",
"351 81 OFFCURVE",
"449 259 OFFCURVE",
"449 399 CURVE SMOOTH",
"449 514 OFFCURVE",
"372 628 OFFCURVE",
"247 628 CURVE SMOOTH",
"106 628 OFFCURVE",
"35 517 OFFCURVE",
"35 407 CURVE SMOOTH",
"35 322 OFFCURVE",
"100 217 OFFCURVE",
"215 217 CURVE SMOOTH",
"264 217 OFFCURVE",
"325 237 OFFCURVE",
"370 283 CURVE"
);
}
);
width = 484;
},
{
background = {
paths = (
{
closed = 1;
nodes = (
"413 368 LINE",
"401 350 OFFCURVE",
"362 306 OFFCURVE",
"288 306 CURVE SMOOTH",
"217 306 OFFCURVE",
"180 394 OFFCURVE",
"180 478 CURVE SMOOTH",
"180 554 OFFCURVE",
"210 605 OFFCURVE",
"256 605 CURVE SMOOTH",
"308 605 OFFCURVE",
"361 538 OFFCURVE",
"361 391 CURVE SMOOTH",
"361 271 OFFCURVE",
"313 137 OFFCURVE",
"74 37 CURVE",
"110 -14 LINE",
"438 86 OFFCURVE",
"511 269 OFFCURVE",
"511 407 CURVE SMOOTH",
"511 550 OFFCURVE",
"430 665 OFFCURVE",
"279 665 CURVE SMOOTH",
"106 665 OFFCURVE",
"40 554 OFFCURVE",
"40 444 CURVE SMOOTH",
"40 339 OFFCURVE",
"95 236 OFFCURVE",
"254 236 CURVE SMOOTH",
"318 236 OFFCURVE",
"389 275 OFFCURVE",
"416 296 CURVE"
);
}
);
};
layerId = "3B5B530A-BB7C-47AF-9BD0-0E3C29910424";
paths = (
{
closed = 1;
nodes = (
"370 339 LINE",
"363 325 OFFCURVE",
"324 287 OFFCURVE",
"266 287 CURVE SMOOTH",
"207 287 OFFCURVE",
"175 365 OFFCURVE",
"175 440 CURVE SMOOTH",
"175 510 OFFCURVE",
"202 576 OFFCURVE",
"257 576 CURVE SMOOTH",
"306 576 OFFCURVE",
"358 509 OFFCURVE",
"358 375 CURVE SMOOTH",
"358 205 OFFCURVE",
"283 80 OFFCURVE",
"95 28 CURVE",
"112 -10 LINE",
"362 36 OFFCURVE",
"503 203 OFFCURVE",
"503 391 CURVE SMOOTH",
"503 515 OFFCURVE",
"418 629 OFFCURVE",
"261 629 CURVE SMOOTH",
"111 629 OFFCURVE",
"35 521 OFFCURVE",
"35 417 CURVE SMOOTH",
"35 319 OFFCURVE",
"102 223 OFFCURVE",
"239 223 CURVE SMOOTH",
"294 223 OFFCURVE",
"351 248 OFFCURVE",
"382 276 CURVE"
);
}
);
width = 538;
}
);
leftKerningGroup = "0";
rightKerningGroup = "0";
unicode = 0039;
},
{
glyphname = zero.alt;
layers = (
{
layerId = "0CED4075-D7BB-4A7E-97B8-19FE9A07C10E";
paths = (
{
closed = 1;
nodes = (
"337 109 OFFCURVE",
"337 229 CURVE SMOOTH",
"337 348 OFFCURVE",
"288 467 OFFCURVE",
"176 467 CURVE SMOOTH",
"63 467 OFFCURVE",
"13 348 OFFCURVE",
"13 229 CURVE SMOOTH",
"13 109 OFFCURVE",
"63 -10 OFFCURVE",
"176 -10 CURVE SMOOTH",
"288 -10 OFFCURVE"
);
},
{
closed = 1;
nodes = (
"90 131 OFFCURVE",
"90 236 CURVE SMOOTH",
"90 336 OFFCURVE",
"120 433 OFFCURVE",
"171 433 CURVE SMOOTH",
"229 433 OFFCURVE",
"261 325 OFFCURVE",
"261 220 CURVE SMOOTH",
"261 120 OFFCURVE",
"232 23 OFFCURVE",
"181 23 CURVE SMOOTH",
"123 23 OFFCURVE"
);
}
);
width = 350;
},
{
background = {
paths = (
{
closed = 1;
nodes = (
"279 467 OFFCURVE",
"149 467 CURVE SMOOTH",
"18 467 OFFCURVE",
"-72 383 OFFCURVE",
"-72 229 CURVE SMOOTH",
"-72 76 OFFCURVE",
"18 -9 OFFCURVE",
"149 -9 CURVE SMOOTH",
"279 -9 OFFCURVE",
"369 76 OFFCURVE",
"369 229 CURVE SMOOTH",
"369 383 OFFCURVE"
);
},
{
closed = 1;
nodes = (
"73 423 OFFCURVE",
"149 423 CURVE SMOOTH",
"224 423 OFFCURVE",
"274 354 OFFCURVE",
"274 229 CURVE SMOOTH",
"274 104 OFFCURVE",
"224 36 OFFCURVE",
"149 36 CURVE SMOOTH",
"73 36 OFFCURVE",
"23 104 OFFCURVE",
"23 229 CURVE SMOOTH",
"23 354 OFFCURVE"
);
}
);
};
layerId = "3B5B530A-BB7C-47AF-9BD0-0E3C29910424";
paths = (
{
closed = 1;
nodes = (
"258 468 OFFCURVE",
"175 468 CURVE SMOOTH",
"92 468 OFFCURVE",
"9 397 OFFCURVE",
"9 225 CURVE SMOOTH",
"9 49 OFFCURVE",
"92 -9 OFFCURVE",
"175 -9 CURVE SMOOTH",
"257 -9 OFFCURVE",
"340 49 OFFCURVE",
"340 225 CURVE SMOOTH",
"340 398 OFFCURVE"
);
},
{
closed = 1;
nodes = (
"143 426 OFFCURVE",
"175 426 CURVE SMOOTH",
"208 426 OFFCURVE",
"244 388 OFFCURVE",
"244 225 CURVE SMOOTH",
"244 68 OFFCURVE",
"208 34 OFFCURVE",
"176 34 CURVE SMOOTH",
"144 34 OFFCURVE",
"107 69 OFFCURVE",
"107 225 CURVE SMOOTH",
"107 389 OFFCURVE"
);
}
);
width = 350;
}
);
leftKerningGroup = "0";
rightKerningGroup = "0";
},
{
glyphname = one.alt;
layers = (
{
layerId = "0CED4075-D7BB-4A7E-97B8-19FE9A07C10E";
paths = (
{
closed = 1;
nodes = (
"93 0 OFFCURVE",
"151 2 OFFCURVE",
"185 2 CURVE SMOOTH",
"221 2 OFFCURVE",
"274 1 OFFCURVE",
"302 0 CURVE",
"310 25 LINE",
"222 41 LINE",
"220 111 OFFCURVE",
"219 177 OFFCURVE",
"219 242 CURVE SMOOTH",
"219 292 OFFCURVE",
"220 341 OFFCURVE",
"222 469 CURVE",
"187 469 LINE",
"152 442 OFFCURVE",
"90 425 OFFCURVE",
"43 417 CURVE",
"53 389 LINE",
"145 391 LINE",
"147 334 OFFCURVE",
"148 279 OFFCURVE",
"148 232 CURVE SMOOTH",
"148 170 OFFCURVE",
"147 108 OFFCURVE",
"145 41 CURVE",
"53 25 LINE",
"62 0 LINE"
);
}
);
width = 350;
},
{
background = {
paths = (
{
closed = 1;
nodes = (
"121 462 LINE",
"70 414 OFFCURVE",
"20 404 OFFCURVE",
"-46 393 CURVE",
"-32 363 LINE",
"62 364 LINE",
"67 262 OFFCURVE",
"69 188 OFFCURVE",
"66 48 CURVE",
"-32 29 LINE",
"-23 0 LINE",
"15 1 OFFCURVE",
"62 3 OFFCURVE",
"111 3 CURVE",
"156 3 OFFCURVE",
"205 2 OFFCURVE",
"243 0 CURVE",
"252 29 LINE",
"154 48 LINE",
"148 193 OFFCURVE",
"151 287 OFFCURVE",
"154 462 CURVE"
);
}
);
};
layerId = "3B5B530A-BB7C-47AF-9BD0-0E3C29910424";
paths = (
{
closed = 1;
nodes = (
"180 469 LINE",
"138 443 OFFCURVE",
"68 426 OFFCURVE",
"32 418 CURVE",
"45 383 LINE",
"124 385 LINE",
"126 329 OFFCURVE",
"127 283 OFFCURVE",
"127 228 CURVE SMOOTH",
"127 168 OFFCURVE",
"126 115 OFFCURVE",
"124 50 CURVE",
"39 32 LINE",
"50 1 LINE",
"81 1 OFFCURVE",
"137 3 OFFCURVE",
"177 3 CURVE SMOOTH",
"219 3 OFFCURVE",
"269 2 OFFCURVE",
"296 1 CURVE",
"307 32 LINE",
"224 50 LINE",
"222 118 OFFCURVE",
"222 174 OFFCURVE",
"222 238 CURVE SMOOTH",
"222 296 OFFCURVE",
"223 344 OFFCURVE",
"224 469 CURVE"
);
}
);
width = 340;
}
);
leftKerningGroup = "0";
rightKerningGroup = "0";
},
{
glyphname = two.alt;
layers = (
{
layerId = "0CED4075-D7BB-4A7E-97B8-19FE9A07C10E";
paths = (
{
closed = 1;
nodes = (
"33 333 LINE",
"88 387 OFFCURVE",
"125 399 OFFCURVE",
"161 399 CURVE SMOOTH",
"205 399 OFFCURVE",
"241 372 OFFCURVE",
"241 316 CURVE SMOOTH",
"241 265 OFFCURVE",
"199 217 OFFCURVE",
"22 21 CURVE",
"27 0 LINE",
"73 3 OFFCURVE",
"133 3 OFFCURVE",
"178 3 CURVE SMOOTH",
"238 3 OFFCURVE",
"268 3 OFFCURVE",
"320 0 CURVE",
"308 78 LINE",
"228 67 OFFCURVE",
"205 67 OFFCURVE",
"105 67 CURVE",
"95 34 LINE",
"231 208 OFFCURVE",
"315 249 OFFCURVE",
"315 345 CURVE SMOOTH",
"315 422 OFFCURVE",
"255 468 OFFCURVE",
"188 468 CURVE SMOOTH",
"122 468 OFFCURVE",
"71 425 OFFCURVE",
"18 352 CURVE"
);
},
{
closed = 1;
nodes = (
"320 0 LINE",
"318 51 OFFCURVE",
"320 94 OFFCURVE",
"325 144 CURVE",
"297 144 LINE",
"287 118 OFFCURVE",
"282 95 OFFCURVE",
"270 66 CURVE"
);
}
);
width = 350;
},
{
background = {
paths = (
{
closed = 1;
nodes = (
"-7 311 LINE",
"44 369 OFFCURVE",
"102 400 OFFCURVE",
"136 400 CURVE SMOOTH",
"187 400 OFFCURVE",
"227 372 OFFCURVE",
"227 311 CURVE SMOOTH",
"227 249 OFFCURVE",
"166 151 OFFCURVE",
"-14 15 CURVE",
"-6 -4 LINE",
"52 -2 OFFCURVE",
"116 -1 OFFCURVE",
"154 -1 CURVE SMOOTH",
"232 -1 OFFCURVE",
"270 -2 OFFCURVE",
"335 -4 CURVE",
"337 29 OFFCURVE",
"338 53 OFFCURVE",
"339 90 CURVE",
"236 73 OFFCURVE",
"210 73 OFFCURVE",
"90 71 CURVE",
"83 43 LINE",
"253 178 OFFCURVE",
"326 235 OFFCURVE",
"326 326 CURVE SMOOTH",
"326 424 OFFCURVE",
"246 467 OFFCURVE",
"171 467 CURVE SMOOTH",
"113 467 OFFCURVE",
"40 426 OFFCURVE",
"-23 346 CURVE"
);
}
);
};
layerId = "3B5B530A-BB7C-47AF-9BD0-0E3C29910424";
paths = (
{
closed = 1;
nodes = (
"56 321 LINE",
"109 378 OFFCURVE",
"143 390 OFFCURVE",
"175 390 CURVE SMOOTH",
"215 390 OFFCURVE",
"241 362 OFFCURVE",
"241 320 CURVE SMOOTH",
"241 264 OFFCURVE",
"228 235 OFFCURVE",
"43 29 CURVE",
"54 0 LINE",
"105 2 OFFCURVE",
"144 3 OFFCURVE",
"187 3 CURVE SMOOTH",
"245 3 OFFCURVE",
"295 2 OFFCURVE",
"344 0 CURVE",
"333 88 LINE",
"256 77 OFFCURVE",
"201 77 OFFCURVE",
"135 77 CURVE",
"125 41 LINE",
"252 187 OFFCURVE",
"345 265 OFFCURVE",
"345 349 CURVE SMOOTH",
"345 424 OFFCURVE",
"289 468 OFFCURVE",
"217 468 CURVE SMOOTH",
"147 468 OFFCURVE",
"86 418 OFFCURVE",
"35 348 CURVE"
);
},
{
closed = 1;
nodes = (
"344 0 LINE",
"344 13 OFFCURVE",
"343 25 OFFCURVE",
"343 37 CURVE SMOOTH",
"343 80 OFFCURVE",
"346 119 OFFCURVE",
"349 157 CURVE",
"313 157 LINE",
"303 132 OFFCURVE",
"297 108 OFFCURVE",
"285 81 CURVE"
);
}
);
width = 390;
}
);
leftKerningGroup = "0";
rightKerningGroup = "0";
},
{
glyphname = three.alt;
layers = (
{
background = {
paths = (
{
closed = 1;
nodes = (
"119 247 LINE",
"203 235 OFFCURVE",
"245 184 OFFCURVE",
"245 129 CURVE SMOOTH",
"245 69 OFFCURVE",
"195 39 OFFCURVE",
"134 39 CURVE SMOOTH",
"105 39 OFFCURVE",
"73 47 OFFCURVE",
"43 61 CURVE",
"35 24 LINE",
"74 7 OFFCURVE",
"113 -1 OFFCURVE",
"150 -1 CURVE SMOOTH",
"244 -1 OFFCURVE",
"319 54 OFFCURVE",
"319 154 CURVE SMOOTH",
"319 222 OFFCURVE",
"268 285 OFFCURVE",
"174 306 CURVE",
"155 257 LINE",
"199 307 OFFCURVE",
"237 348 OFFCURVE",
"296 409 CURVE",
"282 459 LINE",
"236 458 OFFCURVE",
"202 457 OFFCURVE",
"159 457 CURVE SMOOTH",
"111 457 OFFCURVE",
"80 458 OFFCURVE",
"40 459 CURVE",
"40 420 OFFCURVE",
"39 370 OFFCURVE",
"35 326 CURVE",
"64 326 LINE",
"73 351 OFFCURVE",
"78 365 OFFCURVE",
"89 393 CURVE",
"108 394 OFFCURVE",
"123 395 OFFCURVE",
"155 395 CURVE SMOOTH",
"178 395 OFFCURVE",
"199 394 OFFCURVE",
"225 393 CURVE",
"186 342 OFFCURVE",
"165 318 OFFCURVE",
"114 270 CURVE"
);
}
);
};
layerId = "0CED4075-D7BB-4A7E-97B8-19FE9A07C10E";
paths = (
{
closed = 1;
nodes = (
"115 -4 OFFCURVE",
"162 -4 CURVE SMOOTH",
"270 -4 OFFCURVE",
"328 76 OFFCURVE",
"328 154 CURVE SMOOTH",
"328 222 OFFCURVE",
"285 288 OFFCURVE",
"194 301 CURVE",
"224 334 OFFCURVE",
"255 366 OFFCURVE",
"296 409 CURVE",
"282 459 LINE",
"236 458 OFFCURVE",
"202 457 OFFCURVE",
"159 457 CURVE SMOOTH",
"111 457 OFFCURVE",
"80 458 OFFCURVE",
"40 459 CURVE",
"40 420 OFFCURVE",
"39 370 OFFCURVE",
"35 326 CURVE",
"64 326 LINE",
"73 351 OFFCURVE",
"78 365 OFFCURVE",
"89 393 CURVE",
"108 394 OFFCURVE",
"123 395 OFFCURVE",
"155 395 CURVE SMOOTH",
"178 395 OFFCURVE",
"199 394 OFFCURVE",
"225 393 CURVE",
"186 342 OFFCURVE",
"165 318 OFFCURVE",
"114 270 CURVE",
"119 247 LINE",
"207 247 OFFCURVE",
"250 190 OFFCURVE",
"250 135 CURVE SMOOTH",
"250 86 OFFCURVE",
"215 39 OFFCURVE",
"147 39 CURVE SMOOTH",
"112 39 OFFCURVE",
"73 49 OFFCURVE",
"36 74 CURVE",
"23 47 LINE",
"65 13 OFFCURVE"
);
}
);
width = 350;
},
{
background = {
paths = (
{
closed = 1;
nodes = (
"264 -2 OFFCURVE",
"350 49 OFFCURVE",
"350 152 CURVE SMOOTH",
"350 218 OFFCURVE",
"309 289 OFFCURVE",
"203 308 CURVE",
"175 254 LINE",
"214 305 OFFCURVE",
"271 347 OFFCURVE",
"332 409 CURVE",
"318 460 LINE",
"270 458 OFFCURVE",
"222 457 OFFCURVE",
"179 457 CURVE SMOOTH",
"137 457 OFFCURVE",
"90 458 OFFCURVE",
"50 460 CURVE",
"50 420 OFFCURVE",
"47 351 OFFCURVE",
"43 307 CURVE",
"77 307 LINE",
"87 331 OFFCURVE",
"94 353 OFFCURVE",
"103 374 CURVE",
"130 376 OFFCURVE",
"147 377 OFFCURVE",
"172 377 CURVE SMOOTH",
"190 377 OFFCURVE",
"203 376 OFFCURVE",
"220 375 CURVE",
"193 334 OFFCURVE",
"184 320 OFFCURVE",
"133 268 CURVE",
"143 227 LINE",
"198 224 OFFCURVE",
"257 199 OFFCURVE",
"257 132 CURVE SMOOTH",
"257 77 OFFCURVE",
"209 53 OFFCURVE",
"157 53 CURVE SMOOTH",
"122 53 OFFCURVE",
"83 62 OFFCURVE",
"50 78 CURVE",
"43 40 LINE",
"82 12 OFFCURVE",
"132 -2 OFFCURVE",
"179 -2 CURVE SMOOTH"
);
}
);
};
layerId = "3B5B530A-BB7C-47AF-9BD0-0E3C29910424";
paths = (
{
closed = 1;
nodes = (
"264 -2 OFFCURVE",
"350 49 OFFCURVE",
"350 152 CURVE SMOOTH",
"350 214 OFFCURVE",
"314 281 OFFCURVE",
"221 304 CURVE",
"255 336 OFFCURVE",
"290 368 OFFCURVE",
"332 409 CURVE",
"318 460 LINE",
"270 458 OFFCURVE",
"222 457 OFFCURVE",
"179 457 CURVE SMOOTH",
"137 457 OFFCURVE",
"90 458 OFFCURVE",
"50 460 CURVE",
"50 420 OFFCURVE",
"47 351 OFFCURVE",
"43 307 CURVE",
"77 307 LINE",
"87 331 OFFCURVE",
"94 353 OFFCURVE",
"103 374 CURVE",
"130 376 OFFCURVE",
"147 377 OFFCURVE",
"172 377 CURVE SMOOTH",
"190 377 OFFCURVE",
"203 376 OFFCURVE",
"220 375 CURVE",
"193 334 OFFCURVE",
"184 320 OFFCURVE",
"133 268 CURVE",
"143 227 LINE",
"198 224 OFFCURVE",
"257 199 OFFCURVE",
"257 132 CURVE SMOOTH",
"257 77 OFFCURVE",
"209 46 OFFCURVE",
"157 46 CURVE SMOOTH",
"122 46 OFFCURVE",
"92 58 OFFCURVE",
"50 78 CURVE",
"43 40 LINE",
"82 12 OFFCURVE",
"132 -2 OFFCURVE",
"179 -2 CURVE SMOOTH"
);
}
);
width = 370;
}
);
leftKerningGroup = "0";
rightKerningGroup = "0";
},
{
glyphname = four.alt;
layers = (
{
layerId = "0CED4075-D7BB-4A7E-97B8-19FE9A07C10E";
paths = (
{
closed = 1;
nodes = (
"272 469 LINE",
"200 363 OFFCURVE",
"102 231 OFFCURVE",
"26 138 CURVE",
"26 107 LINE",
"102 108 OFFCURVE",
"159 108 OFFCURVE",
"211 108 CURVE SMOOTH",
"263 108 OFFCURVE",
"311 108 OFFCURVE",
"365 107 CURVE",
"365 156 LINE",
"315 154 OFFCURVE",
"260 154 OFFCURVE",
"210 154 CURVE SMOOTH",
"172 154 OFFCURVE",
"134 154 OFFCURVE",
"114 156 CURVE",
"142 208 OFFCURVE",
"180 265 OFFCURVE",
"231 335 CURVE",
"231 276 OFFCURVE",
"232 228 OFFCURVE",
"232 160 CURVE SMOOTH",
"232 111 OFFCURVE",
"232 53 OFFCURVE",
"230 0 CURVE",
"308 0 LINE",
"306 82 OFFCURVE",
"306 160 OFFCURVE",
"306 228 CURVE SMOOTH",
"306 310 OFFCURVE",
"306 388 OFFCURVE",
"307 469 CURVE"
);
}
);
width = 370;
},
{
background = {
paths = (
{
closed = 1;
nodes = (
"254 462 LINE",
"158 323 OFFCURVE",
"29 147 OFFCURVE",
"-60 29 CURVE",
"-60 0 LINE",
"134 1 OFFCURVE",
"259 1 OFFCURVE",
"392 0 CURVE",
"392 52 LINE",
"281 48 OFFCURVE",
"113 47 OFFCURVE",
"20 52 CURVE",
"65 123 OFFCURVE",
"150 236 OFFCURVE",
"214 318 CURVE",
"215 153 OFFCURVE",
"217 16 OFFCURVE",
"212 -145 CURVE",
"298 -145 LINE",
"294 86 OFFCURVE",
"298 236 OFFCURVE",
"299 462 CURVE"
);
}
);
};
layerId = "3B5B530A-BB7C-47AF-9BD0-0E3C29910424";
paths = (
{
closed = 1;
nodes = (
"255 468 LINE",
"179 356 OFFCURVE",
"109 254 OFFCURVE",
"27 163 CURVE",
"27 103 LINE",
"69 104 OFFCURVE",
"136 105 OFFCURVE",
"202 105 CURVE SMOOTH",
"268 105 OFFCURVE",
"333 104 OFFCURVE",
"368 103 CURVE",
"368 164 LINE",
"319 161 OFFCURVE",
"277 159 OFFCURVE",
"237 159 CURVE SMOOTH",
"201 159 OFFCURVE",
"162 161 OFFCURVE",
"110 163 CURVE",
"140 215 OFFCURVE",
"175 264 OFFCURVE",
"217 327 CURVE",
"217 266 OFFCURVE",
"219 219 OFFCURVE",
"219 156 CURVE SMOOTH",
"219 105 OFFCURVE",
"219 53 OFFCURVE",
"216 0 CURVE",
"314 0 LINE",
"313 81 OFFCURVE",
"313 157 OFFCURVE",
"313 224 CURVE SMOOTH",
"313 304 OFFCURVE",
"313 380 OFFCURVE",
"314 468 CURVE"
);
}
);
width = 390;
}
);
leftKerningGroup = "0";
rightKerningGroup = "0";
},
{
glyphname = five.alt;
layers = (
{
background = {
paths = (
{
closed = 1;
nodes = (
"315 459 LINE",
"287 459 OFFCURVE",
"229 458 OFFCURVE",
"197 458 CURVE SMOOTH",
"150 458 OFFCURVE",
"122 459 OFFCURVE",
"82 459 CURVE",
"78 397 OFFCURVE",
"70 305 OFFCURVE",
"60 245 CURVE",
"75 262 OFFCURVE",
"92 283 OFFCURVE",
"107 295 CURVE",
"117 399 LINE",
"143 399 OFFCURVE",
"244 404 OFFCURVE",
"313 385 CURVE"
);
},
{
closed = 1;
nodes = (
"65 -8 LINE",
"260 1 OFFCURVE",
"331 85 OFFCURVE",
"331 175 CURVE SMOOTH",
"331 273 OFFCURVE",
"255 318 OFFCURVE",
"138 318 CURVE SMOOTH",
"113 318 OFFCURVE",
"97 317 OFFCURVE",
"95 317 CURVE",
"60 245 LINE",
"77 247 OFFCURVE",
"103 249 OFFCURVE",
"136 249 CURVE SMOOTH",
"201 249 OFFCURVE",
"258 226 OFFCURVE",
"258 156 CURVE SMOOTH",
"258 87 OFFCURVE",
"200 34 OFFCURVE",
"53 31 CURVE"
);
}
);
};
layerId = "0CED4075-D7BB-4A7E-97B8-19FE9A07C10E";
paths = (
{
closed = 1;
nodes = (
"74 238 LINE",
"94 242 OFFCURVE",
"107 245 OFFCURVE",
"136 245 CURVE SMOOTH",
"228 245 OFFCURVE",
"268 194 OFFCURVE",
"268 142 CURVE SMOOTH",
"268 86 OFFCURVE",
"221 28 OFFCURVE",
"122 28 CURVE SMOOTH",
"94 28 OFFCURVE",
"67 31 OFFCURVE",
"48 39 CURVE",
"45 5 LINE",
"75 -4 OFFCURVE",
"102 -6 OFFCURVE",
"126 -6 CURVE SMOOTH",
"272 -6 OFFCURVE",
"341 80 OFFCURVE",
"341 164 CURVE SMOOTH",
"341 241 OFFCURVE",
"282 315 OFFCURVE",
"168 315 CURVE SMOOTH",
"139 315 OFFCURVE",
"123 314 OFFCURVE",
"103 312 CURVE",
"117 400 LINE",
"137 400 OFFCURVE",
"256 400 OFFCURVE",
"312 382 CURVE",
"315 460 LINE",
"287 459 OFFCURVE",
"223 458 OFFCURVE",
"190 458 CURVE SMOOTH",
"137 458 OFFCURVE",
"118 459 OFFCURVE",
"77 460 CURVE",
"74 403 OFFCURVE",
"68 323 OFFCURVE",
"59 257 CURVE"
);
}
);
width = 370;
},
{
background = {
paths = (
{
closed = 1;
nodes = (
"282 460 LINE",
"245 459 OFFCURVE",
"171 458 OFFCURVE",
"128 458 CURVE",
"67 458 OFFCURVE",
"32 459 OFFCURVE",
"-21 460 CURVE",
"-26 378 OFFCURVE",
"-36 258 OFFCURVE",
"-49 186 CURVE",
"-29 201 OFFCURVE",
"-11 238 OFFCURVE",
"8 253 CURVE",
"23 389 LINE",
"58 389 OFFCURVE",
"189 391 OFFCURVE",
"278 366 CURVE"
);
},
{
closed = 1;
nodes = (
"-83 -159 LINE",
"221 -157 OFFCURVE",
"306 -20 OFFCURVE",
"306 86 CURVE",
"306 177 OFFCURVE",
"237 279 OFFCURVE",
"-4 278 CURVE",
"-49 186 LINE",
"-34 187 OFFCURVE",
"-19 188 OFFCURVE",
"-5 188 CURVE",
"148 188 OFFCURVE",
"208 130 OFFCURVE",
"208 53 CURVE",
"208 -44 OFFCURVE",
"114 -110 OFFCURVE",
"-90 -122 CURVE"
);
}
);
};
layerId = "3B5B530A-BB7C-47AF-9BD0-0E3C29910424";
paths = (
{
closed = 1;
nodes = (
"46 218 LINE",
"66 222 OFFCURVE",
"87 225 OFFCURVE",
"116 225 CURVE SMOOTH",
"197 225 OFFCURVE",
"238 179 OFFCURVE",
"238 132 CURVE SMOOTH",
"238 84 OFFCURVE",
"195 35 OFFCURVE",
"105 35 CURVE SMOOTH",
"77 35 OFFCURVE",
"50 38 OFFCURVE",
"31 46 CURVE",
"25 5 LINE",
"55 -4 OFFCURVE",
"82 -6 OFFCURVE",
"106 -6 CURVE SMOOTH",
"259 -6 OFFCURVE",
"333 81 OFFCURVE",
"333 164 CURVE SMOOTH",
"333 241 OFFCURVE",
"270 315 OFFCURVE",
"150 315 CURVE SMOOTH",
"121 315 OFFCURVE",
"103 313 OFFCURVE",
"83 309 CURVE",
"97 390 LINE",
"117 390 OFFCURVE",
"243 390 OFFCURVE",
"299 372 CURVE",
"302 460 LINE",
"274 459 OFFCURVE",
"203 458 OFFCURVE",
"170 458 CURVE SMOOTH",
"117 458 OFFCURVE",
"90 459 OFFCURVE",
"49 460 CURVE",
"46 403 OFFCURVE",
"40 303 OFFCURVE",
"31 237 CURVE"
);
}
);
width = 370;
}
);
leftKerningGroup = "0";
rightKerningGroup = "0";
},
{
glyphname = six.alt;
layers = (
{
layerId = "0CED4075-D7BB-4A7E-97B8-19FE9A07C10E";
paths = (
{
closed = 1;
nodes = (
"91 213 LINE",
"103 223 OFFCURVE",
"131 242 OFFCURVE",
"175 242 CURVE SMOOTH",
"227 242 OFFCURVE",
"257 193 OFFCURVE",
"257 134 CURVE SMOOTH",
"257 80 OFFCURVE",
"232 30 OFFCURVE",
"189 30 CURVE SMOOTH",
"151 30 OFFCURVE",
"102 79 OFFCURVE",
"102 187 CURVE SMOOTH",
"102 292 OFFCURVE",
"153 381 OFFCURVE",
"295 446 CURVE",
"282 471 LINE",
"94 410 OFFCURVE",
"22 294 OFFCURVE",
"22 176 CURVE SMOOTH",
"22 75 OFFCURVE",
"79 -4 OFFCURVE",
"177 -4 CURVE SMOOTH",
"285 -4 OFFCURVE",
"335 73 OFFCURVE",
"335 150 CURVE SMOOTH",
"335 223 OFFCURVE",
"290 289 OFFCURVE",
"200 289 CURVE SMOOTH",
"154 289 OFFCURVE",
"118 267 OFFCURVE",
"91 253 CURVE"
);
}
);
width = 350;
},
{
background = {
paths = (
{
closed = 1;
nodes = (
"73 307 LINE",
"88 320 OFFCURVE",
"114 339 OFFCURVE",
"165 339 CURVE",
"254 339 OFFCURVE",
"302 259 OFFCURVE",
"302 177 CURVE",
"302 96 OFFCURVE",
"265 38 OFFCURVE",
"202 38 CURVE",
"148 38 OFFCURVE",
"73 98 OFFCURVE",
"73 261 CURVE",
"73 405 OFFCURVE",
"146 550 OFFCURVE",
"350 600 CURVE",
"338 630 LINE",
"89 593 OFFCURVE",
"-22 425 OFFCURVE",
"-22 250 CURVE",
"-22 93 OFFCURVE",
"61 -6 OFFCURVE",
"190 -6 CURVE",
"321 -6 OFFCURVE",
"395 98 OFFCURVE",
"395 202 CURVE",
"395 299 OFFCURVE",
"331 395 OFFCURVE",
"209 395 CURVE",
"151 395 OFFCURVE",
"114 375 OFFCURVE",
"82 356 CURVE"
);
}
);
};
layerId = "3B5B530A-BB7C-47AF-9BD0-0E3C29910424";
paths = (
{
closed = 1;
nodes = (
"115 204 LINE",
"120 214 OFFCURVE",
"146 240 OFFCURVE",
"191 240 CURVE SMOOTH",
"236 240 OFFCURVE",
"255 181 OFFCURVE",
"255 127 CURVE SMOOTH",
"255 80 OFFCURVE",
"237 36 OFFCURVE",
"208 36 CURVE SMOOTH",
"179 36 OFFCURVE",
"140 80 OFFCURVE",
"140 188 CURVE SMOOTH",
"140 293 OFFCURVE",
"194 385 OFFCURVE",
"316 442 CURVE",
"301 471 LINE",
"112 411 OFFCURVE",
"35 294 OFFCURVE",
"35 177 CURVE SMOOTH",
"35 76 OFFCURVE",
"91 -4 OFFCURVE",
"196 -4 CURVE SMOOTH",
"305 -4 OFFCURVE",
"354 74 OFFCURVE",
"354 151 CURVE SMOOTH",
"354 224 OFFCURVE",
"309 289 OFFCURVE",
"210 289 CURVE SMOOTH",
"177 289 OFFCURVE",
"129 268 OFFCURVE",
"108 250 CURVE"
);
}
);
width = 390;
}
);
leftKerningGroup = "0";
rightKerningGroup = "0";
},
{
glyphname = seven.alt;
layers = (
{
layerId = "0CED4075-D7BB-4A7E-97B8-19FE9A07C10E";
paths = (
{
closed = 1;
nodes = (
"123 395 OFFCURVE",
"151 395 OFFCURVE",
"183 395 CURVE SMOOTH",
"216 395 OFFCURVE",
"246 395 OFFCURVE",
"272 394 CURVE",
"198 268 OFFCURVE",
"137 130 OFFCURVE",
"110 0 CURVE",
"196 0 LINE",
"207 116 OFFCURVE",
"240 261 OFFCURVE",
"338 440 CURVE",
"321 462 LINE",
"276 460 OFFCURVE",
"227 460 OFFCURVE",
"178 460 CURVE SMOOTH",
"129 460 OFFCURVE",
"80 460 OFFCURVE",
"38 462 CURVE",
"38 426 OFFCURVE",
"35 384 OFFCURVE",
"32 329 CURVE",
"61 329 LINE",
"68 353 OFFCURVE",
"75 370 OFFCURVE",
"84 394 CURVE"
);
}
);
width = 350;
},
{
background = {
paths = (
{
closed = 1;
nodes = (
"64 373 OFFCURVE",
"100 373 OFFCURVE",
"146 373 CURVE",
"193 373 OFFCURVE",
"216 373 OFFCURVE",
"259 371 CURVE",
"159 186 OFFCURVE",
"87 -9 OFFCURVE",
"69 -165 CURVE",
"158 -165 LINE",
"164 -28 OFFCURVE",
"215 200 OFFCURVE",
"347 441 CURVE",
"332 460 LINE",
"268 458 OFFCURVE",
"207 457 OFFCURVE",
"137 457 CURVE",
"81 457 OFFCURVE",
"12 458 OFFCURVE",
"-49 460 CURVE",
"-49 409 OFFCURVE",
"-53 356 OFFCURVE",
"-57 278 CURVE",
"-27 278 LINE",
"-16 311 OFFCURVE",
"-5 335 OFFCURVE",
"8 371 CURVE"
);
}
);
};
layerId = "3B5B530A-BB7C-47AF-9BD0-0E3C29910424";
paths = (
{
closed = 1;
nodes = (
"122 378 OFFCURVE",
"134 378 OFFCURVE",
"166 378 CURVE SMOOTH",
"192 378 OFFCURVE",
"223 378 OFFCURVE",
"253 377 CURVE",
"175 240 OFFCURVE",
"127 130 OFFCURVE",
"100 -1 CURVE",
"205 -1 LINE",
"212 95 OFFCURVE",
"226 234 OFFCURVE",
"338 435 CURVE",
"321 461 LINE",
"276 459 OFFCURVE",
"236 459 OFFCURVE",
"173 459 CURVE SMOOTH",
"134 459 OFFCURVE",
"77 459 OFFCURVE",
"34 461 CURVE",
"34 425 OFFCURVE",
"31 360 OFFCURVE",
"28 306 CURVE",
"62 306 LINE",
"69 329 OFFCURVE",
"77 352 OFFCURVE",
"87 377 CURVE"
);
}
);
width = 350;
}
);
leftKerningGroup = "0";
rightKerningGroup = "0";
},
{
glyphname = eight.alt;
layers = (
{
layerId = "0CED4075-D7BB-4A7E-97B8-19FE9A07C10E";
paths = (
{
closed = 1;
nodes = (
"322 317 OFFCURVE",
"322 364 CURVE SMOOTH",
"322 417 OFFCURVE",
"274 467 OFFCURVE",
"183 467 CURVE SMOOTH",
"110 467 OFFCURVE",
"43 430 OFFCURVE",
"43 357 CURVE SMOOTH",
"43 214 OFFCURVE",
"264 219 OFFCURVE",
"264 101 CURVE SMOOTH",
"264 51 OFFCURVE",
"228 26 OFFCURVE",
"190 26 CURVE SMOOTH",
"149 26 OFFCURVE",
"106 55 OFFCURVE",
"106 111 CURVE SMOOTH",
"106 151 OFFCURVE",
"128 195 OFFCURVE",
"165 229 CURVE",
"151 242 LINE",
"54 206 OFFCURVE",
"29 152 OFFCURVE",
"29 106 CURVE SMOOTH",
"29 30 OFFCURVE",
"103 -9 OFFCURVE",
"184 -9 CURVE SMOOTH",
"265 -9 OFFCURVE",
"341 31 OFFCURVE",
"341 114 CURVE SMOOTH",
"341 266 OFFCURVE",
"120 270 OFFCURVE",
"120 372 CURVE SMOOTH",
"120 413 OFFCURVE",
"150 433 OFFCURVE",
"181 433 CURVE SMOOTH",
"216 433 OFFCURVE",
"254 407 OFFCURVE",
"254 357 CURVE SMOOTH",
"254 322 OFFCURVE",
"226 280 OFFCURVE",
"186 267 CURVE",
"209 249 LINE",
"285 268 OFFCURVE"
);
}
);
width = 370;
},
{
background = {
paths = (
{
closed = 1;
nodes = (
"358 417 OFFCURVE",
"358 483 CURVE",
"358 577 OFFCURVE",
"262 629 OFFCURVE",
"172 629 CURVE",
"83 629 OFFCURVE",
"-7 574 OFFCURVE",
"-7 476 CURVE",
"-7 288 OFFCURVE",
"291 288 OFFCURVE",
"291 139 CURVE",
"291 62 OFFCURVE",
"238 30 OFFCURVE",
"187 30 CURVE",
"128 30 OFFCURVE",
"65 75 OFFCURVE",
"65 161 CURVE",
"65 217 OFFCURVE",
"98 272 OFFCURVE",
"175 311 CURVE",
"132 327 LINE",
"16 287 OFFCURVE",
"-30 219 OFFCURVE",
"-30 154 CURVE",
"-30 44 OFFCURVE",
"74 -12 OFFCURVE",
"177 -12 CURVE",
"276 -12 OFFCURVE",
"380 43 OFFCURVE",
"380 154 CURVE",
"380 353 OFFCURVE",
"76 361 OFFCURVE",
"76 504 CURVE",
"76 562 OFFCURVE",
"124 589 OFFCURVE",
"171 589 CURVE",
"235 589 OFFCURVE",
"268 539 OFFCURVE",
"268 484 CURVE",
"268 430 OFFCURVE",
"231 371 OFFCURVE",
"162 352 CURVE",
"213 332 LINE",
"313 363 OFFCURVE"
);
}
);
};
layerId = "3B5B530A-BB7C-47AF-9BD0-0E3C29910424";
paths = (
{
closed = 1;
nodes = (
"289 263 OFFCURVE",
"333 316 OFFCURVE",
"333 364 CURVE SMOOTH",
"333 419 OFFCURVE",
"283 467 OFFCURVE",
"195 467 CURVE SMOOTH",
"110 467 OFFCURVE",
"44 423 OFFCURVE",
"44 349 CURVE SMOOTH",
"44 212 OFFCURVE",
"260 212 OFFCURVE",
"260 98 CURVE SMOOTH",
"260 56 OFFCURVE",
"232 34 OFFCURVE",
"203 34 CURVE SMOOTH",
"169 34 OFFCURVE",
"134 61 OFFCURVE",
"134 116 CURVE SMOOTH",
"134 167 OFFCURVE",
"155 210 OFFCURVE",
"187 238 CURVE",
"176 253 LINE",
"74 229 OFFCURVE",
"32 173 OFFCURVE",
"32 113 CURVE SMOOTH",
"32 32 OFFCURVE",
"111 -9 OFFCURVE",
"191 -9 CURVE SMOOTH",
"273 -9 OFFCURVE",
"357 35 OFFCURVE",
"357 126 CURVE SMOOTH",
"357 272 OFFCURVE",
"141 292 OFFCURVE",
"141 377 CURVE SMOOTH",
"141 410 OFFCURVE",
"163 425 OFFCURVE",
"188 425 CURVE SMOOTH",
"219 425 OFFCURVE",
"254 401 OFFCURVE",
"254 359 CURVE SMOOTH",
"254 324 OFFCURVE",
"222 283 OFFCURVE",
"186 266 CURVE",
"219 244 LINE"
);
}
);
width = 390;
}
);
leftKerningGroup = "0";
rightKerningGroup = "0";
},
{
glyphname = nine.alt;
layers = (
{
layerId = "0CED4075-D7BB-4A7E-97B8-19FE9A07C10E";
paths = (
{
closed = 1;
nodes = (
"255 252 LINE",
"249 242 OFFCURVE",
"221 219 OFFCURVE",
"177 219 CURVE SMOOTH",
"125 219 OFFCURVE",
"95 268 OFFCURVE",
"95 327 CURVE SMOOTH",
"95 381 OFFCURVE",
"120 431 OFFCURVE",
"163 431 CURVE SMOOTH",
"201 431 OFFCURVE",
"250 382 OFFCURVE",
"250 274 CURVE SMOOTH",
"250 169 OFFCURVE",
"196 80 OFFCURVE",
"54 15 CURVE",
"70 -10 LINE",
"258 51 OFFCURVE",
"330 167 OFFCURVE",
"330 285 CURVE SMOOTH",
"330 386 OFFCURVE",
"273 465 OFFCURVE",
"175 465 CURVE SMOOTH",
"67 465 OFFCURVE",
"17 388 OFFCURVE",
"17 311 CURVE SMOOTH",
"17 238 OFFCURVE",
"62 172 OFFCURVE",
"152 172 CURVE SMOOTH",
"198 172 OFFCURVE",
"239 195 OFFCURVE",
"261 209 CURVE"
);
}
);
width = 350;
},
{
background = {
paths = (
{
closed = 1;
nodes = (
"299 145 LINE",
"284 132 OFFCURVE",
"258 113 OFFCURVE",
"207 113 CURVE",
"118 113 OFFCURVE",
"70 201 OFFCURVE",
"70 283 CURVE",
"70 364 OFFCURVE",
"107 422 OFFCURVE",
"170 422 CURVE",
"232 422 OFFCURVE",
"299 358 OFFCURVE",
"299 225 CURVE",
"299 103 OFFCURVE",
"226 -71 OFFCURVE",
"-1 -136 CURVE",
"20 -166 LINE",
"303 -90 OFFCURVE",
"394 83 OFFCURVE",
"394 236 CURVE",
"394 363 OFFCURVE",
"319 466 OFFCURVE",
"182 466 CURVE",
"51 466 OFFCURVE",
"-23 362 OFFCURVE",
"-23 258 CURVE",
"-23 161 OFFCURVE",
"41 57 OFFCURVE",
"163 57 CURVE",
"221 57 OFFCURVE",
"258 77 OFFCURVE",
"290 96 CURVE"
);
}
);
};
components = (
{
name = six.alt;
transform = "{-1, 0, 0, -1, 379, 462}";
}
);
layerId = "3B5B530A-BB7C-47AF-9BD0-0E3C29910424";
width = 380;
}
);
leftKerningGroup = "0";
rightKerningGroup = "0";
},
{
glyphname = zero.latn;
layers = (
{
layerId = "0CED4075-D7BB-4A7E-97B8-19FE9A07C10E";
paths = (
{
closed = 1;
nodes = (
"416 665 OFFCURVE",
"283 665 CURVE SMOOTH",
"149 665 OFFCURVE",
"40 552 OFFCURVE",
"40 323 CURVE SMOOTH",
"40 105 OFFCURVE",
"149 -6 OFFCURVE",
"283 -6 CURVE SMOOTH",
"416 -6 OFFCURVE",
"525 105 OFFCURVE",
"525 323 CURVE SMOOTH",
"525 552 OFFCURVE"
);
},
{
closed = 1;
nodes = (
"199 616 OFFCURVE",
"277 616 CURVE SMOOTH",
"366 616 OFFCURVE",
"428 520 OFFCURVE",
"428 323 CURVE SMOOTH",
"428 136 OFFCURVE",
"366 42 OFFCURVE",
"290 42 CURVE SMOOTH",
"199 42 OFFCURVE",
"137 136 OFFCURVE",
"137 323 CURVE SMOOTH",
"137 520 OFFCURVE"
);
}
);
width = 565;
},
{
background = {
paths = (
{
closed = 1;
nodes = (
"386 467 OFFCURVE",
"256 467 CURVE SMOOTH",
"125 467 OFFCURVE",
"35 383 OFFCURVE",
"35 229 CURVE SMOOTH",
"35 76 OFFCURVE",
"125 -9 OFFCURVE",
"256 -9 CURVE SMOOTH",
"386 -9 OFFCURVE",
"476 76 OFFCURVE",
"476 229 CURVE SMOOTH",
"476 383 OFFCURVE"
);
},
{
closed = 1;
nodes = (
"180 423 OFFCURVE",
"256 423 CURVE SMOOTH",
"331 423 OFFCURVE",
"381 354 OFFCURVE",
"381 229 CURVE SMOOTH",
"381 104 OFFCURVE",
"331 36 OFFCURVE",
"256 36 CURVE SMOOTH",
"180 36 OFFCURVE",
"130 104 OFFCURVE",
"130 229 CURVE SMOOTH",
"130 354 OFFCURVE"
);
}
);
};
layerId = "3B5B530A-BB7C-47AF-9BD0-0E3C29910424";
paths = (
{
closed = 1;
nodes = (
"456 665 OFFCURVE",
"303 665 CURVE SMOOTH",
"149 665 OFFCURVE",
"37 552 OFFCURVE",
"37 323 CURVE SMOOTH",
"37 105 OFFCURVE",
"149 -6 OFFCURVE",
"303 -6 CURVE SMOOTH",
"456 -6 OFFCURVE",
"568 105 OFFCURVE",
"568 323 CURVE SMOOTH",
"568 552 OFFCURVE"
);
},
{
closed = 1;
nodes = (
"235 609 OFFCURVE",
"297 609 CURVE SMOOTH",
"371 609 OFFCURVE",
"428 530 OFFCURVE",
"428 323 CURVE SMOOTH",
"428 126 OFFCURVE",
"371 50 OFFCURVE",
"310 50 CURVE SMOOTH",
"235 50 OFFCURVE",
"177 126 OFFCURVE",
"177 323 CURVE SMOOTH",
"177 530 OFFCURVE"
);
}
);
width = 605;
}
);
leftKerningGroup = "0";
rightKerningGroup = "0";
},
{
glyphname = one.latn;
layers = (
{
layerId = "0CED4075-D7BB-4A7E-97B8-19FE9A07C10E";
paths = (
{
closed = 1;
nodes = (
"214 670 LINE",
"164 632 OFFCURVE",
"89 608 OFFCURVE",
"23 597 CURVE",
"37 557 LINE",
"165 560 LINE",
"168 480 OFFCURVE",
"169 403 OFFCURVE",
"169 325 CURVE SMOOTH",
"169 239 OFFCURVE",
"168 152 OFFCURVE",
"165 58 CURVE",
"31 35 LINE",
"44 0 LINE",
"88 1 OFFCURVE",
"166 3 OFFCURVE",
"213 3 CURVE SMOOTH",
"264 3 OFFCURVE",
"336 2 OFFCURVE",
"374 0 CURVE",
"386 35 LINE",
"258 58 LINE",
"255 156 OFFCURVE",
"254 248 OFFCURVE",
"254 339 CURVE SMOOTH",
"254 422 OFFCURVE",
"256 491 OFFCURVE",
"258 670 CURVE"
);
}
);
width = 407;
},
{
background = {
paths = (
{
closed = 1;
nodes = (
"204 462 LINE",
"153 414 OFFCURVE",
"103 404 OFFCURVE",
"37 393 CURVE",
"51 363 LINE",
"145 364 LINE",
"150 262 OFFCURVE",
"152 188 OFFCURVE",
"149 48 CURVE",
"51 29 LINE",
"60 0 LINE",
"98 1 OFFCURVE",
"145 3 OFFCURVE",
"194 3 CURVE",
"239 3 OFFCURVE",
"288 2 OFFCURVE",
"326 0 CURVE",
"335 29 LINE",
"237 48 LINE",
"231 193 OFFCURVE",
"234 287 OFFCURVE",
"237 462 CURVE"
);
}
);
};
layerId = "3B5B530A-BB7C-47AF-9BD0-0E3C29910424";
paths = (
{
closed = 1;
nodes = (
"245 670 LINE",
"185 632 OFFCURVE",
"86 608 OFFCURVE",
"20 597 CURVE",
"38 547 LINE",
"166 550 LINE",
"169 470 OFFCURVE",
"170 403 OFFCURVE",
"170 325 CURVE SMOOTH",
"170 239 OFFCURVE",
"169 164 OFFCURVE",
"166 70 CURVE",
"29 45 LINE",
"45 0 LINE",
"89 1 OFFCURVE",
"184 3 OFFCURVE",
"241 3 CURVE SMOOTH",
"302 3 OFFCURVE",
"387 2 OFFCURVE",
"425 0 CURVE",
"441 45 LINE",
"309 70 LINE",
"306 168 OFFCURVE",
"305 248 OFFCURVE",
"305 339 CURVE SMOOTH",
"305 422 OFFCURVE",
"307 491 OFFCURVE",
"309 670 CURVE"
);
}
);
width = 461;
}
);
leftKerningGroup = "0";
rightKerningGroup = "0";
},
{
glyphname = two.latn;
layers = (
{
layerId = "0CED4075-D7BB-4A7E-97B8-19FE9A07C10E";
paths = (
{
closed = 1;
nodes = (
"45 480 LINE",
"110 554 OFFCURVE",
"181 588 OFFCURVE",
"232 588 CURVE SMOOTH",
"293 588 OFFCURVE",
"340 549 OFFCURVE",
"340 471 CURVE SMOOTH",
"340 385 OFFCURVE",
"276 295 OFFCURVE",
"29 21 CURVE",
"37 0 LINE",
"101 3 OFFCURVE",
"185 4 OFFCURVE",
"249 4 CURVE SMOOTH",
"333 4 OFFCURVE",
"375 3 OFFCURVE",
"447 0 CURVE",
"431 99 LINE",
"318 83 OFFCURVE",
"283 81 OFFCURVE",
"130 83 CURVE",
"132 47 LINE",
"323 291 OFFCURVE",
"440 362 OFFCURVE",
"440 497 CURVE SMOOTH",
"440 604 OFFCURVE",
"357 668 OFFCURVE",
"263 668 CURVE SMOOTH",
"163 668 OFFCURVE",
"92 608 OFFCURVE",
"25 506 CURVE"
);
},
{
closed = 1;
nodes = (
"447 0 LINE",
"445 71 OFFCURVE",
"448 120 OFFCURVE",
"454 190 CURVE",
"415 190 LINE",
"401 154 OFFCURVE",
"394 132 OFFCURVE",
"378 92 CURVE"
);
}
);
width = 494;
},
{
background = {
paths = (
{
closed = 1;
nodes = (
"56 311 LINE",
"107 369 OFFCURVE",
"165 400 OFFCURVE",
"199 400 CURVE SMOOTH",
"250 400 OFFCURVE",
"290 372 OFFCURVE",
"290 311 CURVE SMOOTH",
"290 249 OFFCURVE",
"229 151 OFFCURVE",
"49 15 CURVE",
"57 -4 LINE",
"115 -2 OFFCURVE",
"179 -1 OFFCURVE",
"217 -1 CURVE SMOOTH",
"295 -1 OFFCURVE",
"333 -2 OFFCURVE",
"398 -4 CURVE",
"400 29 OFFCURVE",
"401 53 OFFCURVE",
"402 90 CURVE",
"299 73 OFFCURVE",
"273 73 OFFCURVE",
"153 71 CURVE",
"146 43 LINE",
"316 178 OFFCURVE",
"389 235 OFFCURVE",
"389 326 CURVE SMOOTH",
"389 424 OFFCURVE",
"309 467 OFFCURVE",
"234 467 CURVE SMOOTH",
"176 467 OFFCURVE",
"103 426 OFFCURVE",
"40 346 CURVE"
);
}
);
};
layerId = "3B5B530A-BB7C-47AF-9BD0-0E3C29910424";
paths = (
{
closed = 1;
nodes = (
"45 460 LINE",
"127 542 OFFCURVE",
"183 567 OFFCURVE",
"235 567 CURVE SMOOTH",
"279 567 OFFCURVE",
"332 541 OFFCURVE",
"332 471 CURVE SMOOTH",
"332 385 OFFCURVE",
"280 305 OFFCURVE",
"23 31 CURVE",
"38 0 LINE",
"102 3 OFFCURVE",
"180 4 OFFCURVE",
"254 4 CURVE SMOOTH",
"338 4 OFFCURVE",
"410 3 OFFCURVE",
"482 0 CURVE",
"466 114 LINE",
"353 99 OFFCURVE",
"226 98 OFFCURVE",
"133 99 CURVE",
"127 47 LINE",
"328 271 OFFCURVE",
"475 352 OFFCURVE",
"475 501 CURVE SMOOTH",
"475 604 OFFCURVE",
"392 668 OFFCURVE",
"288 668 CURVE SMOOTH",
"173 668 OFFCURVE",
"94 595 OFFCURVE",
"20 499 CURVE"
);
},
{
closed = 1;
nodes = (
"482 0 LINE",
"480 71 OFFCURVE",
"483 145 OFFCURVE",
"489 215 CURVE",
"436 215 LINE",
"422 179 OFFCURVE",
"413 145 OFFCURVE",
"397 105 CURVE"
);
}
);
width = 509;
}
);
leftKerningGroup = "0";
rightKerningGroup = "0";
},
{
glyphname = three.latn;
layers = (
{
layerId = "0CED4075-D7BB-4A7E-97B8-19FE9A07C10E";
paths = (
{
closed = 1;
nodes = (
"314 477 OFFCURVE",
"359 525 OFFCURVE",
"420 587 CURVE",
"400 660 LINE",
"332 658 OFFCURVE",
"283 657 OFFCURVE",
"220 657 CURVE SMOOTH",
"150 657 OFFCURVE",
"105 658 OFFCURVE",
"47 660 CURVE",
"47 604 OFFCURVE",
"46 531 OFFCURVE",
"40 467 CURVE",
"73 467 LINE",
"87 503 OFFCURVE",
"94 534 OFFCURVE",
"110 574 CURVE",
"138 576 OFFCURVE",
"169 577 OFFCURVE",
"215 577 CURVE SMOOTH",
"249 577 OFFCURVE",
"288 576 OFFCURVE",
"326 575 CURVE",
"269 501 OFFCURVE",
"229 456 OFFCURVE",
"155 386 CURVE",
"165 361 LINE",
"288 344 OFFCURVE",
"366 287 OFFCURVE",
"366 190 CURVE SMOOTH",
"366 92 OFFCURVE",
"295 49 OFFCURVE",
"214 49 CURVE SMOOTH",
"157 49 OFFCURVE",
"94 70 OFFCURVE",
"47 108 CURVE",
"30 76 LINE",
"89 21 OFFCURVE",
"160 -4 OFFCURVE",
"227 -4 CURVE SMOOTH",
"349 -4 OFFCURVE",
"457 79 OFFCURVE",
"457 220 CURVE SMOOTH",
"457 309 OFFCURVE",
"398 393 OFFCURVE",
"270 428 CURVE"
);
}
);
width = 499;
},
{
background = {
paths = (
{
closed = 1;
nodes = (
"168 340 LINE",
"256 323 OFFCURVE",
"340 287 OFFCURVE",
"340 192 CURVE SMOOTH",
"340 104 OFFCURVE",
"269 61 OFFCURVE",
"179 61 CURVE SMOOTH",
"134 61 OFFCURVE",
"84 72 OFFCURVE",
"36 93 CURVE",
"25 39 LINE",
"79 8 OFFCURVE",
"142 -8 OFFCURVE",
"203 -8 CURVE SMOOTH",
"342 -8 OFFCURVE",
"474 72 OFFCURVE",
"474 220 CURVE SMOOTH",
"474 315 OFFCURVE",
"400 407 OFFCURVE",
"263 438 CURVE",
"215 366 LINE",
"279 439 OFFCURVE",
"351 499 OFFCURVE",
"437 587 CURVE",
"417 660 LINE",
"349 658 OFFCURVE",
"290 657 OFFCURVE",
"220 657 CURVE SMOOTH",
"160 657 OFFCURVE",
"93 658 OFFCURVE",
"35 660 CURVE",
"35 604 OFFCURVE",
"35 521 OFFCURVE",
"30 457 CURVE",
"79 457 LINE",
"93 492 OFFCURVE",
"103 524 OFFCURVE",
"116 554 CURVE",
"154 556 OFFCURVE",
"179 557 OFFCURVE",
"215 557 CURVE SMOOTH",
"249 557 OFFCURVE",
"272 556 OFFCURVE",
"296 555 CURVE",
"258 496 OFFCURVE",
"227 461 OFFCURVE",
"155 386 CURVE"
);
}
);
};
layerId = "3B5B530A-BB7C-47AF-9BD0-0E3C29910424";
paths = (
{
closed = 1;
nodes = (
"397 -8 OFFCURVE",
"482 106 OFFCURVE",
"482 223 CURVE SMOOTH",
"482 317 OFFCURVE",
"425 413 OFFCURVE",
"298 441 CURVE",
"345 493 OFFCURVE",
"397 539 OFFCURVE",
"445 587 CURVE",
"435 660 LINE",
"367 658 OFFCURVE",
"308 657 OFFCURVE",
"238 657 CURVE SMOOTH",
"178 657 OFFCURVE",
"111 658 OFFCURVE",
"53 660 CURVE",
"53 604 OFFCURVE",
"53 521 OFFCURVE",
"48 457 CURVE",
"97 457 LINE",
"111 492 OFFCURVE",
"121 524 OFFCURVE",
"134 554 CURVE",
"172 556 OFFCURVE",
"197 557 OFFCURVE",
"233 557 CURVE SMOOTH",
"267 557 OFFCURVE",
"290 556 OFFCURVE",
"314 555 CURVE",
"276 496 OFFCURVE",
"245 461 OFFCURVE",
"173 386 CURVE",
"190 340 LINE",
"296 332 OFFCURVE",
"350 265 OFFCURVE",
"350 193 CURVE SMOOTH",
"350 105 OFFCURVE",
"283 63 OFFCURVE",
"207 63 CURVE SMOOTH",
"152 63 OFFCURVE",
"93 84 OFFCURVE",
"49 124 CURVE",
"30 80 LINE",
"102 10 OFFCURVE",
"181 -8 OFFCURVE",
"242 -8 CURVE SMOOTH"
);
}
);
width = 504;
}
);
leftKerningGroup = "0";
rightKerningGroup = "0";
},
{
glyphname = four.latn;
layers = (
{
layerId = "0CED4075-D7BB-4A7E-97B8-19FE9A07C10E";
paths = (
{
closed = 1;
nodes = (
"349 668 LINE",
"248 508 OFFCURVE",
"127 338 OFFCURVE",
"20 208 CURVE",
"20 176 LINE",
"127 177 OFFCURVE",
"206 177 OFFCURVE",
"279 177 CURVE SMOOTH",
"352 177 OFFCURVE",
"419 177 OFFCURVE",
"500 176 CURVE",
"500 233 LINE",
"424 231 OFFCURVE",
"348 230 OFFCURVE",
"278 230 CURVE SMOOTH",
"215 230 OFFCURVE",
"161 231 OFFCURVE",
"133 233 CURVE",
"171 311 OFFCURVE",
"236 408 OFFCURVE",
"307 498 CURVE",
"307 410 OFFCURVE",
"309 319 OFFCURVE",
"309 223 CURVE SMOOTH",
"309 155 OFFCURVE",
"308 85 OFFCURVE",
"305 10 CURVE",
"399 10 LINE",
"397 125 OFFCURVE",
"397 224 OFFCURVE",
"397 319 CURVE SMOOTH",
"397 434 OFFCURVE",
"397 543 OFFCURVE",
"398 668 CURVE"
);
},
{
closed = 1;
nodes = (
"308 58 LINE",
"182 35 LINE",
"195 0 LINE",
"239 1 OFFCURVE",
"307 3 OFFCURVE",
"351 3 CURVE SMOOTH",
"401 3 OFFCURVE",
"453 2 OFFCURVE",
"491 0 CURVE",
"503 35 LINE",
"394 58 LINE"
);
}
);
width = 528;
},
{
background = {
paths = (
{
closed = 1;
nodes = (
"324 462 LINE",
"228 323 OFFCURVE",
"99 147 OFFCURVE",
"10 29 CURVE",
"10 0 LINE",
"204 1 OFFCURVE",
"329 1 OFFCURVE",
"462 0 CURVE",
"462 52 LINE",
"351 48 OFFCURVE",
"183 47 OFFCURVE",
"90 52 CURVE",
"135 123 OFFCURVE",
"220 236 OFFCURVE",
"284 318 CURVE",
"285 153 OFFCURVE",
"287 16 OFFCURVE",
"282 -145 CURVE",
"368 -145 LINE",
"364 86 OFFCURVE",
"368 236 OFFCURVE",
"369 462 CURVE"
);
}
);
};
layerId = "3B5B530A-BB7C-47AF-9BD0-0E3C29910424";
paths = (
{
closed = 1;
nodes = (
"374 668 LINE",
"265 508 OFFCURVE",
"137 348 OFFCURVE",
"20 218 CURVE",
"20 166 LINE",
"127 170 OFFCURVE",
"191 170 OFFCURVE",
"264 170 CURVE SMOOTH",
"387 170 OFFCURVE",
"474 170 OFFCURVE",
"555 166 CURVE",
"555 248 LINE",
"479 241 OFFCURVE",
"453 240 OFFCURVE",
"333 240 CURVE SMOOTH",
"270 240 OFFCURVE",
"197 241 OFFCURVE",
"163 248 CURVE",
"202 316 OFFCURVE",
"237 365 OFFCURVE",
"297 456 CURVE",
"297 369 OFFCURVE",
"299 312 OFFCURVE",
"299 223 CURVE SMOOTH",
"299 155 OFFCURVE",
"299 85 OFFCURVE",
"295 10 CURVE",
"439 10 LINE",
"437 125 OFFCURVE",
"437 224 OFFCURVE",
"437 319 CURVE SMOOTH",
"437 434 OFFCURVE",
"437 543 OFFCURVE",
"438 668 CURVE"
);
},
{
closed = 1;
nodes = (
"298 70 LINE",
"153 45 LINE",
"170 0 LINE",
"214 1 OFFCURVE",
"292 3 OFFCURVE",
"336 3 CURVE SMOOTH",
"441 3 OFFCURVE",
"502 2 OFFCURVE",
"540 0 CURVE",
"555 45 LINE",
"438 70 LINE"
);
}
);
width = 575;
}
);
leftKerningGroup = "0";
rightKerningGroup = "0";
},
{
glyphname = five.latn;
layers = (
{
layerId = "0CED4075-D7BB-4A7E-97B8-19FE9A07C10E";
paths = (
{
closed = 1;
nodes = (
"46 337 LINE",
"72 342 OFFCURVE",
"105 344 OFFCURVE",
"137 344 CURVE SMOOTH",
"272 344 OFFCURVE",
"337 266 OFFCURVE",
"337 188 CURVE SMOOTH",
"337 110 OFFCURVE",
"272 32 OFFCURVE",
"150 32 CURVE SMOOTH",
"104 32 OFFCURVE",
"62 39 OFFCURVE",
"21 51 CURVE",
"15 18 LINE",
"67 -1 OFFCURVE",
"118 -10 OFFCURVE",
"166 -10 CURVE SMOOTH",
"313 -10 OFFCURVE",
"430 75 OFFCURVE",
"430 225 CURVE SMOOTH",
"430 321 OFFCURVE",
"344 433 OFFCURVE",
"162 433 CURVE SMOOTH",
"143 433 OFFCURVE",
"103 432 OFFCURVE",
"82 430 CURVE",
"85 466 OFFCURVE",
"90 541 OFFCURVE",
"99 582 CURVE",
"167 582 OFFCURVE",
"305 582 OFFCURVE",
"386 557 CURVE",
"390 660 LINE",
"350 659 OFFCURVE",
"278 658 OFFCURVE",
"231 658 CURVE SMOOTH",
"142 658 OFFCURVE",
"107 659 OFFCURVE",
"49 660 CURVE",
"48 583 OFFCURVE",
"41 457 OFFCURVE",
"26 364 CURVE"
);
}
);
width = 446;
},
{
background = {
paths = (
{
closed = 1;
nodes = (
"420 660 LINE",
"380 659 OFFCURVE",
"288 658 OFFCURVE",
"241 658 CURVE SMOOTH",
"174 658 OFFCURVE",
"135 659 OFFCURVE",
"77 660 CURVE",
"72 570 OFFCURVE",
"61 422 OFFCURVE",
"46 326 CURVE",
"68 343 OFFCURVE",
"101 407 OFFCURVE",
"122 424 CURVE",
"147 562 LINE",
"175 562 OFFCURVE",
"335 562 OFFCURVE",
"416 537 CURVE"
);
},
{
closed = 1;
nodes = (
"53 -15 LINE",
"357 28 OFFCURVE",
"460 152 OFFCURVE",
"460 274 CURVE SMOOTH",
"460 423 OFFCURVE",
"335 468 OFFCURVE",
"168 468 CURVE SMOOTH",
"131 468 OFFCURVE",
"108 467 OFFCURVE",
"106 467 CURVE",
"46 326 LINE",
"58 327 OFFCURVE",
"103 332 OFFCURVE",
"161 332 CURVE SMOOTH",
"259 332 OFFCURVE",
"340 300 OFFCURVE",
"340 232 CURVE SMOOTH",
"340 166 OFFCURVE",
"300 84 OFFCURVE",
"36 49 CURVE"
);
}
);
};
layerId = "3B5B530A-BB7C-47AF-9BD0-0E3C29910424";
paths = (
{
closed = 1;
nodes = (
"82 311 LINE",
"103 317 OFFCURVE",
"138 322 OFFCURVE",
"183 322 CURVE SMOOTH",
"302 322 OFFCURVE",
"360 255 OFFCURVE",
"360 187 CURVE SMOOTH",
"360 117 OFFCURVE",
"299 46 OFFCURVE",
"180 46 CURVE SMOOTH",
"132 46 OFFCURVE",
"92 52 OFFCURVE",
"53 64 CURVE",
"45 10 LINE",
"91 -2 OFFCURVE",
"138 -8 OFFCURVE",
"182 -8 CURVE SMOOTH",
"382 -8 OFFCURVE",
"485 119 OFFCURVE",
"485 240 CURVE SMOOTH",
"485 349 OFFCURVE",
"401 453 OFFCURVE",
"229 453 CURVE SMOOTH",
"191 453 OFFCURVE",
"155 452 OFFCURVE",
"130 448 CURVE",
"133 484 OFFCURVE",
"138 531 OFFCURVE",
"147 562 CURVE",
"175 562 OFFCURVE",
"355 562 OFFCURVE",
"436 537 CURVE",
"440 660 LINE",
"400 659 OFFCURVE",
"288 658 OFFCURVE",
"241 658 CURVE SMOOTH",
"174 658 OFFCURVE",
"135 659 OFFCURVE",
"77 660 CURVE",
"76 583 OFFCURVE",
"67 439 OFFCURVE",
"52 346 CURVE"
);
}
);
width = 522;
}
);
leftKerningGroup = "0";
rightKerningGroup = "0";
},
{
glyphname = six.latn;
layers = (
{
layerId = "0CED4075-D7BB-4A7E-97B8-19FE9A07C10E";
paths = (
{
closed = 1;
nodes = (
"138 313 LINE",
"155 327 OFFCURVE",
"196 353 OFFCURVE",
"259 353 CURVE SMOOTH",
"350 353 OFFCURVE",
"393 276 OFFCURVE",
"393 192 CURVE SMOOTH",
"393 116 OFFCURVE",
"359 39 OFFCURVE",
"281 39 CURVE SMOOTH",
"212 39 OFFCURVE",
"139 114 OFFCURVE",
"139 268 CURVE SMOOTH",
"139 418 OFFCURVE",
"205 557 OFFCURVE",
"433 633 CURVE",
"417 668 LINE",
"137 598 OFFCURVE",
"40 420 OFFCURVE",
"40 252 CURVE SMOOTH",
"40 108 OFFCURVE",
"121 -6 OFFCURVE",
"261 -6 CURVE SMOOTH",
"416 -6 OFFCURVE",
"487 105 OFFCURVE",
"487 215 CURVE SMOOTH",
"487 320 OFFCURVE",
"422 413 OFFCURVE",
"293 413 CURVE SMOOTH",
"229 413 OFFCURVE",
"178 383 OFFCURVE",
"138 362 CURVE"
);
}
);
width = 527;
},
{
background = {
paths = (
{
closed = 1;
nodes = (
"140 307 LINE",
"155 320 OFFCURVE",
"181 339 OFFCURVE",
"232 339 CURVE",
"321 339 OFFCURVE",
"369 259 OFFCURVE",
"369 177 CURVE",
"369 96 OFFCURVE",
"332 38 OFFCURVE",
"269 38 CURVE",
"215 38 OFFCURVE",
"140 98 OFFCURVE",
"140 261 CURVE",
"140 405 OFFCURVE",
"213 550 OFFCURVE",
"417 600 CURVE",
"405 630 LINE",
"156 593 OFFCURVE",
"45 425 OFFCURVE",
"45 250 CURVE",
"45 93 OFFCURVE",
"128 -6 OFFCURVE",
"257 -6 CURVE",
"388 -6 OFFCURVE",
"462 98 OFFCURVE",
"462 202 CURVE",
"462 299 OFFCURVE",
"398 395 OFFCURVE",
"276 395 CURVE",
"218 395 OFFCURVE",
"181 375 OFFCURVE",
"149 356 CURVE"
);
}
);
};
layerId = "3B5B530A-BB7C-47AF-9BD0-0E3C29910424";
paths = (
{
closed = 1;
nodes = (
"141 291 LINE",
"148 305 OFFCURVE",
"185 343 OFFCURVE",
"249 343 CURVE SMOOTH",
"322 343 OFFCURVE",
"357 258 OFFCURVE",
"357 181 CURVE SMOOTH",
"357 105 OFFCURVE",
"331 45 OFFCURVE",
"281 45 CURVE SMOOTH",
"232 45 OFFCURVE",
"176 105 OFFCURVE",
"176 268 CURVE SMOOTH",
"176 418 OFFCURVE",
"255 553 OFFCURVE",
"443 635 CURVE",
"427 673 LINE",
"137 587 OFFCURVE",
"26 420 OFFCURVE",
"26 252 CURVE SMOOTH",
"26 108 OFFCURVE",
"107 -6 OFFCURVE",
"264 -6 CURVE SMOOTH",
"426 -6 OFFCURVE",
"497 105 OFFCURVE",
"497 215 CURVE SMOOTH",
"497 320 OFFCURVE",
"432 413 OFFCURVE",
"283 413 CURVE SMOOTH",
"229 413 OFFCURVE",
"161 383 OFFCURVE",
"131 357 CURVE"
);
}
);
width = 522;
}
);
leftKerningGroup = "0";
rightKerningGroup = "0";
},
{
glyphname = seven.latn;
layers = (
{
layerId = "0CED4075-D7BB-4A7E-97B8-19FE9A07C10E";
paths = (
{
closed = 1;
nodes = (
"161 577 OFFCURVE",
"211 577 OFFCURVE",
"257 577 CURVE SMOOTH",
"304 577 OFFCURVE",
"346 577 OFFCURVE",
"385 575 CURVE",
"276 383 OFFCURVE",
"208 186 OFFCURVE",
"166 0 CURVE",
"265 0 LINE",
"285 167 OFFCURVE",
"329 381 OFFCURVE",
"474 632 CURVE",
"453 660 LINE",
"389 658 OFFCURVE",
"318 657 OFFCURVE",
"248 657 CURVE SMOOTH",
"178 657 OFFCURVE",
"109 658 OFFCURVE",
"48 660 CURVE",
"48 609 OFFCURVE",
"44 548 OFFCURVE",
"40 470 CURVE",
"70 470 LINE",
"81 503 OFFCURVE",
"92 542 OFFCURVE",
"105 575 CURVE"
);
}
);
width = 479;
},
{
background = {
paths = (
{
closed = 1;
nodes = (
"156 373 OFFCURVE",
"192 373 OFFCURVE",
"238 373 CURVE",
"285 373 OFFCURVE",
"308 373 OFFCURVE",
"351 371 CURVE",
"251 186 OFFCURVE",
"179 -9 OFFCURVE",
"161 -165 CURVE",
"250 -165 LINE",
"256 -28 OFFCURVE",
"307 200 OFFCURVE",
"439 441 CURVE",
"424 460 LINE",
"360 458 OFFCURVE",
"299 457 OFFCURVE",
"229 457 CURVE",
"173 457 OFFCURVE",
"104 458 OFFCURVE",
"43 460 CURVE",
"43 409 OFFCURVE",
"39 356 OFFCURVE",
"35 278 CURVE",
"65 278 LINE",
"76 311 OFFCURVE",
"87 335 OFFCURVE",
"100 371 CURVE"
);
}
);
};
layerId = "3B5B530A-BB7C-47AF-9BD0-0E3C29910424";
paths = (
{
closed = 1;
nodes = (
"170 562 OFFCURVE",
"187 562 OFFCURVE",
"233 562 CURVE SMOOTH",
"270 562 OFFCURVE",
"329 562 OFFCURVE",
"372 560 CURVE",
"245 365 OFFCURVE",
"174 187 OFFCURVE",
"147 0 CURVE",
"286 0 LINE",
"296 137 OFFCURVE",
"315 336 OFFCURVE",
"479 627 CURVE",
"451 660 LINE",
"387 658 OFFCURVE",
"330 657 OFFCURVE",
"240 657 CURVE SMOOTH",
"184 657 OFFCURVE",
"102 658 OFFCURVE",
"41 660 CURVE",
"41 609 OFFCURVE",
"39 536 OFFCURVE",
"35 458 CURVE",
"84 458 LINE",
"94 491 OFFCURVE",
"105 524 OFFCURVE",
"120 560 CURVE"
);
}
);
width = 514;
}
);
leftKerningGroup = "0";
rightKerningGroup = "0";
},
{
glyphname = eight.latn;
layers = (
{
layerId = "0CED4075-D7BB-4A7E-97B8-19FE9A07C10E";
paths = (
{
closed = 1;
nodes = (
"456 450 OFFCURVE",
"456 505 CURVE SMOOTH",
"456 612 OFFCURVE",
"361 665 OFFCURVE",
"255 665 CURVE SMOOTH",
"150 665 OFFCURVE",
"55 612 OFFCURVE",
"55 510 CURVE SMOOTH",
"55 314 OFFCURVE",
"396 320 OFFCURVE",
"396 151 CURVE SMOOTH",
"396 82 OFFCURVE",
"337 41 OFFCURVE",
"270 41 CURVE SMOOTH",
"197 41 OFFCURVE",
"130 83 OFFCURVE",
"130 167 CURVE SMOOTH",
"130 223 OFFCURVE",
"163 285 OFFCURVE",
"230 324 CURVE",
"192 344 LINE",
"86 304 OFFCURVE",
"35 225 OFFCURVE",
"35 160 CURVE SMOOTH",
"35 50 OFFCURVE",
"140 -6 OFFCURVE",
"256 -6 CURVE SMOOTH",
"373 -6 OFFCURVE",
"481 51 OFFCURVE",
"481 171 CURVE SMOOTH",
"481 379 OFFCURVE",
"139 388 OFFCURVE",
"139 531 CURVE SMOOTH",
"139 582 OFFCURVE",
"182 616 OFFCURVE",
"247 616 CURVE SMOOTH",
"308 616 OFFCURVE",
"366 585 OFFCURVE",
"366 510 CURVE SMOOTH",
"366 468 OFFCURVE",
"333 399 OFFCURVE",
"268 380 CURVE",
"315 360 LINE",
"411 386 OFFCURVE"
);
}
);
width = 516;
},
{
background = {
paths = (
{
closed = 1;
nodes = (
"427 417 OFFCURVE",
"427 483 CURVE",
"427 577 OFFCURVE",
"331 629 OFFCURVE",
"241 629 CURVE",
"152 629 OFFCURVE",
"62 574 OFFCURVE",
"62 476 CURVE",
"62 288 OFFCURVE",
"360 288 OFFCURVE",
"360 139 CURVE",
"360 62 OFFCURVE",
"307 30 OFFCURVE",
"256 30 CURVE",
"197 30 OFFCURVE",
"134 75 OFFCURVE",
"134 161 CURVE",
"134 217 OFFCURVE",
"167 272 OFFCURVE",
"244 311 CURVE",
"201 327 LINE",
"85 287 OFFCURVE",
"39 219 OFFCURVE",
"39 154 CURVE",
"39 44 OFFCURVE",
"143 -12 OFFCURVE",
"246 -12 CURVE",
"345 -12 OFFCURVE",
"449 43 OFFCURVE",
"449 154 CURVE",
"449 353 OFFCURVE",
"145 361 OFFCURVE",
"145 504 CURVE",
"145 562 OFFCURVE",
"193 589 OFFCURVE",
"240 589 CURVE",
"304 589 OFFCURVE",
"337 539 OFFCURVE",
"337 484 CURVE",
"337 430 OFFCURVE",
"300 371 OFFCURVE",
"231 352 CURVE",
"282 332 LINE",
"382 363 OFFCURVE"
);
}
);
};
layerId = "3B5B530A-BB7C-47AF-9BD0-0E3C29910424";
paths = (
{
closed = 1;
nodes = (
"464 453 OFFCURVE",
"464 522 CURVE SMOOTH",
"464 596 OFFCURVE",
"400 665 OFFCURVE",
"266 665 CURVE SMOOTH",
"141 665 OFFCURVE",
"52 597 OFFCURVE",
"52 500 CURVE SMOOTH",
"52 304 OFFCURVE",
"373 304 OFFCURVE",
"373 141 CURVE SMOOTH",
"373 85 OFFCURVE",
"331 54 OFFCURVE",
"274 54 CURVE SMOOTH",
"217 54 OFFCURVE",
"161 93 OFFCURVE",
"161 167 CURVE SMOOTH",
"161 240 OFFCURVE",
"191 302 OFFCURVE",
"254 341 CURVE",
"221 363 LINE",
"90 329 OFFCURVE",
"30 249 OFFCURVE",
"30 163 CURVE SMOOTH",
"30 76 OFFCURVE",
"109 -6 OFFCURVE",
"265 -6 CURVE SMOOTH",
"412 -6 OFFCURVE",
"505 67 OFFCURVE",
"505 181 CURVE SMOOTH",
"505 396 OFFCURVE",
"176 408 OFFCURVE",
"176 541 CURVE SMOOTH",
"176 586 OFFCURVE",
"215 606 OFFCURVE",
"252 606 CURVE SMOOTH",
"316 606 OFFCURVE",
"357 563 OFFCURVE",
"357 514 CURVE SMOOTH",
"357 464 OFFCURVE",
"318 406 OFFCURVE",
"252 382 CURVE",
"299 350 LINE",
"408 378 OFFCURVE"
);
}
);
width = 535;
}
);
leftKerningGroup = "0";
rightKerningGroup = "0";
},
{
glyphname = nine.latn;
layers = (
{
layerId = "0CED4075-D7BB-4A7E-97B8-19FE9A07C10E";
paths = (
{
closed = 1;
nodes = (
"389 333 LINE",
"372 319 OFFCURVE",
"331 294 OFFCURVE",
"268 294 CURVE SMOOTH",
"177 294 OFFCURVE",
"134 383 OFFCURVE",
"134 467 CURVE SMOOTH",
"134 543 OFFCURVE",
"168 620 OFFCURVE",
"246 620 CURVE SMOOTH",
"315 620 OFFCURVE",
"388 545 OFFCURVE",
"388 398 CURVE SMOOTH",
"388 278 OFFCURVE",
"327 114 OFFCURVE",
"84 24 CURVE",
"110 -9 LINE",
"390 81 OFFCURVE",
"483 276 OFFCURVE",
"483 414 CURVE SMOOTH",
"483 551 OFFCURVE",
"406 665 OFFCURVE",
"266 665 CURVE SMOOTH",
"111 665 OFFCURVE",
"40 554 OFFCURVE",
"40 444 CURVE SMOOTH",
"40 339 OFFCURVE",
"105 234 OFFCURVE",
"234 234 CURVE SMOOTH",
"298 234 OFFCURVE",
"349 264 OFFCURVE",
"389 285 CURVE"
);
}
);
width = 523;
},
{
background = {
paths = (
{
closed = 1;
nodes = (
"357 145 LINE",
"342 132 OFFCURVE",
"316 113 OFFCURVE",
"265 113 CURVE",
"176 113 OFFCURVE",
"128 201 OFFCURVE",
"128 283 CURVE",
"128 364 OFFCURVE",
"165 422 OFFCURVE",
"228 422 CURVE",
"290 422 OFFCURVE",
"357 358 OFFCURVE",
"357 225 CURVE",
"357 103 OFFCURVE",
"284 -71 OFFCURVE",
"57 -136 CURVE",
"78 -166 LINE",
"361 -90 OFFCURVE",
"452 83 OFFCURVE",
"452 236 CURVE",
"452 363 OFFCURVE",
"377 466 OFFCURVE",
"240 466 CURVE",
"109 466 OFFCURVE",
"35 362 OFFCURVE",
"35 258 CURVE",
"35 161 OFFCURVE",
"99 57 OFFCURVE",
"221 57 CURVE",
"279 57 OFFCURVE",
"316 77 OFFCURVE",
"348 96 CURVE"
);
}
);
};
layerId = "3B5B530A-BB7C-47AF-9BD0-0E3C29910424";
paths = (
{
closed = 1;
nodes = (
"400 368 LINE",
"388 350 OFFCURVE",
"349 306 OFFCURVE",
"275 306 CURVE SMOOTH",
"204 306 OFFCURVE",
"167 394 OFFCURVE",
"167 478 CURVE SMOOTH",
"167 554 OFFCURVE",
"197 605 OFFCURVE",
"243 605 CURVE SMOOTH",
"295 605 OFFCURVE",
"356 538 OFFCURVE",
"356 391 CURVE SMOOTH",
"356 271 OFFCURVE",
"311 125 OFFCURVE",
"72 25 CURVE",
"97 -14 LINE",
"425 86 OFFCURVE",
"498 269 OFFCURVE",
"498 407 CURVE SMOOTH",
"498 550 OFFCURVE",
"417 665 OFFCURVE",
"266 665 CURVE SMOOTH",
"93 665 OFFCURVE",
"27 554 OFFCURVE",
"27 444 CURVE SMOOTH",
"27 339 OFFCURVE",
"82 236 OFFCURVE",
"241 236 CURVE SMOOTH",
"305 236 OFFCURVE",
"376 275 OFFCURVE",
"403 296 CURVE"
);
}
);
width = 522;
}
);
leftKerningGroup = "0";
rightKerningGroup = "0";
},
{
glyphname = zero.lf;
layers = (
{
layerId = "0CED4075-D7BB-4A7E-97B8-19FE9A07C10E";
paths = (
{
closed = 1;
nodes = (
"416 665 OFFCURVE",
"283 665 CURVE SMOOTH",
"149 665 OFFCURVE",
"40 552 OFFCURVE",
"40 323 CURVE SMOOTH",
"40 105 OFFCURVE",
"149 -6 OFFCURVE",
"283 -6 CURVE SMOOTH",
"416 -6 OFFCURVE",
"525 105 OFFCURVE",
"525 323 CURVE SMOOTH",
"525 552 OFFCURVE"
);
},
{
closed = 1;
nodes = (
"199 616 OFFCURVE",
"277 616 CURVE SMOOTH",
"366 616 OFFCURVE",
"428 520 OFFCURVE",
"428 323 CURVE SMOOTH",
"428 136 OFFCURVE",
"366 42 OFFCURVE",
"290 42 CURVE SMOOTH",
"199 42 OFFCURVE",
"137 136 OFFCURVE",
"137 323 CURVE SMOOTH",
"137 520 OFFCURVE"
);
}
);
width = 565;
},
{
background = {
paths = (
{
closed = 1;
nodes = (
"436 665 OFFCURVE",
"303 665 CURVE",
"169 665 OFFCURVE",
"60 552 OFFCURVE",
"60 323 CURVE",
"60 105 OFFCURVE",
"169 -6 OFFCURVE",
"303 -6 CURVE",
"436 -6 OFFCURVE",
"545 105 OFFCURVE",
"545 323 CURVE",
"545 552 OFFCURVE"
);
},
{
closed = 1;
nodes = (
"219 616 OFFCURVE",
"297 616 CURVE",
"386 616 OFFCURVE",
"448 520 OFFCURVE",
"448 323 CURVE",
"448 136 OFFCURVE",
"386 42 OFFCURVE",
"310 42 CURVE",
"219 42 OFFCURVE",
"157 136 OFFCURVE",
"157 323 CURVE",
"157 520 OFFCURVE"
);
}
);
};
layerId = "3B5B530A-BB7C-47AF-9BD0-0E3C29910424";
paths = (
{
closed = 1;
nodes = (
"456 665 OFFCURVE",
"303 665 CURVE SMOOTH",
"149 665 OFFCURVE",
"37 552 OFFCURVE",
"37 323 CURVE SMOOTH",
"37 105 OFFCURVE",
"149 -6 OFFCURVE",
"303 -6 CURVE SMOOTH",
"456 -6 OFFCURVE",
"568 105 OFFCURVE",
"568 323 CURVE SMOOTH",
"568 552 OFFCURVE"
);
},
{
closed = 1;
nodes = (
"235 609 OFFCURVE",
"297 609 CURVE SMOOTH",
"371 609 OFFCURVE",
"428 530 OFFCURVE",
"428 323 CURVE SMOOTH",
"428 126 OFFCURVE",
"371 50 OFFCURVE",
"310 50 CURVE SMOOTH",
"235 50 OFFCURVE",
"177 126 OFFCURVE",
"177 323 CURVE SMOOTH",
"177 530 OFFCURVE"
);
}
);
width = 605;
}
);
},
{
glyphname = one.lf;
layers = (
{
layerId = "0CED4075-D7BB-4A7E-97B8-19FE9A07C10E";
paths = (
{
closed = 1;
nodes = (
"214 670 LINE",
"164 632 OFFCURVE",
"89 608 OFFCURVE",
"23 597 CURVE",
"37 557 LINE",
"165 560 LINE",
"168 480 OFFCURVE",
"169 403 OFFCURVE",
"169 325 CURVE SMOOTH",
"169 239 OFFCURVE",
"168 152 OFFCURVE",
"165 58 CURVE",
"31 35 LINE",
"44 0 LINE",
"88 1 OFFCURVE",
"166 3 OFFCURVE",
"213 3 CURVE SMOOTH",
"264 3 OFFCURVE",
"336 2 OFFCURVE",
"374 0 CURVE",
"386 35 LINE",
"258 58 LINE",
"255 156 OFFCURVE",
"254 248 OFFCURVE",
"254 339 CURVE SMOOTH",
"254 422 OFFCURVE",
"256 491 OFFCURVE",
"258 670 CURVE"
);
}
);
width = 407;
},
{
background = {
paths = (
{
closed = 1;
nodes = (
"225 670 LINE",
"175 632 OFFCURVE",
"100 608 OFFCURVE",
"34 597 CURVE",
"48 557 LINE",
"176 560 LINE",
"179 480 OFFCURVE",
"180 403 OFFCURVE",
"180 325 CURVE SMOOTH",
"180 239 OFFCURVE",
"179 152 OFFCURVE",
"176 58 CURVE",
"42 35 LINE",
"55 0 LINE",
"99 1 OFFCURVE",
"177 3 OFFCURVE",
"224 3 CURVE SMOOTH",
"275 3 OFFCURVE",
"347 2 OFFCURVE",
"385 0 CURVE",
"397 35 LINE",
"269 58 LINE",
"266 156 OFFCURVE",
"265 248 OFFCURVE",
"265 339 CURVE SMOOTH",
"265 422 OFFCURVE",
"267 491 OFFCURVE",
"269 670 CURVE"
);
}
);
};
layerId = "3B5B530A-BB7C-47AF-9BD0-0E3C29910424";
paths = (
{
closed = 1;
nodes = (
"245 670 LINE",
"185 632 OFFCURVE",
"86 608 OFFCURVE",
"20 597 CURVE",
"38 547 LINE",
"166 550 LINE",
"169 470 OFFCURVE",
"170 403 OFFCURVE",
"170 325 CURVE SMOOTH",
"170 239 OFFCURVE",
"169 164 OFFCURVE",
"166 70 CURVE",
"29 45 LINE",
"45 0 LINE",
"89 1 OFFCURVE",
"184 3 OFFCURVE",
"241 3 CURVE SMOOTH",
"302 3 OFFCURVE",
"387 2 OFFCURVE",
"425 0 CURVE",
"441 45 LINE",
"309 70 LINE",
"306 168 OFFCURVE",
"305 248 OFFCURVE",
"305 339 CURVE SMOOTH",
"305 422 OFFCURVE",
"307 491 OFFCURVE",
"309 670 CURVE"
);
}
);
width = 461;
}
);
},
{
glyphname = two.lf;
layers = (
{
layerId = "0CED4075-D7BB-4A7E-97B8-19FE9A07C10E";
paths = (
{
closed = 1;
nodes = (
"45 480 LINE",
"110 554 OFFCURVE",
"181 588 OFFCURVE",
"232 588 CURVE SMOOTH",
"293 588 OFFCURVE",
"340 549 OFFCURVE",
"340 471 CURVE SMOOTH",
"340 385 OFFCURVE",
"276 295 OFFCURVE",
"29 21 CURVE",
"37 0 LINE",
"101 3 OFFCURVE",
"185 4 OFFCURVE",
"249 4 CURVE SMOOTH",
"333 4 OFFCURVE",
"375 3 OFFCURVE",
"447 0 CURVE",
"431 99 LINE",
"318 83 OFFCURVE",
"283 81 OFFCURVE",
"130 83 CURVE",
"132 47 LINE",
"323 291 OFFCURVE",
"440 362 OFFCURVE",
"440 497 CURVE SMOOTH",
"440 604 OFFCURVE",
"357 668 OFFCURVE",
"263 668 CURVE SMOOTH",
"163 668 OFFCURVE",
"92 608 OFFCURVE",
"25 506 CURVE"
);
},
{
closed = 1;
nodes = (
"447 0 LINE",
"445 71 OFFCURVE",
"448 120 OFFCURVE",
"454 190 CURVE",
"415 190 LINE",
"401 154 OFFCURVE",
"394 132 OFFCURVE",
"378 92 CURVE"
);
}
);
width = 494;
},
{
background = {
paths = (
{
closed = 1;
nodes = (
"65 473 LINE",
"120 547 OFFCURVE",
"186 588 OFFCURVE",
"237 588 CURVE SMOOTH",
"298 588 OFFCURVE",
"345 549 OFFCURVE",
"345 471 CURVE SMOOTH",
"345 385 OFFCURVE",
"281 295 OFFCURVE",
"34 21 CURVE",
"42 0 LINE",
"106 3 OFFCURVE",
"190 4 OFFCURVE",
"254 4 CURVE SMOOTH",
"338 4 OFFCURVE",
"380 3 OFFCURVE",
"452 0 CURVE",
"436 99 LINE",
"323 83 OFFCURVE",
"288 79 OFFCURVE",
"135 74 CURVE",
"137 47 LINE",
"328 291 OFFCURVE",
"445 362 OFFCURVE",
"445 497 CURVE SMOOTH",
"445 604 OFFCURVE",
"362 668 OFFCURVE",
"268 668 CURVE SMOOTH",
"168 668 OFFCURVE",
"97 608 OFFCURVE",
"30 506 CURVE"
);
},
{
closed = 1;
nodes = (
"452 0 LINE",
"450 71 OFFCURVE",
"453 120 OFFCURVE",
"459 190 CURVE",
"420 190 LINE",
"406 154 OFFCURVE",
"399 132 OFFCURVE",
"383 92 CURVE"
);
}
);
};
layerId = "3B5B530A-BB7C-47AF-9BD0-0E3C29910424";
paths = (
{
closed = 1;
nodes = (
"45 460 LINE",
"127 542 OFFCURVE",
"183 567 OFFCURVE",
"235 567 CURVE SMOOTH",
"279 567 OFFCURVE",
"332 541 OFFCURVE",
"332 471 CURVE SMOOTH",
"332 385 OFFCURVE",
"280 305 OFFCURVE",
"23 31 CURVE",
"38 0 LINE",
"102 3 OFFCURVE",
"180 4 OFFCURVE",
"254 4 CURVE SMOOTH",
"338 4 OFFCURVE",
"410 3 OFFCURVE",
"482 0 CURVE",
"466 114 LINE",
"353 99 OFFCURVE",
"226 98 OFFCURVE",
"133 99 CURVE",
"127 47 LINE",
"328 271 OFFCURVE",
"475 352 OFFCURVE",
"475 501 CURVE SMOOTH",
"475 604 OFFCURVE",
"392 668 OFFCURVE",
"288 668 CURVE SMOOTH",
"173 668 OFFCURVE",
"94 595 OFFCURVE",
"20 499 CURVE"
);
},
{
closed = 1;
nodes = (
"482 0 LINE",
"480 71 OFFCURVE",
"483 145 OFFCURVE",
"489 215 CURVE",
"436 215 LINE",
"422 179 OFFCURVE",
"413 145 OFFCURVE",
"397 105 CURVE"
);
}
);
width = 509;
}
);
},
{
glyphname = three.lf;
layers = (
{
layerId = "0CED4075-D7BB-4A7E-97B8-19FE9A07C10E";
paths = (
{
closed = 1;
nodes = (
"314 477 OFFCURVE",
"359 525 OFFCURVE",
"420 587 CURVE",
"400 660 LINE",
"332 658 OFFCURVE",
"283 657 OFFCURVE",
"220 657 CURVE SMOOTH",
"150 657 OFFCURVE",
"105 658 OFFCURVE",
"47 660 CURVE",
"47 604 OFFCURVE",
"46 531 OFFCURVE",
"40 467 CURVE",
"73 467 LINE",
"87 503 OFFCURVE",
"94 534 OFFCURVE",
"110 574 CURVE",
"138 576 OFFCURVE",
"169 577 OFFCURVE",
"215 577 CURVE SMOOTH",
"249 577 OFFCURVE",
"288 576 OFFCURVE",
"326 575 CURVE",
"269 501 OFFCURVE",
"229 456 OFFCURVE",
"155 386 CURVE",
"165 361 LINE",
"288 344 OFFCURVE",
"366 287 OFFCURVE",
"366 190 CURVE SMOOTH",
"366 92 OFFCURVE",
"295 49 OFFCURVE",
"214 49 CURVE SMOOTH",
"157 49 OFFCURVE",
"94 70 OFFCURVE",
"47 108 CURVE",
"30 76 LINE",
"89 21 OFFCURVE",
"160 -4 OFFCURVE",
"227 -4 CURVE SMOOTH",
"349 -4 OFFCURVE",
"457 79 OFFCURVE",
"457 220 CURVE SMOOTH",
"457 309 OFFCURVE",
"398 393 OFFCURVE",
"270 428 CURVE"
);
}
);
width = 499;
},
{
background = {
paths = (
{
closed = 1;
nodes = (
"165 361 LINE",
"288 344 OFFCURVE",
"358 287 OFFCURVE",
"358 200 CURVE",
"358 97 OFFCURVE",
"279 48 OFFCURVE",
"175 48 CURVE",
"133 48 OFFCURVE",
"87 56 OFFCURVE",
"40 72 CURVE",
"44 19 LINE",
"93 3 OFFCURVE",
"142 -5 OFFCURVE",
"189 -5 CURVE",
"339 -5 OFFCURVE",
"454 76 OFFCURVE",
"454 220 CURVE",
"454 315 OFFCURVE",
"380 407 OFFCURVE",
"243 438 CURVE",
"215 366 LINE",
"279 439 OFFCURVE",
"334 499 OFFCURVE",
"420 587 CURVE",
"400 660 LINE",
"332 658 OFFCURVE",
"283 657 OFFCURVE",
"220 657 CURVE",
"150 657 OFFCURVE",
"105 658 OFFCURVE",
"47 660 CURVE",
"47 604 OFFCURVE",
"46 531 OFFCURVE",
"40 467 CURVE",
"73 467 LINE",
"87 503 OFFCURVE",
"94 534 OFFCURVE",
"110 574 CURVE",
"138 576 OFFCURVE",
"169 577 OFFCURVE",
"215 577 CURVE",
"249 577 OFFCURVE",
"288 576 OFFCURVE",
"326 575 CURVE",
"269 501 OFFCURVE",
"229 456 OFFCURVE",
"155 386 CURVE"
);
}
);
};
layerId = "3B5B530A-BB7C-47AF-9BD0-0E3C29910424";
paths = (
{
closed = 1;
nodes = (
"397 -8 OFFCURVE",
"482 106 OFFCURVE",
"482 223 CURVE SMOOTH",
"482 317 OFFCURVE",
"425 413 OFFCURVE",
"298 441 CURVE",
"345 493 OFFCURVE",
"397 539 OFFCURVE",
"445 587 CURVE",
"435 660 LINE",
"367 658 OFFCURVE",
"308 657 OFFCURVE",
"238 657 CURVE SMOOTH",
"178 657 OFFCURVE",
"111 658 OFFCURVE",
"53 660 CURVE",
"53 604 OFFCURVE",
"53 521 OFFCURVE",
"48 457 CURVE",
"97 457 LINE",
"111 492 OFFCURVE",
"121 524 OFFCURVE",
"134 554 CURVE",
"172 556 OFFCURVE",
"197 557 OFFCURVE",
"233 557 CURVE SMOOTH",
"267 557 OFFCURVE",
"290 556 OFFCURVE",
"314 555 CURVE",
"276 496 OFFCURVE",
"245 461 OFFCURVE",
"173 386 CURVE",
"190 340 LINE",
"296 332 OFFCURVE",
"350 265 OFFCURVE",
"350 193 CURVE SMOOTH",
"350 105 OFFCURVE",
"283 63 OFFCURVE",
"207 63 CURVE SMOOTH",
"152 63 OFFCURVE",
"93 84 OFFCURVE",
"49 124 CURVE",
"30 80 LINE",
"102 10 OFFCURVE",
"181 -8 OFFCURVE",
"242 -8 CURVE SMOOTH"
);
}
);
width = 504;
}
);
},
{
glyphname = four.lf;
layers = (
{
layerId = "0CED4075-D7BB-4A7E-97B8-19FE9A07C10E";
paths = (
{
closed = 1;
nodes = (
"349 668 LINE",
"248 508 OFFCURVE",
"127 338 OFFCURVE",
"20 208 CURVE",
"20 176 LINE",
"127 177 OFFCURVE",
"206 177 OFFCURVE",
"279 177 CURVE SMOOTH",
"352 177 OFFCURVE",
"419 177 OFFCURVE",
"500 176 CURVE",
"500 233 LINE",
"424 231 OFFCURVE",
"348 230 OFFCURVE",
"278 230 CURVE SMOOTH",
"215 230 OFFCURVE",
"161 231 OFFCURVE",
"133 233 CURVE",
"171 311 OFFCURVE",
"236 408 OFFCURVE",
"307 498 CURVE",
"307 410 OFFCURVE",
"309 319 OFFCURVE",
"309 223 CURVE SMOOTH",
"309 155 OFFCURVE",
"308 85 OFFCURVE",
"305 10 CURVE",
"399 10 LINE",
"397 125 OFFCURVE",
"397 224 OFFCURVE",
"397 319 CURVE SMOOTH",
"397 434 OFFCURVE",
"397 543 OFFCURVE",
"398 668 CURVE"
);
},
{
closed = 1;
nodes = (
"308 58 LINE",
"182 35 LINE",
"195 0 LINE",
"239 1 OFFCURVE",
"307 3 OFFCURVE",
"351 3 CURVE SMOOTH",
"401 3 OFFCURVE",
"453 2 OFFCURVE",
"491 0 CURVE",
"503 35 LINE",
"394 58 LINE"
);
}
);
width = 528;
},
{
background = {
paths = (
{
closed = 1;
nodes = (
"349 668 LINE",
"248 508 OFFCURVE",
"127 338 OFFCURVE",
"20 208 CURVE",
"20 176 LINE",
"127 177 OFFCURVE",
"206 177 OFFCURVE",
"279 177 CURVE SMOOTH",
"352 177 OFFCURVE",
"419 177 OFFCURVE",
"500 176 CURVE",
"500 233 LINE",
"424 231 OFFCURVE",
"348 230 OFFCURVE",
"278 230 CURVE SMOOTH",
"215 230 OFFCURVE",
"157 231 OFFCURVE",
"109 233 CURVE",
"167 311 OFFCURVE",
"236 408 OFFCURVE",
"307 498 CURVE",
"307 410 OFFCURVE",
"309 319 OFFCURVE",
"309 223 CURVE SMOOTH",
"309 155 OFFCURVE",
"308 85 OFFCURVE",
"305 10 CURVE",
"399 10 LINE",
"397 125 OFFCURVE",
"397 224 OFFCURVE",
"397 319 CURVE SMOOTH",
"397 434 OFFCURVE",
"397 543 OFFCURVE",
"398 668 CURVE"
);
},
{
closed = 1;
nodes = (
"308 58 LINE",
"182 35 LINE",
"195 0 LINE",
"239 1 OFFCURVE",
"307 3 OFFCURVE",
"351 3 CURVE SMOOTH",
"401 3 OFFCURVE",
"453 2 OFFCURVE",
"491 0 CURVE",
"503 35 LINE",
"394 58 LINE"
);
}
);
};
layerId = "3B5B530A-BB7C-47AF-9BD0-0E3C29910424";
paths = (
{
closed = 1;
nodes = (
"374 668 LINE",
"265 508 OFFCURVE",
"137 348 OFFCURVE",
"20 218 CURVE",
"20 166 LINE",
"127 167 OFFCURVE",
"191 167 OFFCURVE",
"264 167 CURVE SMOOTH",
"387 167 OFFCURVE",
"474 167 OFFCURVE",
"555 166 CURVE",
"555 248 LINE",
"479 246 OFFCURVE",
"453 245 OFFCURVE",
"333 245 CURVE SMOOTH",
"270 245 OFFCURVE",
"197 246 OFFCURVE",
"163 248 CURVE",
"202 316 OFFCURVE",
"227 351 OFFCURVE",
"287 442 CURVE",
"287 355 OFFCURVE",
"289 312 OFFCURVE",
"289 223 CURVE SMOOTH",
"289 155 OFFCURVE",
"289 85 OFFCURVE",
"285 10 CURVE",
"439 10 LINE",
"437 125 OFFCURVE",
"437 224 OFFCURVE",
"437 319 CURVE SMOOTH",
"437 434 OFFCURVE",
"437 543 OFFCURVE",
"438 668 CURVE"
);
},
{
closed = 1;
nodes = (
"288 70 LINE",
"153 45 LINE",
"170 0 LINE",
"214 1 OFFCURVE",
"292 3 OFFCURVE",
"336 3 CURVE SMOOTH",
"441 3 OFFCURVE",
"502 2 OFFCURVE",
"540 0 CURVE",
"555 45 LINE",
"438 70 LINE"
);
}
);
width = 575;
}
);
},
{
glyphname = five.lf;
layers = (
{
layerId = "0CED4075-D7BB-4A7E-97B8-19FE9A07C10E";
paths = (
{
closed = 1;
nodes = (
"66 337 LINE",
"92 342 OFFCURVE",
"125 344 OFFCURVE",
"157 344 CURVE SMOOTH",
"292 344 OFFCURVE",
"357 266 OFFCURVE",
"357 188 CURVE SMOOTH",
"357 110 OFFCURVE",
"292 32 OFFCURVE",
"170 32 CURVE SMOOTH",
"124 32 OFFCURVE",
"82 39 OFFCURVE",
"41 51 CURVE",
"35 18 LINE",
"87 -1 OFFCURVE",
"138 -10 OFFCURVE",
"186 -10 CURVE SMOOTH",
"333 -10 OFFCURVE",
"450 75 OFFCURVE",
"450 225 CURVE SMOOTH",
"450 321 OFFCURVE",
"364 433 OFFCURVE",
"182 433 CURVE SMOOTH",
"163 433 OFFCURVE",
"123 432 OFFCURVE",
"102 430 CURVE",
"105 466 OFFCURVE",
"110 541 OFFCURVE",
"119 582 CURVE",
"187 582 OFFCURVE",
"325 582 OFFCURVE",
"406 557 CURVE",
"410 660 LINE",
"370 659 OFFCURVE",
"298 658 OFFCURVE",
"251 658 CURVE SMOOTH",
"162 658 OFFCURVE",
"127 659 OFFCURVE",
"69 660 CURVE",
"68 583 OFFCURVE",
"61 457 OFFCURVE",
"46 364 CURVE"
);
}
);
width = 478;
},
{
background = {
paths = (
{
closed = 1;
nodes = (
"410 660 LINE",
"370 659 OFFCURVE",
"288 658 OFFCURVE",
"241 658 CURVE SMOOTH",
"174 658 OFFCURVE",
"135 659 OFFCURVE",
"77 660 CURVE",
"72 570 OFFCURVE",
"61 440 OFFCURVE",
"46 361 CURVE",
"68 378 OFFCURVE",
"91 407 OFFCURVE",
"112 424 CURVE",
"126 582 LINE",
"164 582 OFFCURVE",
"308 589 OFFCURVE",
"406 561 CURVE"
);
},
{
closed = 1;
nodes = (
"53 -9 LINE",
"331 6 OFFCURVE",
"433 125 OFFCURVE",
"433 253 CURVE SMOOTH",
"433 394 OFFCURVE",
"319 458 OFFCURVE",
"158 458 CURVE SMOOTH",
"121 458 OFFCURVE",
"98 457 OFFCURVE",
"96 457 CURVE",
"46 361 LINE",
"71 365 OFFCURVE",
"107 368 OFFCURVE",
"154 368 CURVE SMOOTH",
"263 368 OFFCURVE",
"345 326 OFFCURVE",
"345 227 CURVE SMOOTH",
"345 128 OFFCURVE",
"247 55 OFFCURVE",
"40 39 CURVE"
);
}
);
};
layerId = "3B5B530A-BB7C-47AF-9BD0-0E3C29910424";
paths = (
{
closed = 1;
nodes = (
"82 311 LINE",
"103 317 OFFCURVE",
"138 322 OFFCURVE",
"183 322 CURVE SMOOTH",
"302 322 OFFCURVE",
"360 255 OFFCURVE",
"360 187 CURVE SMOOTH",
"360 117 OFFCURVE",
"299 46 OFFCURVE",
"180 46 CURVE SMOOTH",
"132 46 OFFCURVE",
"92 52 OFFCURVE",
"53 64 CURVE",
"45 10 LINE",
"91 -2 OFFCURVE",
"138 -8 OFFCURVE",
"182 -8 CURVE SMOOTH",
"382 -8 OFFCURVE",
"485 119 OFFCURVE",
"485 240 CURVE SMOOTH",
"485 349 OFFCURVE",
"401 453 OFFCURVE",
"229 453 CURVE SMOOTH",
"191 453 OFFCURVE",
"155 452 OFFCURVE",
"130 448 CURVE",
"133 484 OFFCURVE",
"138 531 OFFCURVE",
"147 562 CURVE",
"175 562 OFFCURVE",
"355 562 OFFCURVE",
"436 537 CURVE",
"440 660 LINE",
"400 659 OFFCURVE",
"288 658 OFFCURVE",
"241 658 CURVE SMOOTH",
"174 658 OFFCURVE",
"135 659 OFFCURVE",
"77 660 CURVE",
"76 583 OFFCURVE",
"67 439 OFFCURVE",
"52 346 CURVE"
);
}
);
width = 522;
}
);
},
{
glyphname = six.lf;
layers = (
{
layerId = "0CED4075-D7BB-4A7E-97B8-19FE9A07C10E";
paths = (
{
closed = 1;
nodes = (
"138 313 LINE",
"155 327 OFFCURVE",
"196 353 OFFCURVE",
"259 353 CURVE SMOOTH",
"350 353 OFFCURVE",
"393 276 OFFCURVE",
"393 192 CURVE SMOOTH",
"393 116 OFFCURVE",
"359 39 OFFCURVE",
"281 39 CURVE SMOOTH",
"212 39 OFFCURVE",
"139 114 OFFCURVE",
"139 268 CURVE SMOOTH",
"139 418 OFFCURVE",
"205 557 OFFCURVE",
"433 633 CURVE",
"417 668 LINE",
"137 598 OFFCURVE",
"40 420 OFFCURVE",
"40 252 CURVE SMOOTH",
"40 108 OFFCURVE",
"121 -6 OFFCURVE",
"261 -6 CURVE SMOOTH",
"416 -6 OFFCURVE",
"487 105 OFFCURVE",
"487 215 CURVE SMOOTH",
"487 320 OFFCURVE",
"422 413 OFFCURVE",
"293 413 CURVE SMOOTH",
"229 413 OFFCURVE",
"178 383 OFFCURVE",
"138 362 CURVE"
);
}
);
width = 527;
},
{
background = {
paths = (
{
closed = 1;
nodes = (
"138 313 LINE",
"155 327 OFFCURVE",
"196 353 OFFCURVE",
"259 353 CURVE",
"350 353 OFFCURVE",
"393 276 OFFCURVE",
"393 192 CURVE",
"393 116 OFFCURVE",
"359 39 OFFCURVE",
"281 39 CURVE",
"212 39 OFFCURVE",
"139 114 OFFCURVE",
"139 268 CURVE",
"139 418 OFFCURVE",
"208 551 OFFCURVE",
"436 627 CURVE",
"417 668 LINE",
"137 598 OFFCURVE",
"40 420 OFFCURVE",
"40 252 CURVE",
"40 108 OFFCURVE",
"121 -6 OFFCURVE",
"261 -6 CURVE",
"416 -6 OFFCURVE",
"487 105 OFFCURVE",
"487 215 CURVE",
"487 320 OFFCURVE",
"422 413 OFFCURVE",
"293 413 CURVE",
"229 413 OFFCURVE",
"178 383 OFFCURVE",
"138 362 CURVE"
);
}
);
};
layerId = "3B5B530A-BB7C-47AF-9BD0-0E3C29910424";
paths = (
{
closed = 1;
nodes = (
"141 291 LINE",
"148 305 OFFCURVE",
"185 343 OFFCURVE",
"249 343 CURVE SMOOTH",
"322 343 OFFCURVE",
"357 258 OFFCURVE",
"357 181 CURVE SMOOTH",
"357 105 OFFCURVE",
"331 45 OFFCURVE",
"281 45 CURVE SMOOTH",
"232 45 OFFCURVE",
"176 105 OFFCURVE",
"176 268 CURVE SMOOTH",
"176 418 OFFCURVE",
"255 553 OFFCURVE",
"443 635 CURVE",
"427 673 LINE",
"137 587 OFFCURVE",
"26 420 OFFCURVE",
"26 252 CURVE SMOOTH",
"26 108 OFFCURVE",
"107 -6 OFFCURVE",
"264 -6 CURVE SMOOTH",
"426 -6 OFFCURVE",
"497 105 OFFCURVE",
"497 215 CURVE SMOOTH",
"497 320 OFFCURVE",
"432 413 OFFCURVE",
"283 413 CURVE SMOOTH",
"229 413 OFFCURVE",
"161 383 OFFCURVE",
"131 357 CURVE"
);
}
);
width = 522;
}
);
},
{
glyphname = seven.lf;
layers = (
{
layerId = "0CED4075-D7BB-4A7E-97B8-19FE9A07C10E";
paths = (
{
closed = 1;
nodes = (
"161 577 OFFCURVE",
"211 577 OFFCURVE",
"257 577 CURVE SMOOTH",
"304 577 OFFCURVE",
"346 577 OFFCURVE",
"385 575 CURVE",
"276 383 OFFCURVE",
"208 186 OFFCURVE",
"166 0 CURVE",
"265 0 LINE",
"285 167 OFFCURVE",
"329 381 OFFCURVE",
"474 632 CURVE",
"453 660 LINE",
"389 658 OFFCURVE",
"318 657 OFFCURVE",
"248 657 CURVE SMOOTH",
"178 657 OFFCURVE",
"109 658 OFFCURVE",
"48 660 CURVE",
"48 609 OFFCURVE",
"44 548 OFFCURVE",
"40 470 CURVE",
"70 470 LINE",
"81 503 OFFCURVE",
"92 542 OFFCURVE",
"105 575 CURVE"
);
}
);
width = 479;
},
{
background = {
paths = (
{
closed = 1;
nodes = (
"153 577 OFFCURVE",
"203 577 OFFCURVE",
"249 577 CURVE",
"296 577 OFFCURVE",
"338 577 OFFCURVE",
"377 575 CURVE",
"268 383 OFFCURVE",
"200 186 OFFCURVE",
"158 0 CURVE",
"257 0 LINE",
"277 167 OFFCURVE",
"321 381 OFFCURVE",
"466 632 CURVE",
"445 660 LINE",
"381 658 OFFCURVE",
"310 657 OFFCURVE",
"240 657 CURVE",
"170 657 OFFCURVE",
"101 658 OFFCURVE",
"40 660 CURVE",
"40 609 OFFCURVE",
"36 548 OFFCURVE",
"32 470 CURVE",
"62 470 LINE",
"73 503 OFFCURVE",
"84 542 OFFCURVE",
"97 575 CURVE"
);
}
);
};
layerId = "3B5B530A-BB7C-47AF-9BD0-0E3C29910424";
paths = (
{
closed = 1;
nodes = (
"170 562 OFFCURVE",
"187 562 OFFCURVE",
"233 562 CURVE SMOOTH",
"270 562 OFFCURVE",
"329 562 OFFCURVE",
"372 560 CURVE",
"245 365 OFFCURVE",
"174 187 OFFCURVE",
"147 0 CURVE",
"286 0 LINE",
"296 137 OFFCURVE",
"315 336 OFFCURVE",
"479 627 CURVE",
"451 660 LINE",
"387 658 OFFCURVE",
"330 657 OFFCURVE",
"240 657 CURVE SMOOTH",
"184 657 OFFCURVE",
"102 658 OFFCURVE",
"41 660 CURVE",
"41 609 OFFCURVE",
"39 536 OFFCURVE",
"35 458 CURVE",
"84 458 LINE",
"94 491 OFFCURVE",
"105 524 OFFCURVE",
"120 560 CURVE"
);
}
);
width = 514;
}
);
},
{
glyphname = eight.lf;
layers = (
{
layerId = "0CED4075-D7BB-4A7E-97B8-19FE9A07C10E";
paths = (
{
closed = 1;
nodes = (
"456 450 OFFCURVE",
"456 505 CURVE SMOOTH",
"456 612 OFFCURVE",
"361 665 OFFCURVE",
"255 665 CURVE SMOOTH",
"150 665 OFFCURVE",
"55 612 OFFCURVE",
"55 510 CURVE SMOOTH",
"55 314 OFFCURVE",
"396 320 OFFCURVE",
"396 151 CURVE SMOOTH",
"396 82 OFFCURVE",
"337 41 OFFCURVE",
"270 41 CURVE SMOOTH",
"197 41 OFFCURVE",
"130 83 OFFCURVE",
"130 167 CURVE SMOOTH",
"130 223 OFFCURVE",
"163 285 OFFCURVE",
"230 324 CURVE",
"192 344 LINE",
"86 304 OFFCURVE",
"35 225 OFFCURVE",
"35 160 CURVE SMOOTH",
"35 50 OFFCURVE",
"140 -6 OFFCURVE",
"256 -6 CURVE SMOOTH",
"373 -6 OFFCURVE",
"481 51 OFFCURVE",
"481 171 CURVE SMOOTH",
"481 379 OFFCURVE",
"139 388 OFFCURVE",
"139 531 CURVE SMOOTH",
"139 582 OFFCURVE",
"182 616 OFFCURVE",
"247 616 CURVE SMOOTH",
"308 616 OFFCURVE",
"366 585 OFFCURVE",
"366 510 CURVE SMOOTH",
"366 468 OFFCURVE",
"333 399 OFFCURVE",
"268 380 CURVE",
"315 360 LINE",
"411 386 OFFCURVE"
);
}
);
width = 516;
},
{
background = {
paths = (
{
closed = 1;
nodes = (
"456 450 OFFCURVE",
"456 505 CURVE",
"456 612 OFFCURVE",
"361 665 OFFCURVE",
"255 665 CURVE",
"150 665 OFFCURVE",
"55 612 OFFCURVE",
"55 510 CURVE",
"55 314 OFFCURVE",
"396 320 OFFCURVE",
"396 151 CURVE",
"396 82 OFFCURVE",
"337 41 OFFCURVE",
"270 41 CURVE",
"197 41 OFFCURVE",
"130 83 OFFCURVE",
"130 167 CURVE",
"130 223 OFFCURVE",
"163 285 OFFCURVE",
"230 324 CURVE",
"187 340 LINE",
"81 300 OFFCURVE",
"35 225 OFFCURVE",
"35 160 CURVE",
"35 50 OFFCURVE",
"140 -6 OFFCURVE",
"256 -6 CURVE",
"373 -6 OFFCURVE",
"481 51 OFFCURVE",
"481 171 CURVE",
"481 379 OFFCURVE",
"139 388 OFFCURVE",
"139 531 CURVE",
"139 582 OFFCURVE",
"182 616 OFFCURVE",
"247 616 CURVE",
"308 616 OFFCURVE",
"366 585 OFFCURVE",
"366 510 CURVE",
"366 468 OFFCURVE",
"333 399 OFFCURVE",
"268 380 CURVE",
"315 360 LINE",
"411 386 OFFCURVE"
);
}
);
};
layerId = "3B5B530A-BB7C-47AF-9BD0-0E3C29910424";
paths = (
{
closed = 1;
nodes = (
"469 448 OFFCURVE",
"469 513 CURVE SMOOTH",
"469 591 OFFCURVE",
"395 665 OFFCURVE",
"254 665 CURVE SMOOTH",
"143 665 OFFCURVE",
"48 602 OFFCURVE",
"48 500 CURVE SMOOTH",
"48 294 OFFCURVE",
"362 294 OFFCURVE",
"362 141 CURVE SMOOTH",
"362 85 OFFCURVE",
"327 54 OFFCURVE",
"270 54 CURVE SMOOTH",
"213 54 OFFCURVE",
"164 93 OFFCURVE",
"164 167 CURVE SMOOTH",
"164 230 OFFCURVE",
"187 292 OFFCURVE",
"250 331 CURVE",
"217 353 LINE",
"86 319 OFFCURVE",
"26 239 OFFCURVE",
"26 163 CURVE SMOOTH",
"26 76 OFFCURVE",
"105 -6 OFFCURVE",
"261 -6 CURVE SMOOTH",
"408 -6 OFFCURVE",
"501 67 OFFCURVE",
"501 181 CURVE SMOOTH",
"501 386 OFFCURVE",
"172 398 OFFCURVE",
"172 541 CURVE SMOOTH",
"172 586 OFFCURVE",
"211 606 OFFCURVE",
"248 606 CURVE SMOOTH",
"312 606 OFFCURVE",
"345 563 OFFCURVE",
"345 514 CURVE SMOOTH",
"345 454 OFFCURVE",
"314 396 OFFCURVE",
"248 372 CURVE",
"305 350 LINE",
"412 380 OFFCURVE"
);
}
);
width = 522;
}
);
},
{
glyphname = nine.lf;
layers = (
{
layerId = "0CED4075-D7BB-4A7E-97B8-19FE9A07C10E";
paths = (
{
closed = 1;
nodes = (
"389 333 LINE",
"372 319 OFFCURVE",
"331 294 OFFCURVE",
"268 294 CURVE SMOOTH",
"177 294 OFFCURVE",
"134 383 OFFCURVE",
"134 467 CURVE SMOOTH",
"134 543 OFFCURVE",
"168 620 OFFCURVE",
"246 620 CURVE SMOOTH",
"315 620 OFFCURVE",
"388 545 OFFCURVE",
"388 398 CURVE SMOOTH",
"388 278 OFFCURVE",
"328 114 OFFCURVE",
"85 24 CURVE",
"110 -9 LINE",
"390 81 OFFCURVE",
"483 276 OFFCURVE",
"483 414 CURVE SMOOTH",
"483 551 OFFCURVE",
"406 665 OFFCURVE",
"266 665 CURVE SMOOTH",
"111 665 OFFCURVE",
"40 554 OFFCURVE",
"40 444 CURVE SMOOTH",
"40 339 OFFCURVE",
"105 234 OFFCURVE",
"234 234 CURVE SMOOTH",
"298 234 OFFCURVE",
"349 264 OFFCURVE",
"389 285 CURVE"
);
}
);
width = 523;
},
{
background = {
paths = (
{
closed = 1;
nodes = (
"383 368 LINE",
"376 354 OFFCURVE",
"339 316 OFFCURVE",
"275 316 CURVE SMOOTH",
"202 316 OFFCURVE",
"167 401 OFFCURVE",
"167 478 CURVE SMOOTH",
"167 545 OFFCURVE",
"193 605 OFFCURVE",
"243 605 CURVE SMOOTH",
"292 605 OFFCURVE",
"348 545 OFFCURVE",
"348 391 CURVE SMOOTH",
"348 241 OFFCURVE",
"259 123 OFFCURVE",
"71 41 CURVE",
"97 -14 LINE",
"387 72 OFFCURVE",
"498 239 OFFCURVE",
"498 407 CURVE SMOOTH",
"498 551 OFFCURVE",
"417 665 OFFCURVE",
"260 665 CURVE SMOOTH",
"98 665 OFFCURVE",
"27 554 OFFCURVE",
"27 444 CURVE SMOOTH",
"27 339 OFFCURVE",
"92 246 OFFCURVE",
"241 246 CURVE SMOOTH",
"295 246 OFFCURVE",
"363 276 OFFCURVE",
"393 302 CURVE"
);
},
{
closed = 1;
nodes = (
"389 333 LINE",
"372 319 OFFCURVE",
"331 294 OFFCURVE",
"268 294 CURVE SMOOTH",
"177 294 OFFCURVE",
"134 383 OFFCURVE",
"134 467 CURVE SMOOTH",
"134 543 OFFCURVE",
"168 620 OFFCURVE",
"246 620 CURVE SMOOTH",
"315 620 OFFCURVE",
"388 545 OFFCURVE",
"388 398 CURVE SMOOTH",
"388 278 OFFCURVE",
"325 120 OFFCURVE",
"82 30 CURVE",
"110 -9 LINE",
"390 81 OFFCURVE",
"483 276 OFFCURVE",
"483 414 CURVE SMOOTH",
"483 551 OFFCURVE",
"406 665 OFFCURVE",
"266 665 CURVE SMOOTH",
"111 665 OFFCURVE",
"40 554 OFFCURVE",
"40 444 CURVE SMOOTH",
"40 339 OFFCURVE",
"105 234 OFFCURVE",
"234 234 CURVE SMOOTH",
"298 234 OFFCURVE",
"349 264 OFFCURVE",
"389 285 CURVE"
);
}
);
};
layerId = "3B5B530A-BB7C-47AF-9BD0-0E3C29910424";
paths = (
{
closed = 1;
nodes = (
"400 368 LINE",
"388 350 OFFCURVE",
"349 306 OFFCURVE",
"275 306 CURVE SMOOTH",
"204 306 OFFCURVE",
"167 394 OFFCURVE",
"167 478 CURVE SMOOTH",
"167 554 OFFCURVE",
"197 605 OFFCURVE",
"243 605 CURVE SMOOTH",
"295 605 OFFCURVE",
"356 538 OFFCURVE",
"356 391 CURVE SMOOTH",
"356 271 OFFCURVE",
"311 125 OFFCURVE",
"72 25 CURVE",
"97 -14 LINE",
"425 86 OFFCURVE",
"498 269 OFFCURVE",
"498 407 CURVE SMOOTH",
"498 550 OFFCURVE",
"417 665 OFFCURVE",
"266 665 CURVE SMOOTH",
"93 665 OFFCURVE",
"27 554 OFFCURVE",
"27 444 CURVE SMOOTH",
"27 339 OFFCURVE",
"82 236 OFFCURVE",
"241 236 CURVE SMOOTH",
"305 236 OFFCURVE",
"376 275 OFFCURVE",
"403 296 CURVE"
);
}
);
width = 522;
}
);
},
{
glyphname = zero.osf;
layers = (
{
components = (
{
name = zero;
}
);
layerId = "0CED4075-D7BB-4A7E-97B8-19FE9A07C10E";
width = 565;
},
{
layerId = "3B5B530A-BB7C-47AF-9BD0-0E3C29910424";
paths = (
{
closed = 1;
nodes = (
"391 467 OFFCURVE",
"256 467 CURVE SMOOTH",
"120 467 OFFCURVE",
"19 383 OFFCURVE",
"19 229 CURVE SMOOTH",
"19 76 OFFCURVE",
"120 -9 OFFCURVE",
"256 -9 CURVE SMOOTH",
"391 -9 OFFCURVE",
"492 76 OFFCURVE",
"492 229 CURVE SMOOTH",
"492 383 OFFCURVE"
);
},
{
closed = 1;
nodes = (
"200 417 OFFCURVE",
"256 417 CURVE SMOOTH",
"311 417 OFFCURVE",
"351 354 OFFCURVE",
"351 229 CURVE SMOOTH",
"351 104 OFFCURVE",
"311 41 OFFCURVE",
"256 41 CURVE SMOOTH",
"200 41 OFFCURVE",
"160 104 OFFCURVE",
"160 229 CURVE SMOOTH",
"160 354 OFFCURVE"
);
}
);
width = 522;
}
);
},
{
glyphname = one.osf;
layers = (
{
components = (
{
name = one;
}
);
layerId = "0CED4075-D7BB-4A7E-97B8-19FE9A07C10E";
width = 407;
},
{
layerId = "3B5B530A-BB7C-47AF-9BD0-0E3C29910424";
paths = (
{
closed = 1;
nodes = (
"232 462 LINE",
"162 414 OFFCURVE",
"101 401 OFFCURVE",
"15 393 CURVE",
"37 343 LINE",
"145 344 LINE",
"148 275 OFFCURVE",
"150 251 OFFCURVE",
"150 208 CURVE SMOOTH",
"150 144 OFFCURVE",
"150 110 OFFCURVE",
"149 65 CURVE",
"37 38 LINE",
"50 0 LINE",
"88 1 OFFCURVE",
"175 3 OFFCURVE",
"224 3 CURVE SMOOTH",
"289 3 OFFCURVE",
"338 2 OFFCURVE",
"376 0 CURVE",
"389 38 LINE",
"287 65 LINE",
"284 126 OFFCURVE",
"284 161 OFFCURVE",
"284 214 CURVE SMOOTH",
"284 287 OFFCURVE",
"285 361 OFFCURVE",
"287 462 CURVE"
);
}
);
width = 404;
}
);
},
{
glyphname = two.osf;
layers = (
{
components = (
{
name = two;
}
);
layerId = "0CED4075-D7BB-4A7E-97B8-19FE9A07C10E";
width = 494;
},
{
layerId = "3B5B530A-BB7C-47AF-9BD0-0E3C29910424";
paths = (
{
closed = 1;
nodes = (
"51 291 LINE",
"116 355 OFFCURVE",
"161 381 OFFCURVE",
"201 381 CURVE SMOOTH",
"243 381 OFFCURVE",
"275 354 OFFCURVE",
"275 311 CURVE SMOOTH",
"275 238 OFFCURVE",
"189 170 OFFCURVE",
"29 34 CURVE",
"47 -4 LINE",
"105 -2 OFFCURVE",
"179 -1 OFFCURVE",
"207 -1 CURVE SMOOTH",
"279 -1 OFFCURVE",
"356 -2 OFFCURVE",
"421 -4 CURVE",
"423 29 OFFCURVE",
"424 73 OFFCURVE",
"425 110 CURVE",
"322 93 OFFCURVE",
"268 93 OFFCURVE",
"153 91 CURVE",
"116 53 LINE",
"288 152 OFFCURVE",
"412 216 OFFCURVE",
"412 335 CURVE SMOOTH",
"412 417 OFFCURVE",
"343 469 OFFCURVE",
"258 469 CURVE SMOOTH",
"161 469 OFFCURVE",
"90 409 OFFCURVE",
"26 341 CURVE"
);
}
);
width = 451;
}
);
},
{
glyphname = three.osf;
layers = (
{
components = (
{
name = three;
}
);
layerId = "0CED4075-D7BB-4A7E-97B8-19FE9A07C10E";
width = 499;
},
{
layerId = "3B5B530A-BB7C-47AF-9BD0-0E3C29910424";
paths = (
{
closed = 1;
nodes = (
"162 155 LINE",
"259 141 OFFCURVE",
"310 69 OFFCURVE",
"310 5 CURVE SMOOTH",
"310 -54 OFFCURVE",
"268 -107 OFFCURVE",
"182 -107 CURVE SMOOTH",
"134 -107 OFFCURVE",
"89 -94 OFFCURVE",
"36 -63 CURVE",
"25 -117 LINE",
"81 -155 OFFCURVE",
"147 -173 OFFCURVE",
"210 -173 CURVE SMOOTH",
"332 -173 OFFCURVE",
"441 -103 OFFCURVE",
"441 31 CURVE SMOOTH",
"441 120 OFFCURVE",
"372 209 OFFCURVE",
"258 229 CURVE",
"234 184 LINE",
"290 251 OFFCURVE",
"342 308 OFFCURVE",
"417 388 CURVE",
"391 460 LINE",
"333 458 OFFCURVE",
"265 457 OFFCURVE",
"223 457 CURVE SMOOTH",
"170 457 OFFCURVE",
"86 458 OFFCURVE",
"33 460 CURVE",
"33 409 OFFCURVE",
"32 322 OFFCURVE",
"29 264 CURVE",
"79 264 LINE",
"89 297 OFFCURVE",
"101 334 OFFCURVE",
"113 358 CURVE",
"143 360 OFFCURVE",
"161 361 OFFCURVE",
"201 361 CURVE SMOOTH",
"246 361 OFFCURVE",
"271 360 OFFCURVE",
"298 359 CURVE",
"259 298 OFFCURVE",
"221 243 OFFCURVE",
"153 184 CURVE"
);
}
);
width = 466;
}
);
},
{
glyphname = four.osf;
layers = (
{
components = (
{
name = four;
}
);
layerId = "0CED4075-D7BB-4A7E-97B8-19FE9A07C10E";
width = 528;
},
{
layerId = "3B5B530A-BB7C-47AF-9BD0-0E3C29910424";
paths = (
{
closed = 1;
nodes = (
"354 467 LINE",
"258 328 OFFCURVE",
"118 158 OFFCURVE",
"19 44 CURVE",
"19 0 LINE",
"116 1 OFFCURVE",
"201 1 OFFCURVE",
"278 1 CURVE SMOOTH",
"356 1 OFFCURVE",
"426 1 OFFCURVE",
"492 0 CURVE",
"492 72 LINE",
"433 70 OFFCURVE",
"373 69 OFFCURVE",
"315 69 CURVE SMOOTH",
"263 69 OFFCURVE",
"213 70 OFFCURVE",
"169 72 CURVE",
"210 143 OFFCURVE",
"225 166 OFFCURVE",
"284 252 CURVE",
"284 192 OFFCURVE",
"285 144 OFFCURVE",
"285 100 CURVE SMOOTH",
"285 23 OFFCURVE",
"283 -53 OFFCURVE",
"277 -155 CURVE",
"412 -155 LINE",
"408 -46 OFFCURVE",
"407 57 OFFCURVE",
"407 148 CURVE SMOOTH",
"407 249 OFFCURVE",
"408 348 OFFCURVE",
"409 467 CURVE"
);
}
);
width = 517;
}
);
},
{
glyphname = five.osf;
layers = (
{
components = (
{
name = five;
}
);
layerId = "0CED4075-D7BB-4A7E-97B8-19FE9A07C10E";
width = 446;
},
{
layerId = "3B5B530A-BB7C-47AF-9BD0-0E3C29910424";
paths = (
{
closed = 1;
nodes = (
"341 -137 OFFCURVE",
"416 -20 OFFCURVE",
"416 86 CURVE SMOOTH",
"416 176 OFFCURVE",
"352 283 OFFCURVE",
"96 287 CURVE",
"41 166 LINE",
"56 167 OFFCURVE",
"71 167 OFFCURVE",
"85 167 CURVE SMOOTH",
"238 167 OFFCURVE",
"288 110 OFFCURVE",
"288 53 CURVE SMOOTH",
"288 -30 OFFCURVE",
"215 -89 OFFCURVE",
"1 -111 CURVE",
"7 -162 LINE"
);
},
{
closed = 1;
nodes = (
"61 181 OFFCURVE",
"91 238 OFFCURVE",
"110 253 CURVE",
"133 364 LINE",
"168 364 OFFCURVE",
"301 364 OFFCURVE",
"388 341 CURVE",
"392 460 LINE",
"355 459 OFFCURVE",
"261 458 OFFCURVE",
"218 458 CURVE SMOOTH",
"157 458 OFFCURVE",
"122 459 OFFCURVE",
"69 460 CURVE",
"64 378 OFFCURVE",
"54 258 OFFCURVE",
"41 166 CURVE"
);
}
);
width = 441;
}
);
},
{
glyphname = six.osf;
layers = (
{
components = (
{
name = six;
}
);
layerId = "0CED4075-D7BB-4A7E-97B8-19FE9A07C10E";
width = 527;
},
{
layerId = "3B5B530A-BB7C-47AF-9BD0-0E3C29910424";
paths = (
{
closed = 1;
nodes = (
"154 298 LINE",
"169 311 OFFCURVE",
"201 330 OFFCURVE",
"232 330 CURVE SMOOTH",
"300 330 OFFCURVE",
"345 259 OFFCURVE",
"345 177 CURVE SMOOTH",
"345 96 OFFCURVE",
"315 50 OFFCURVE",
"269 50 CURVE SMOOTH",
"212 50 OFFCURVE",
"164 128 OFFCURVE",
"164 261 CURVE SMOOTH",
"164 399 OFFCURVE",
"243 536 OFFCURVE",
"437 598 CURVE",
"415 636 LINE",
"146 587 OFFCURVE",
"24 419 OFFCURVE",
"24 250 CURVE SMOOTH",
"24 103 OFFCURVE",
"108 -6 OFFCURVE",
"257 -6 CURVE SMOOTH",
"408 -6 OFFCURVE",
"483 98 OFFCURVE",
"483 202 CURVE SMOOTH",
"483 299 OFFCURVE",
"414 395 OFFCURVE",
"276 395 CURVE SMOOTH",
"234 395 OFFCURVE",
"193 380 OFFCURVE",
"163 356 CURVE"
);
}
);
width = 507;
}
);
},
{
glyphname = seven.osf;
layers = (
{
components = (
{
name = seven;
}
);
layerId = "0CED4075-D7BB-4A7E-97B8-19FE9A07C10E";
width = 479;
},
{
layerId = "3B5B530A-BB7C-47AF-9BD0-0E3C29910424";
paths = (
{
closed = 1;
nodes = (
"159 362 OFFCURVE",
"176 362 OFFCURVE",
"222 362 CURVE SMOOTH",
"259 362 OFFCURVE",
"309 362 OFFCURVE",
"352 360 CURVE",
"222 165 OFFCURVE",
"160 12 OFFCURVE",
"136 -175 CURVE",
"275 -175 LINE",
"282 -38 OFFCURVE",
"292 156 OFFCURVE",
"459 427 CURVE",
"431 460 LINE",
"367 458 OFFCURVE",
"310 457 OFFCURVE",
"229 457 CURVE SMOOTH",
"173 457 OFFCURVE",
"91 458 OFFCURVE",
"30 460 CURVE",
"30 409 OFFCURVE",
"28 336 OFFCURVE",
"24 258 CURVE",
"73 258 LINE",
"83 291 OFFCURVE",
"94 324 OFFCURVE",
"109 360 CURVE"
);
}
);
width = 483;
}
);
},
{
glyphname = eight.osf;
layers = (
{
components = (
{
name = eight;
}
);
layerId = "0CED4075-D7BB-4A7E-97B8-19FE9A07C10E";
width = 516;
},
{
layerId = "3B5B530A-BB7C-47AF-9BD0-0E3C29910424";
paths = (
{
closed = 1;
nodes = (
"443 407 OFFCURVE",
"443 483 CURVE SMOOTH",
"443 577 OFFCURVE",
"354 629 OFFCURVE",
"240 629 CURVE SMOOTH",
"140 629 OFFCURVE",
"40 574 OFFCURVE",
"40 467 CURVE SMOOTH",
"40 278 OFFCURVE",
"334 266 OFFCURVE",
"334 126 CURVE SMOOTH",
"334 64 OFFCURVE",
"299 41 OFFCURVE",
"259 41 CURVE SMOOTH",
"188 41 OFFCURVE",
"155 94 OFFCURVE",
"155 154 CURVE SMOOTH",
"155 211 OFFCURVE",
"189 284 OFFCURVE",
"260 316 CURVE",
"197 327 LINE",
"71 287 OFFCURVE",
"22 219 OFFCURVE",
"22 154 CURVE SMOOTH",
"22 44 OFFCURVE",
"129 -12 OFFCURVE",
"242 -12 CURVE SMOOTH",
"355 -12 OFFCURVE",
"463 43 OFFCURVE",
"463 162 CURVE SMOOTH",
"463 355 OFFCURVE",
"163 371 OFFCURVE",
"163 504 CURVE SMOOTH",
"163 549 OFFCURVE",
"191 579 OFFCURVE",
"238 579 CURVE SMOOTH",
"287 579 OFFCURVE",
"320 546 OFFCURVE",
"320 484 CURVE SMOOTH",
"320 430 OFFCURVE",
"286 361 OFFCURVE",
"217 342 CURVE",
"288 327 LINE",
"388 358 OFFCURVE"
);
}
);
width = 488;
}
);
},
{
glyphname = nine.osf;
layers = (
{
components = (
{
name = nine;
}
);
layerId = "0CED4075-D7BB-4A7E-97B8-19FE9A07C10E";
width = 523;
},
{
layerId = "3B5B530A-BB7C-47AF-9BD0-0E3C29910424";
paths = (
{
closed = 1;
nodes = (
"344 155 LINE",
"329 142 OFFCURVE",
"303 123 OFFCURVE",
"265 123 CURVE SMOOTH",
"202 123 OFFCURVE",
"156 201 OFFCURVE",
"156 283 CURVE SMOOTH",
"156 364 OFFCURVE",
"185 410 OFFCURVE",
"228 410 CURVE SMOOTH",
"277 410 OFFCURVE",
"334 358 OFFCURVE",
"334 225 CURVE SMOOTH",
"334 103 OFFCURVE",
"270 -70 OFFCURVE",
"42 -136 CURVE",
"73 -176 LINE",
"378 -100 OFFCURVE",
"474 83 OFFCURVE",
"474 236 CURVE SMOOTH",
"474 363 OFFCURVE",
"399 466 OFFCURVE",
"240 466 CURVE SMOOTH",
"97 466 OFFCURVE",
"19 362 OFFCURVE",
"19 258 CURVE SMOOTH",
"19 161 OFFCURVE",
"83 57 OFFCURVE",
"221 57 CURVE SMOOTH",
"276 57 OFFCURVE",
"313 77 OFFCURVE",
"345 96 CURVE"
);
}
);
width = 522;
}
);
},
{
glyphname = colon;
layers = (
{
components = (
{
name = period;
transform = "{1, 0, 0, 1, 0, 7}";
},
{
name = period;
transform = "{1, 0, 0, 1, 0, 306}";
}
);
layerId = "0CED4075-D7BB-4A7E-97B8-19FE9A07C10E";
width = 255;
},
{
background = {
paths = (
{
closed = 1;
nodes = (
"81 413 OFFCURVE",
"64 410 OFFCURVE",
"47 405 CURVE",
"42 388 OFFCURVE",
"40 371 OFFCURVE",
"40 356 CURVE",
"40 338 OFFCURVE",
"42 322 OFFCURVE",
"47 305 CURVE",
"64 300 OFFCURVE",
"81 296 OFFCURVE",
"97 296 CURVE",
"113 296 OFFCURVE",
"130 300 OFFCURVE",
"146 305 CURVE",
"151 322 OFFCURVE",
"155 338 OFFCURVE",
"155 356 CURVE",
"155 371 OFFCURVE",
"151 388 OFFCURVE",
"146 405 CURVE",
"130 410 OFFCURVE",
"113 413 OFFCURVE",
"97 413 CURVE"
);
},
{
closed = 1;
nodes = (
"81 117 OFFCURVE",
"64 113 OFFCURVE",
"47 108 CURVE",
"42 91 OFFCURVE",
"40 74 OFFCURVE",
"40 58 CURVE",
"40 42 OFFCURVE",
"42 25 OFFCURVE",
"47 9 CURVE",
"64 3 OFFCURVE",
"81 0 OFFCURVE",
"97 0 CURVE",
"113 0 OFFCURVE",
"130 3 OFFCURVE",
"146 9 CURVE",
"151 25 OFFCURVE",
"155 42 OFFCURVE",
"155 58 CURVE",
"155 74 OFFCURVE",
"151 91 OFFCURVE",
"146 108 CURVE",
"130 113 OFFCURVE",
"113 117 OFFCURVE",
"97 117 CURVE"
);
}
);
};
components = (
{
name = period;
transform = "{1, 0, 0, 1, 0, 7}";
},
{
name = period;
transform = "{1, 0, 0, 1, 0, 306}";
}
);
layerId = "3B5B530A-BB7C-47AF-9BD0-0E3C29910424";
width = 257;
}
);
leftKerningGroup = "0";
rightKerningGroup = "0";
unicode = 003A;
},
{
glyphname = semicolon;
layers = (
{
components = (
{
name = comma;
},
{
name = period;
transform = "{1, 0, 0, 1, 1, 306}";
}
);
layerId = "0CED4075-D7BB-4A7E-97B8-19FE9A07C10E";
width = 258;
},
{
background = {
paths = (
{
closed = 1;
nodes = (
"150 117 OFFCURVE",
"130 114 OFFCURVE",
"115 109 CURVE",
"118 94 OFFCURVE",
"120 82 OFFCURVE",
"120 63 CURVE",
"120 -30 OFFCURVE",
"82 -92 OFFCURVE",
"10 -170 CURVE",
"33 -193 LINE",
"177 -79 OFFCURVE",
"224 1 OFFCURVE",
"224 68 CURVE",
"224 82 OFFCURVE",
"223 98 OFFCURVE",
"221 109 CURVE",
"203 115 OFFCURVE",
"190 117 OFFCURVE",
"171 117 CURVE"
);
},
{
closed = 1;
nodes = (
"155 413 OFFCURVE",
"138 410 OFFCURVE",
"121 405 CURVE",
"116 388 OFFCURVE",
"114 371 OFFCURVE",
"114 356 CURVE",
"114 338 OFFCURVE",
"116 322 OFFCURVE",
"121 305 CURVE",
"138 300 OFFCURVE",
"155 296 OFFCURVE",
"171 296 CURVE",
"187 296 OFFCURVE",
"204 300 OFFCURVE",
"221 305 CURVE",
"226 322 OFFCURVE",
"229 338 OFFCURVE",
"229 356 CURVE",
"229 371 OFFCURVE",
"226 388 OFFCURVE",
"221 405 CURVE",
"204 410 OFFCURVE",
"187 413 OFFCURVE",
"171 413 CURVE"
);
}
);
};
components = (
{
name = comma;
},
{
name = period;
transform = "{1, 0, 0, 1, 9, 280}";
}
);
layerId = "3B5B530A-BB7C-47AF-9BD0-0E3C29910424";
width = 304;
}
);
leftKerningGroup = "0";
rightKerningGroup = "0";
unicode = 003B;
},
{
glyphname = less;
layers = (
{
layerId = "0CED4075-D7BB-4A7E-97B8-19FE9A07C10E";
paths = (
{
closed = 1;
nodes = (
"35 310 LINE",
"500 89 LINE",
"500 151 LINE",
"77 351 LINE",
"77 318 LINE",
"500 520 LINE",
"500 580 LINE",
"35 360 LINE"
);
}
);
width = 535;
},
{
layerId = "3B5B530A-BB7C-47AF-9BD0-0E3C29910424";
paths = (
{
closed = 1;
nodes = (
"35 300 LINE",
"530 69 LINE",
"530 151 LINE",
"67 371 LINE",
"67 298 LINE",
"530 520 LINE",
"530 600 LINE",
"35 370 LINE"
);
}
);
width = 565;
}
);
unicode = 003C;
},
{
glyphname = equal;
layers = (
{
layerId = "0CED4075-D7BB-4A7E-97B8-19FE9A07C10E";
paths = (
{
closed = 1;
nodes = (
"355 298 OFFCURVE",
"166 298 OFFCURVE",
"25 301 CURVE",
"25 238 LINE",
"166 241 OFFCURVE",
"355 241 OFFCURVE",
"496 238 CURVE",
"496 301 LINE"
);
},
{
closed = 1;
nodes = (
"355 448 OFFCURVE",
"166 448 OFFCURVE",
"25 451 CURVE",
"25 388 LINE",
"166 391 OFFCURVE",
"355 391 OFFCURVE",
"496 388 CURVE",
"496 451 LINE"
);
}
);
width = 521;
},
{
layerId = "3B5B530A-BB7C-47AF-9BD0-0E3C29910424";
paths = (
{
closed = 1;
nodes = (
"386 298 OFFCURVE",
"185 298 OFFCURVE",
"35 301 CURVE",
"35 218 LINE",
"185 221 OFFCURVE",
"386 221 OFFCURVE",
"536 218 CURVE",
"536 301 LINE"
);
},
{
closed = 1;
nodes = (
"386 468 OFFCURVE",
"185 468 OFFCURVE",
"35 471 CURVE",
"35 388 LINE",
"185 391 OFFCURVE",
"386 391 OFFCURVE",
"536 388 CURVE",
"536 471 LINE"
);
}
);
width = 571;
}
);
unicode = 003D;
},
{
glyphname = question;
layers = (
{
layerId = "0CED4075-D7BB-4A7E-97B8-19FE9A07C10E";
paths = (
{
closed = 1;
nodes = (
"105 721 OFFCURVE",
"56 709 OFFCURVE",
"16 694 CURVE",
"27 647 OFFCURVE",
"36 622 OFFCURVE",
"45 564 CURVE",
"87 564 LINE",
"103 646 LINE",
"137 662 OFFCURVE",
"172 671 OFFCURVE",
"214 671 CURVE SMOOTH",
"221 671 OFFCURVE",
"228 670 OFFCURVE",
"235 670 CURVE",
"285 649 OFFCURVE",
"315 604 OFFCURVE",
"315 533 CURVE SMOOTH",
"315 425 OFFCURVE",
"258 356 OFFCURVE",
"136 356 CURVE SMOOTH",
"123 356 OFFCURVE",
"109 356 OFFCURVE",
"94 358 CURVE",
"97 299 OFFCURVE",
"105 208 OFFCURVE",
"109 151 CURVE",
"161 151 LINE",
"161 175 OFFCURVE",
"164 242 OFFCURVE",
"166 278 CURVE",
"322 278 OFFCURVE",
"399 398 OFFCURVE",
"399 512 CURVE SMOOTH",
"399 618 OFFCURVE",
"326 721 OFFCURVE",
"171 721 CURVE SMOOTH"
);
},
{
closed = 1;
nodes = (
"119 92 OFFCURVE",
"104 88 OFFCURVE",
"89 84 CURVE",
"86 69 OFFCURVE",
"84 55 OFFCURVE",
"84 40 CURVE SMOOTH",
"84 24 OFFCURVE",
"86 10 OFFCURVE",
"89 -6 CURVE",
"104 -10 OFFCURVE",
"119 -14 OFFCURVE",
"135 -14 CURVE SMOOTH",
"150 -14 OFFCURVE",
"164 -10 OFFCURVE",
"180 -6 CURVE",
"183 10 OFFCURVE",
"186 24 OFFCURVE",
"186 40 CURVE SMOOTH",
"186 55 OFFCURVE",
"183 69 OFFCURVE",
"180 84 CURVE",
"164 88 OFFCURVE",
"150 92 OFFCURVE",
"135 92 CURVE SMOOTH"
);
}
);
width = 464;
},
{
background = {
paths = (
{
closed = 1;
nodes = (
"116 721 OFFCURVE",
"67 709 OFFCURVE",
"27 694 CURVE",
"38 647 OFFCURVE",
"47 622 OFFCURVE",
"56 564 CURVE",
"98 564 LINE",
"114 646 LINE",
"148 662 OFFCURVE",
"183 671 OFFCURVE",
"225 671 CURVE SMOOTH",
"232 671 OFFCURVE",
"239 670 OFFCURVE",
"246 670 CURVE",
"296 649 OFFCURVE",
"326 604 OFFCURVE",
"326 533 CURVE SMOOTH",
"326 425 OFFCURVE",
"269 356 OFFCURVE",
"147 356 CURVE SMOOTH",
"134 356 OFFCURVE",
"120 356 OFFCURVE",
"105 358 CURVE",
"108 299 OFFCURVE",
"116 208 OFFCURVE",
"120 151 CURVE",
"172 151 LINE",
"172 175 OFFCURVE",
"175 242 OFFCURVE",
"177 278 CURVE",
"333 278 OFFCURVE",
"410 398 OFFCURVE",
"410 512 CURVE SMOOTH",
"410 618 OFFCURVE",
"337 721 OFFCURVE",
"182 721 CURVE SMOOTH"
);
},
{
closed = 1;
nodes = (
"130 92 OFFCURVE",
"115 88 OFFCURVE",
"100 84 CURVE",
"97 69 OFFCURVE",
"95 55 OFFCURVE",
"95 40 CURVE SMOOTH",
"95 24 OFFCURVE",
"97 10 OFFCURVE",
"100 -6 CURVE",
"115 -10 OFFCURVE",
"130 -14 OFFCURVE",
"146 -14 CURVE SMOOTH",
"161 -14 OFFCURVE",
"175 -10 OFFCURVE",
"191 -6 CURVE",
"194 10 OFFCURVE",
"197 24 OFFCURVE",
"197 40 CURVE SMOOTH",
"197 55 OFFCURVE",
"194 69 OFFCURVE",
"191 84 CURVE",
"175 88 OFFCURVE",
"161 92 OFFCURVE",
"146 92 CURVE SMOOTH"
);
}
);
};
layerId = "3B5B530A-BB7C-47AF-9BD0-0E3C29910424";
paths = (
{
closed = 1;
nodes = (
"115 721 OFFCURVE",
"52 707 OFFCURVE",
"5 687 CURVE",
"20 629 OFFCURVE",
"32 578 OFFCURVE",
"41 520 CURVE",
"91 520 LINE",
"111 625 LINE",
"145 644 OFFCURVE",
"183 657 OFFCURVE",
"233 657 CURVE SMOOTH",
"241 657 OFFCURVE",
"248 657 OFFCURVE",
"256 656 CURVE",
"280 622 OFFCURVE",
"294 583 OFFCURVE",
"294 533 CURVE SMOOTH",
"294 456 OFFCURVE",
"254 397 OFFCURVE",
"142 397 CURVE SMOOTH",
"110 397 OFFCURVE",
"98 397 OFFCURVE",
"86 398 CURVE",
"101 299 OFFCURVE",
"108 248 OFFCURVE",
"115 171 CURVE",
"177 171 LINE",
"179 215 OFFCURVE",
"180 242 OFFCURVE",
"183 272 CURVE",
"336 278 OFFCURVE",
"413 391 OFFCURVE",
"413 502 CURVE SMOOTH",
"413 614 OFFCURVE",
"339 721 OFFCURVE",
"188 721 CURVE SMOOTH"
);
},
{
closed = 1;
nodes = (
"131 117 OFFCURVE",
"114 114 OFFCURVE",
"93 109 CURVE",
"90 89 OFFCURVE",
"86 73 OFFCURVE",
"86 53 CURVE SMOOTH",
"86 34 OFFCURVE",
"90 17 OFFCURVE",
"93 -2 CURVE",
"114 -5 OFFCURVE",
"131 -10 OFFCURVE",
"147 -10 CURVE SMOOTH",
"167 -10 OFFCURVE",
"184 -5 OFFCURVE",
"204 -2 CURVE",
"208 17 OFFCURVE",
"210 34 OFFCURVE",
"210 53 CURVE SMOOTH",
"210 73 OFFCURVE",
"208 89 OFFCURVE",
"204 109 CURVE",
"184 114 OFFCURVE",
"167 117 OFFCURVE",
"147 117 CURVE SMOOTH"
);
}
);
width = 458;
}
);
leftKerningGroup = "0";
rightKerningGroup = "0";
unicode = 003F;
},
{
glyphname = at;
layers = (
{
layerId = "0CED4075-D7BB-4A7E-97B8-19FE9A07C10E";
paths = (
{
closed = 1;
nodes = (
"195 -116 OFFCURVE",
"374 -116 CURVE SMOOTH",
"458 -116 OFFCURVE",
"545 -90 OFFCURVE",
"622 -35 CURVE",
"609 -10 LINE",
"536 -55 OFFCURVE",
"455 -78 OFFCURVE",
"379 -78 CURVE SMOOTH",
"218 -78 OFFCURVE",
"78 23 OFFCURVE",
"78 215 CURVE SMOOTH",
"78 365 OFFCURVE",
"177 513 OFFCURVE",
"375 513 CURVE SMOOTH",
"567 513 OFFCURVE",
"663 365 OFFCURVE",
"663 234 CURVE SMOOTH",
"663 144 OFFCURVE",
"604 62 OFFCURVE",
"522 51 CURVE",
"495 70 OFFCURVE",
"488 98 OFFCURVE",
"488 135 CURVE SMOOTH",
"488 206 OFFCURVE",
"524 321 OFFCURVE",
"553 397 CURVE",
"526 409 OFFCURVE",
"487 424 OFFCURVE",
"465 424 CURVE",
"456 374 OFFCURVE",
"407 176 OFFCURVE",
"407 135 CURVE SMOOTH",
"407 86 OFFCURVE",
"429 22 OFFCURVE",
"491 12 CURVE",
"616 21 OFFCURVE",
"700 123 OFFCURVE",
"700 243 CURVE SMOOTH",
"700 390 OFFCURVE",
"596 549 OFFCURVE",
"376 549 CURVE SMOOTH",
"147 549 OFFCURVE",
"33 382 OFFCURVE",
"33 215 CURVE SMOOTH",
"33 3 OFFCURVE"
);
},
{
closed = 1;
nodes = (
"372 16 OFFCURVE",
"422 101 OFFCURVE",
"439 196 CURVE",
"435 287 LINE",
"409 158 OFFCURVE",
"368 68 OFFCURVE",
"314 68 CURVE SMOOTH",
"274 68 OFFCURVE",
"256 118 OFFCURVE",
"256 179 CURVE SMOOTH",
"256 263 OFFCURVE",
"291 368 OFFCURVE",
"353 394 CURVE",
"378 394 OFFCURVE",
"409 368 OFFCURVE",
"428 345 CURVE",
"439 386 LINE",
"419 410 OFFCURVE",
"387 432 OFFCURVE",
"348 432 CURVE SMOOTH",
"232 432 OFFCURVE",
"166 299 OFFCURVE",
"166 183 CURVE SMOOTH",
"166 94 OFFCURVE",
"205 16 OFFCURVE",
"290 16 CURVE SMOOTH"
);
}
);
width = 733;
},
{
background = {
paths = (
{
closed = 1;
nodes = (
"191 -36 OFFCURVE",
"370 -36 CURVE SMOOTH",
"454 -36 OFFCURVE",
"541 -10 OFFCURVE",
"618 45 CURVE",
"605 70 LINE",
"532 25 OFFCURVE",
"451 2 OFFCURVE",
"375 2 CURVE SMOOTH",
"214 2 OFFCURVE",
"74 103 OFFCURVE",
"74 295 CURVE SMOOTH",
"74 445 OFFCURVE",
"173 593 OFFCURVE",
"371 593 CURVE SMOOTH",
"563 593 OFFCURVE",
"659 445 OFFCURVE",
"659 314 CURVE SMOOTH",
"659 224 OFFCURVE",
"600 142 OFFCURVE",
"518 131 CURVE",
"491 150 OFFCURVE",
"484 178 OFFCURVE",
"484 215 CURVE SMOOTH",
"484 286 OFFCURVE",
"520 401 OFFCURVE",
"549 477 CURVE",
"522 489 OFFCURVE",
"483 504 OFFCURVE",
"461 504 CURVE",
"452 454 OFFCURVE",
"403 256 OFFCURVE",
"403 215 CURVE SMOOTH",
"403 166 OFFCURVE",
"425 102 OFFCURVE",
"487 92 CURVE",
"612 101 OFFCURVE",
"696 203 OFFCURVE",
"696 323 CURVE SMOOTH",
"696 470 OFFCURVE",
"592 629 OFFCURVE",
"372 629 CURVE SMOOTH",
"143 629 OFFCURVE",
"29 462 OFFCURVE",
"29 295 CURVE SMOOTH",
"29 83 OFFCURVE"
);
},
{
closed = 1;
nodes = (
"368 96 OFFCURVE",
"418 181 OFFCURVE",
"435 276 CURVE",
"431 367 LINE",
"405 238 OFFCURVE",
"364 148 OFFCURVE",
"310 148 CURVE SMOOTH",
"270 148 OFFCURVE",
"252 198 OFFCURVE",
"252 259 CURVE SMOOTH",
"252 343 OFFCURVE",
"287 448 OFFCURVE",
"349 474 CURVE",
"374 474 OFFCURVE",
"405 448 OFFCURVE",
"424 425 CURVE",
"435 466 LINE",
"415 490 OFFCURVE",
"383 512 OFFCURVE",
"344 512 CURVE SMOOTH",
"228 512 OFFCURVE",
"162 379 OFFCURVE",
"162 263 CURVE SMOOTH",
"162 174 OFFCURVE",
"201 96 OFFCURVE",
"286 96 CURVE SMOOTH"
);
}
);
};
layerId = "3B5B530A-BB7C-47AF-9BD0-0E3C29910424";
paths = (
{
closed = 1;
nodes = (
"198 -134 OFFCURVE",
"365 -134 CURVE SMOOTH",
"453 -134 OFFCURVE",
"548 -110 OFFCURVE",
"633 -53 CURVE",
"615 -19 LINE",
"537 -67 OFFCURVE",
"452 -88 OFFCURVE",
"372 -88 CURVE SMOOTH",
"232 -88 OFFCURVE",
"84 1 OFFCURVE",
"84 187 CURVE SMOOTH",
"84 404 OFFCURVE",
"225 495 OFFCURVE",
"369 495 CURVE SMOOTH",
"533 495 OFFCURVE",
"662 402 OFFCURVE",
"662 222 CURVE SMOOTH",
"662 124 OFFCURVE",
"614 62 OFFCURVE",
"539 42 CURVE",
"520 60 OFFCURVE",
"518 88 OFFCURVE",
"518 115 CURVE SMOOTH",
"518 166 OFFCURVE",
"547 280 OFFCURVE",
"587 374 CURVE",
"560 389 OFFCURVE",
"506 414 OFFCURVE",
"465 414 CURVE",
"456 364 OFFCURVE",
"403 156 OFFCURVE",
"403 115 CURVE SMOOTH",
"403 66 OFFCURVE",
"434 -2 OFFCURVE",
"527 -8 CURVE",
"654 21 OFFCURVE",
"715 123 OFFCURVE",
"715 231 CURVE SMOOTH",
"715 380 OFFCURVE",
"601 541 OFFCURVE",
"375 541 CURVE SMOOTH",
"200 541 OFFCURVE",
"25 423 OFFCURVE",
"25 187 CURVE SMOOTH",
"25 -22 OFFCURVE"
);
},
{
closed = 1;
nodes = (
"358 -4 OFFCURVE",
"418 91 OFFCURVE",
"444 176 CURVE",
"442 312 LINE",
"416 183 OFFCURVE",
"363 72 OFFCURVE",
"309 72 CURVE SMOOTH",
"280 72 OFFCURVE",
"266 111 OFFCURVE",
"266 161 CURVE SMOOTH",
"266 238 OFFCURVE",
"297 341 OFFCURVE",
"350 372 CURVE",
"375 372 OFFCURVE",
"399 344 OFFCURVE",
"418 321 CURVE",
"432 377 LINE",
"412 401 OFFCURVE",
"377 422 OFFCURVE",
"337 422 CURVE SMOOTH",
"212 422 OFFCURVE",
"144 287 OFFCURVE",
"144 169 CURVE SMOOTH",
"144 78 OFFCURVE",
"185 -4 OFFCURVE",
"271 -4 CURVE SMOOTH"
);
}
);
width = 740;
}
);
leftKerningGroup = "0";
rightKerningGroup = "0";
unicode = 0040;
},
{
glyphname = A;
layers = (
{
anchors = (
{
name = ogonek;
position = "{552, 3}";
},
{
name = top;
position = "{342, 660}";
}
);
layerId = "0CED4075-D7BB-4A7E-97B8-19FE9A07C10E";
paths = (
{
closed = 1;
nodes = (
"335 666 OFFCURVE",
"302 567 OFFCURVE",
"307 541 CURVE",
"376 376 OFFCURVE",
"462 152 OFFCURVE",
"495 50 CURVE",
"416 30 LINE",
"427 0 LINE",
"463 2 OFFCURVE",
"523 3 OFFCURVE",
"552 3 CURVE SMOOTH",
"593 3 OFFCURVE",
"630 2 OFFCURVE",
"671 0 CURVE",
"681 30 LINE",
"604 50 LINE",
"528 227 OFFCURVE",
"436 446 OFFCURVE",
"357 666 CURVE"
);
},
{
closed = 1;
nodes = (
"320 666 LINE",
"253 469 OFFCURVE",
"125 166 OFFCURVE",
"73 50 CURVE",
"-5 30 LINE",
"5 0 LINE",
"41 2 OFFCURVE",
"70 3 OFFCURVE",
"105 3 CURVE SMOOTH",
"141 3 OFFCURVE",
"165 2 OFFCURVE",
"208 0 CURVE",
"218 30 LINE",
"145 50 LINE",
"164 125 OFFCURVE",
"266 398 OFFCURVE",
"323 538 CURVE",
"339 610 OFFCURVE",
"343 630 OFFCURVE",
"357 666 CURVE"
);
},
{
closed = 1;
nodes = (
"410 224 OFFCURVE",
"358 224 OFFCURVE",
"315 224 CURVE SMOOTH",
"270 224 OFFCURVE",
"229 224 OFFCURVE",
"177 229 CURVE",
"177 168 LINE",
"229 173 OFFCURVE",
"270 173 OFFCURVE",
"315 173 CURVE SMOOTH",
"358 173 OFFCURVE",
"410 173 OFFCURVE",
"467 168 CURVE",
"467 230 LINE"
);
}
);
width = 683;
},
{
anchors = (
{
name = ogonek;
position = "{569, 10}";
},
{
name = top;
position = "{358, 661}";
}
);
background = {
paths = (
{
closed = 1;
nodes = (
"364 668 OFFCURVE",
"331 567 OFFCURVE",
"336 541 CURVE",
"405 376 OFFCURVE",
"491 152 OFFCURVE",
"531 50 CURVE",
"445 30 LINE",
"456 0 LINE",
"492 2 OFFCURVE",
"552 3 OFFCURVE",
"581 3 CURVE",
"622 3 OFFCURVE",
"659 2 OFFCURVE",
"700 0 CURVE",
"710 30 LINE",
"633 50 LINE",
"557 227 OFFCURVE",
"465 448 OFFCURVE",
"386 668 CURVE"
);
},
{
closed = 1;
nodes = (
"349 668 LINE",
"282 475 OFFCURVE",
"157 166 OFFCURVE",
"103 50 CURVE",
"24 30 LINE",
"34 0 LINE",
"70 2 OFFCURVE",
"91 3 OFFCURVE",
"126 3 CURVE",
"162 3 OFFCURVE",
"194 2 OFFCURVE",
"237 0 CURVE",
"247 30 LINE",
"166 50 LINE",
"196 125 OFFCURVE",
"302 398 OFFCURVE",
"352 538 CURVE",
"368 610 OFFCURVE",
"372 632 OFFCURVE",
"386 668 CURVE"
);
},
{
closed = 1;
nodes = (
"439 234 OFFCURVE",
"387 234 OFFCURVE",
"344 234 CURVE",
"299 234 OFFCURVE",
"258 234 OFFCURVE",
"206 239 CURVE",
"206 178 LINE",
"258 183 OFFCURVE",
"299 183 OFFCURVE",
"344 183 CURVE",
"387 183 OFFCURVE",
"439 183 OFFCURVE",
"496 178 CURVE",
"496 240 LINE"
);
}
);
};
layerId = "3B5B530A-BB7C-47AF-9BD0-0E3C29910424";
paths = (
{
closed = 1;
nodes = (
"299 481 LINE",
"368 316 OFFCURVE",
"432 161 OFFCURVE",
"472 59 CURVE",
"394 38 LINE",
"408 0 LINE",
"444 2 OFFCURVE",
"525 3 OFFCURVE",
"561 3 CURVE SMOOTH",
"602 3 OFFCURVE",
"659 2 OFFCURVE",
"700 0 CURVE",
"713 38 LINE",
"635 59 LINE",
"559 236 OFFCURVE",
"463 444 OFFCURVE",
"384 664 CURVE"
);
},
{
closed = 1;
nodes = (
"333 664 LINE",
"266 471 OFFCURVE",
"140 175 OFFCURVE",
"76 59 CURVE",
"2 38 LINE",
"15 0 LINE",
"51 2 OFFCURVE",
"84 3 OFFCURVE",
"119 3 CURVE SMOOTH",
"155 3 OFFCURVE",
"194 2 OFFCURVE",
"237 0 CURVE",
"250 38 LINE",
"176 59 LINE",
"206 177 OFFCURVE",
"292 398 OFFCURVE",
"342 538 CURVE",
"358 610 OFFCURVE",
"370 628 OFFCURVE",
"384 664 CURVE"
);
},
{
closed = 1;
nodes = (
"420 217 OFFCURVE",
"368 215 OFFCURVE",
"325 215 CURVE SMOOTH",
"280 215 OFFCURVE",
"239 217 OFFCURVE",
"187 224 CURVE",
"187 147 LINE",
"239 154 OFFCURVE",
"280 154 OFFCURVE",
"325 154 CURVE SMOOTH",
"368 154 OFFCURVE",
"420 154 OFFCURVE",
"477 147 CURVE",
"477 225 LINE"
);
}
);
width = 715;
}
);
leftKerningGroup = "0";
rightKerningGroup = "0";
unicode = 0041;
},
{
glyphname = B;
layers = (
{
anchors = (
{
name = bottom;
position = "{269, 0}";
},
{
name = top;
position = "{269, 660}";
}
);
layerId = "0CED4075-D7BB-4A7E-97B8-19FE9A07C10E";
paths = (
{
closed = 1;
nodes = (
"78 1 OFFCURVE",
"129 3 OFFCURVE",
"158 3 CURVE SMOOTH",
"205 3 OFFCURVE",
"191 22 OFFCURVE",
"201 32 CURVE",
"204 51 LINE",
"202 121 OFFCURVE",
"202 183 OFFCURVE",
"202 348 CURVE SMOOTH",
"202 348 OFFCURVE",
"203 453 OFFCURVE",
"204 602 CURVE",
"223 607 OFFCURVE",
"249 611 OFFCURVE",
"276 611 CURVE SMOOTH",
"348 611 OFFCURVE",
"388 560 OFFCURVE",
"388 501 CURVE SMOOTH",
"388 433 OFFCURVE",
"355 398 OFFCURVE",
"318 381 CURVE",
"306 379 OFFCURVE",
"291 379 OFFCURVE",
"276 379 CURVE SMOOTH",
"244 379 OFFCURVE",
"208 382 OFFCURVE",
"175 389 CURVE",
"175 345 LINE",
"185 340 OFFCURVE",
"198 339 OFFCURVE",
"215 339 CURVE SMOOTH",
"236 339 OFFCURVE",
"263 341 OFFCURVE",
"295 341 CURVE SMOOTH",
"406 341 OFFCURVE",
"486 426 OFFCURVE",
"486 518 CURVE SMOOTH",
"486 587 OFFCURVE",
"436 660 OFFCURVE",
"302 660 CURVE SMOOTH",
"249 660 OFFCURVE",
"207 656 OFFCURVE",
"155 656 CURVE SMOOTH",
"124 656 OFFCURVE",
"74 659 OFFCURVE",
"33 660 CURVE",
"23 629 LINE",
"111 608 LINE",
"115 539 OFFCURVE",
"116 462 OFFCURVE",
"116 339 CURVE SMOOTH",
"116 236 OFFCURVE",
"114 165 OFFCURVE",
"111 51 CURVE",
"23 30 LINE",
"33 0 LINE"
);
},
{
closed = 1;
nodes = (
"486 -1 OFFCURVE",
"544 97 OFFCURVE",
"544 190 CURVE SMOOTH",
"544 282 OFFCURVE",
"482 366 OFFCURVE",
"337 366 CURVE SMOOTH",
"328 366 OFFCURVE",
"286 369 OFFCURVE",
"247 369 CURVE SMOOTH",
"220 369 OFFCURVE",
"193 367 OFFCURVE",
"178 363 CURVE",
"173 323 LINE",
"206 327 OFFCURVE",
"235 329 OFFCURVE",
"270 329 CURVE SMOOTH",
"385 329 OFFCURVE",
"443 273 OFFCURVE",
"443 191 CURVE SMOOTH",
"443 115 OFFCURVE",
"416 67 OFFCURVE",
"349 49 CURVE",
"310 49 OFFCURVE",
"238 52 OFFCURVE",
"192 66 CURVE",
"185 47 OFFCURVE",
"146 3 OFFCURVE",
"151 3 CURVE SMOOTH",
"206 3 OFFCURVE",
"241 -1 OFFCURVE",
"298 -1 CURVE SMOOTH"
);
}
);
width = 579;
},
{
anchors = (
{
name = bottom;
position = "{309, 0}";
},
{
name = top;
position = "{309, 660}";
}
);
background = {
paths = (
{
closed = 1;
nodes = (
"513 426 OFFCURVE",
"513 518 CURVE",
"513 587 OFFCURVE",
"463 660 OFFCURVE",
"329 660 CURVE",
"276 660 OFFCURVE",
"234 656 OFFCURVE",
"182 656 CURVE",
"151 656 OFFCURVE",
"101 659 OFFCURVE",
"60 660 CURVE",
"50 629 LINE",
"138 608 LINE",
"146 453 OFFCURVE",
"143 256 OFFCURVE",
"138 51 CURVE",
"50 30 LINE",
"60 0 LINE",
"101 1 OFFCURVE",
"148 4 OFFCURVE",
"178 3 CURVE",
"233 1 OFFCURVE",
"218 21 OFFCURVE",
"228 32 CURVE",
"231 51 LINE",
"226 242 OFFCURVE",
"230 366 OFFCURVE",
"231 602 CURVE",
"250 607 OFFCURVE",
"276 611 OFFCURVE",
"303 611 CURVE",
"375 611 OFFCURVE",
"415 560 OFFCURVE",
"415 501 CURVE",
"415 433 OFFCURVE",
"382 398 OFFCURVE",
"345 381 CURVE",
"306 376 OFFCURVE",
"250 379 OFFCURVE",
"202 389 CURVE",
"202 345 LINE",
"223 335 OFFCURVE",
"263 341 OFFCURVE",
"322 341 CURVE",
"433 341 OFFCURVE"
);
},
{
closed = 1;
nodes = (
"233 327 OFFCURVE",
"262 329 OFFCURVE",
"297 329 CURVE",
"412 329 OFFCURVE",
"470 273 OFFCURVE",
"470 191 CURVE",
"470 115 OFFCURVE",
"443 67 OFFCURVE",
"376 49 CURVE",
"320 46 OFFCURVE",
"266 52 OFFCURVE",
"219 66 CURVE",
"212 47 OFFCURVE",
"173 3 OFFCURVE",
"178 3 CURVE",
"233 3 OFFCURVE",
"268 -1 OFFCURVE",
"325 -1 CURVE",
"513 -1 OFFCURVE",
"571 97 OFFCURVE",
"571 190 CURVE",
"571 282 OFFCURVE",
"509 366 OFFCURVE",
"364 366 CURVE",
"348 366 OFFCURVE",
"242 374 OFFCURVE",
"205 363 CURVE",
"200 323 LINE"
);
}
);
};
layerId = "3B5B530A-BB7C-47AF-9BD0-0E3C29910424";
paths = (
{
closed = 1;
nodes = (
"74 1 OFFCURVE",
"118 4 OFFCURVE",
"178 3 CURVE",
"261 1 OFFCURVE",
"246 32 OFFCURVE",
"256 43 CURVE",
"259 62 LINE",
"257 132 OFFCURVE",
"257 183 OFFCURVE",
"257 344 CURVE SMOOTH",
"257 344 OFFCURVE",
"258 453 OFFCURVE",
"259 592 CURVE",
"274 598 OFFCURVE",
"288 601 OFFCURVE",
"308 601 CURVE SMOOTH",
"372 601 OFFCURVE",
"401 546 OFFCURVE",
"401 489 CURVE SMOOTH",
"401 446 OFFCURVE",
"384 403 OFFCURVE",
"348 382 CURVE",
"323 380 OFFCURVE",
"336 380 OFFCURVE",
"301 380 CURVE SMOOTH",
"269 380 OFFCURVE",
"243 383 OFFCURVE",
"202 390 CURVE",
"202 341 LINE",
"212 336 OFFCURVE",
"253 335 OFFCURVE",
"270 335 CURVE SMOOTH",
"291 335 OFFCURVE",
"339 337 OFFCURVE",
"331 337 CURVE",
"456 337 OFFCURVE",
"546 412 OFFCURVE",
"546 504 CURVE SMOOTH",
"546 583 OFFCURVE",
"496 660 OFFCURVE",
"362 660 CURVE SMOOTH",
"309 660 OFFCURVE",
"242 656 OFFCURVE",
"182 656 CURVE SMOOTH",
"121 656 OFFCURVE",
"73 657 OFFCURVE",
"30 660 CURVE",
"20 621 LINE",
"108 597 LINE",
"112 528 OFFCURVE",
"113 462 OFFCURVE",
"113 379 CURVE SMOOTH",
"113 276 OFFCURVE",
"111 173 OFFCURVE",
"108 59 CURVE",
"20 38 LINE",
"33 0 LINE"
);
},
{
closed = 1;
nodes = (
"524 -1 OFFCURVE",
"604 81 OFFCURVE",
"604 183 CURVE SMOOTH",
"604 316 OFFCURVE",
"495 367 OFFCURVE",
"336 367 CURVE SMOOTH",
"299 367 OFFCURVE",
"247 364 OFFCURVE",
"205 359 CURVE",
"200 313 LINE",
"253 320 OFFCURVE",
"290 322 OFFCURVE",
"305 322 CURVE SMOOTH",
"406 322 OFFCURVE",
"455 250 OFFCURVE",
"455 180 CURVE SMOOTH",
"455 125 OFFCURVE",
"425 71 OFFCURVE",
"348 53 CURVE",
"319 53 OFFCURVE",
"290 57 OFFCURVE",
"247 70 CURVE",
"240 51 OFFCURVE",
"173 3 OFFCURVE",
"178 3 CURVE",
"261 3 OFFCURVE",
"300 -1 OFFCURVE",
"347 -1 CURVE SMOOTH"
);
}
);
width = 644;
}
);
leftKerningGroup = "0";
rightKerningGroup = "0";
unicode = 0042;
},
{
glyphname = C;
layers = (
{
layerId = "0CED4075-D7BB-4A7E-97B8-19FE9A07C10E";
paths = (
{
closed = 1;
nodes = (
"429 -7 OFFCURVE",
"511 30 OFFCURVE",
"583 111 CURVE",
"554 147 LINE",
"493 80 OFFCURVE",
"433 49 OFFCURVE",
"361 49 CURVE SMOOTH",
"235 49 OFFCURVE",
"141 158 OFFCURVE",
"141 340 CURVE SMOOTH",
"141 447 OFFCURVE",
"184 575 OFFCURVE",
"288 614 CURVE",
"362 614 OFFCURVE",
"403 603 OFFCURVE",
"473 562 CURVE",
"493 454 LINE",
"536 454 LINE",
"545 509 OFFCURVE",
"554 556 OFFCURVE",
"569 614 CURVE",
"494 652 OFFCURVE",
"418 665 OFFCURVE",
"356 665 CURVE SMOOTH",
"178 665 OFFCURVE",
"40 556 OFFCURVE",
"40 318 CURVE SMOOTH",
"40 115 OFFCURVE",
"174 -7 OFFCURVE",
"336 -7 CURVE SMOOTH"
);
}
);
width = 618;
},
{
anchors = (
{
name = bottom;
position = "{361, 0}";
},
{
name = top;
position = "{369, 660}";
}
);
layerId = "3B5B530A-BB7C-47AF-9BD0-0E3C29910424";
paths = (
{
closed = 1;
nodes = (
"508 99 OFFCURVE",
"461 71 OFFCURVE",
"388 71 CURVE SMOOTH",
"269 71 OFFCURVE",
"181 180 OFFCURVE",
"181 358 CURVE SMOOTH",
"181 468 OFFCURVE",
"211 564 OFFCURVE",
"292 608 CURVE",
"366 608 OFFCURVE",
"440 595 OFFCURVE",
"492 556 CURVE",
"512 440 LINE",
"570 440 LINE",
"580 499 OFFCURVE",
"594 560 OFFCURVE",
"607 618 CURVE",
"534 653 OFFCURVE",
"449 671 OFFCURVE",
"365 671 CURVE SMOOTH",
"145 671 OFFCURVE",
"40 503 OFFCURVE",
"40 335 CURVE SMOOTH",
"40 135 OFFCURVE",
"167 -5 OFFCURVE",
"358 -5 CURVE SMOOTH",
"460 -5 OFFCURVE",
"532 28 OFFCURVE",
"616 106 CURVE",
"578 156 LINE"
);
}
);
width = 651;
}
);
leftKerningGroup = "0";
rightKerningGroup = "0";
unicode = 0043;
},
{
glyphname = D;
layers = (
{
layerId = "0CED4075-D7BB-4A7E-97B8-19FE9A07C10E";
paths = (
{
closed = 1;
nodes = (
"121 656 OFFCURVE",
"92 657 OFFCURVE",
"33 660 CURVE",
"23 629 LINE",
"111 608 LINE",
"115 539 OFFCURVE",
"116 424 OFFCURVE",
"116 343 CURVE SMOOTH",
"116 242 OFFCURVE",
"114 171 OFFCURVE",
"111 51 CURVE",
"23 30 LINE",
"33 0 LINE",
"74 1 OFFCURVE",
"120 4 OFFCURVE",
"155 3 CURVE SMOOTH",
"208 1 OFFCURVE",
"225 2 OFFCURVE",
"260 0 CURVE",
"271 30 LINE",
"204 51 LINE",
"202 132 OFFCURVE",
"202 249 OFFCURVE",
"202 342 CURVE SMOOTH",
"202 420 OFFCURVE",
"203 469 OFFCURVE",
"204 613 CURVE",
"271 629 LINE",
"160 656 LINE"
);
},
{
closed = 1;
nodes = (
"171 634 LINE",
"203 595 LINE",
"243 606 OFFCURVE",
"260 611 OFFCURVE",
"311 611 CURVE SMOOTH",
"467 611 OFFCURVE",
"549 458 OFFCURVE",
"549 326 CURVE SMOOTH",
"549 213 OFFCURVE",
"498 92 OFFCURVE",
"388 51 CURVE",
"308 48 OFFCURVE",
"256 57 OFFCURVE",
"203 72 CURVE",
"155 3 LINE",
"222 3 OFFCURVE",
"277 -4 OFFCURVE",
"312 -4 CURVE SMOOTH",
"495 -4 OFFCURVE",
"649 99 OFFCURVE",
"649 334 CURVE SMOOTH",
"649 536 OFFCURVE",
"514 664 OFFCURVE",
"329 660 CURVE SMOOTH",
"159 656 OFFCURVE",
"237 656 OFFCURVE",
"160 656 CURVE"
);
}
);
width = 699;
},
{
anchors = (
{
name = center;
position = "{187, 324}";
},
{
name = top;
position = "{345, 659}";
}
);
background = {
anchors = (
{
name = ogonek;
position = "{341, 10}";
},
{
name = top;
position = "{210, 660}";
}
);
paths = (
{
closed = 1;
nodes = (
"144 656 OFFCURVE",
"115 657 OFFCURVE",
"56 660 CURVE",
"46 629 LINE",
"134 608 LINE",
"142 453 OFFCURVE",
"139 267 OFFCURVE",
"134 51 CURVE",
"46 30 LINE",
"56 0 LINE",
"97 1 OFFCURVE",
"143 4 OFFCURVE",
"184 3 CURVE",
"237 2 OFFCURVE",
"254 2 OFFCURVE",
"289 0 CURVE",
"300 30 LINE",
"233 51 LINE",
"228 271 OFFCURVE",
"232 385 OFFCURVE",
"233 613 CURVE",
"300 629 LINE",
"189 656 LINE"
);
},
{
closed = 1;
nodes = (
"200 634 LINE",
"232 595 LINE",
"272 606 OFFCURVE",
"289 611 OFFCURVE",
"340 611 CURVE",
"496 611 OFFCURVE",
"573 458 OFFCURVE",
"573 326 CURVE",
"573 213 OFFCURVE",
"527 92 OFFCURVE",
"417 51 CURVE",
"337 48 OFFCURVE",
"285 57 OFFCURVE",
"232 72 CURVE",
"184 3 LINE",
"251 3 OFFCURVE",
"306 -4 OFFCURVE",
"341 -4 CURVE",
"524 -4 OFFCURVE",
"684 99 OFFCURVE",
"684 334 CURVE",
"684 536 OFFCURVE",
"543 664 OFFCURVE",
"358 660 CURVE",
"188 656 OFFCURVE",
"266 656 OFFCURVE",
"189 656 CURVE"
);
},
{
closed = 1;
nodes = (
"301 658 OFFCURVE",
"243 656 OFFCURVE",
"189 656 CURVE SMOOTH",
"127 654 OFFCURVE",
"72 657 OFFCURVE",
"30 660 CURVE",
"18 621 LINE",
"109 595 LINE",
"116 367 OFFCURVE",
"115 278 OFFCURVE",
"109 62 CURVE",
"17 37 LINE",
"30 0 LINE",
"71 1 OFFCURVE",
"123 3 OFFCURVE",
"185 3 CURVE SMOOTH",
"249 3 OFFCURVE",
"301 2 OFFCURVE",
"337 0 CURVE",
"348 37 LINE",
"259 62 LINE",
"257 281 OFFCURVE",
"258 367 OFFCURVE",
"259 595 CURVE",
"348 621 LINE",
"337 660 LINE"
);
}
);
};
layerId = "3B5B530A-BB7C-47AF-9BD0-0E3C29910424";
paths = (
{
closed = 1;
nodes = (
"118 656 OFFCURVE",
"92 657 OFFCURVE",
"33 660 CURVE",
"21 621 LINE",
"109 597 LINE",
"112 533 OFFCURVE",
"114 446 OFFCURVE",
"114 356 CURVE SMOOTH",
"114 277 OFFCURVE",
"111 185 OFFCURVE",
"108 58 CURVE",
"20 38 LINE",
"33 0 LINE",
"74 1 OFFCURVE",
"117 4 OFFCURVE",
"184 3 CURVE",
"237 2 OFFCURVE",
"254 3 OFFCURVE",
"289 1 CURVE",
"300 30 LINE",
"259 73 LINE",
"257 163 OFFCURVE",
"257 258 OFFCURVE",
"257 356 CURVE SMOOTH",
"257 435 OFFCURVE",
"257 520 OFFCURVE",
"258 596 CURVE",
"282 603 OFFCURVE",
"302 607 OFFCURVE",
"333 607 CURVE SMOOTH",
"454 607 OFFCURVE",
"523 461 OFFCURVE",
"523 315 CURVE SMOOTH",
"523 210 OFFCURVE",
"487 105 OFFCURVE",
"410 55 CURVE",
"367 55 OFFCURVE",
"314 59 OFFCURVE",
"258 76 CURVE",
"184 3 LINE",
"251 3 OFFCURVE",
"299 -1 OFFCURVE",
"364 -1 CURVE SMOOTH",
"502 -1 OFFCURVE",
"678 99 OFFCURVE",
"678 334 CURVE SMOOTH",
"678 556 OFFCURVE",
"517 660 OFFCURVE",
"361 660 CURVE SMOOTH",
"281 660 OFFCURVE",
"236 656 OFFCURVE",
"181 656 CURVE SMOOTH"
);
}
);
width = 728;
}
);
leftKerningGroup = "0";
rightKerningGroup = "0";
unicode = 0044;
},
{
glyphname = E;
layers = (
{
anchors = (
{
name = bottom;
position = "{282, 0}";
},
{
name = ogonek;
position = "{492, -4}";
},
{
name = top;
position = "{282, 660}";
}
);
layerId = "0CED4075-D7BB-4A7E-97B8-19FE9A07C10E";
paths = (
{
closed = 1;
nodes = (
"324 369 OFFCURVE",
"292 367 OFFCURVE",
"260 367 CURVE SMOOTH",
"228 367 OFFCURVE",
"197 369 OFFCURVE",
"150 371 CURVE",
"150 310 LINE",
"194 312 OFFCURVE",
"226 313 OFFCURVE",
"258 313 CURVE SMOOTH",
"290 313 OFFCURVE",
"323 312 OFFCURVE",
"370 310 CURVE",
"370 371 LINE"
);
},
{
closed = 1;
nodes = (
"357 460 LINE",
"337 362 LINE",
"337 320 LINE",
"357 222 LINE",
"404 222 LINE",
"402 250 OFFCURVE",
"401 287 OFFCURVE",
"401 331 CURVE SMOOTH",
"401 374 OFFCURVE",
"402 420 OFFCURVE",
"404 460 CURVE"
);
},
{
closed = 1;
nodes = (
"523 68 OFFCURVE",
"519 124 OFFCURVE",
"519 185 CURVE",
"472 185 LINE",
"452 70 LINE",
"407 56 OFFCURVE",
"355 50 OFFCURVE",
"301 50 CURVE SMOOTH",
"269 50 OFFCURVE",
"236 52 OFFCURVE",
"204 55 CURVE",
"202 124 OFFCURVE",
"202 202 OFFCURVE",
"202 263 CURVE SMOOTH",
"202 362 OFFCURVE",
"203 471 OFFCURVE",
"204 601 CURVE",
"236 604 OFFCURVE",
"267 606 OFFCURVE",
"297 606 CURVE SMOOTH",
"348 606 OFFCURVE",
"396 600 OFFCURVE",
"441 586 CURVE",
"461 474 LINE",
"508 474 LINE",
"509 525 OFFCURVE",
"512 596 OFFCURVE",
"516 660 CURVE",
"466 657 OFFCURVE",
"373 656 OFFCURVE",
"275 656 CURVE SMOOTH",
"186 656 OFFCURVE",
"99 657 OFFCURVE",
"33 660 CURVE",
"23 629 LINE",
"111 608 LINE",
"115 539 OFFCURVE",
"116 460 OFFCURVE",
"116 376 CURVE SMOOTH",
"116 271 OFFCURVE",
"114 159 OFFCURVE",
"111 51 CURVE",
"23 30 LINE",
"33 0 LINE",
"106 2 OFFCURVE",
"201 3 OFFCURVE",
"298 3 CURVE SMOOTH",
"385 3 OFFCURVE",
"469 2 OFFCURVE",
"528 0 CURVE"
);
}
);
width = 564;
},
{
anchors = (
{
name = bottom;
position = "{323, 0}";
},
{
name = ogonek;
position = "{539, -2}";
},
{
name = top;
position = "{323, 660}";
}
);
background = {
paths = (
{
closed = 1;
nodes = (
"334 369 OFFCURVE",
"302 367 OFFCURVE",
"270 367 CURVE",
"238 367 OFFCURVE",
"207 369 OFFCURVE",
"160 371 CURVE",
"160 310 LINE",
"204 312 OFFCURVE",
"236 313 OFFCURVE",
"268 313 CURVE",
"300 313 OFFCURVE",
"333 312 OFFCURVE",
"380 310 CURVE",
"380 371 LINE"
);
},
{
closed = 1;
nodes = (
"367 460 LINE",
"347 362 LINE",
"347 320 LINE",
"367 219 LINE",
"414 219 LINE",
"412 247 OFFCURVE",
"411 287 OFFCURVE",
"411 331 CURVE",
"411 374 OFFCURVE",
"412 420 OFFCURVE",
"414 460 CURVE"
);
},
{
closed = 1;
nodes = (
"533 68 OFFCURVE",
"529 124 OFFCURVE",
"529 185 CURVE",
"482 185 LINE",
"462 64 LINE",
"425 56 OFFCURVE",
"382 52 OFFCURVE",
"339 52 CURVE",
"297 52 OFFCURVE",
"254 56 OFFCURVE",
"214 64 CURVE",
"212 133 OFFCURVE",
"212 202 OFFCURVE",
"212 263 CURVE",
"212 362 OFFCURVE",
"213 467 OFFCURVE",
"214 597 CURVE",
"233 602 OFFCURVE",
"269 608 OFFCURVE",
"325 608 CURVE",
"366 608 OFFCURVE",
"399 604 OFFCURVE",
"451 594 CURVE",
"471 474 LINE",
"518 474 LINE",
"519 525 OFFCURVE",
"522 596 OFFCURVE",
"526 660 CURVE",
"476 657 OFFCURVE",
"383 656 OFFCURVE",
"285 656 CURVE",
"196 656 OFFCURVE",
"109 657 OFFCURVE",
"43 660 CURVE",
"33 629 LINE",
"121 608 LINE",
"125 539 OFFCURVE",
"126 460 OFFCURVE",
"126 376 CURVE",
"126 271 OFFCURVE",
"124 159 OFFCURVE",
"121 51 CURVE",
"33 30 LINE",
"43 0 LINE",
"116 2 OFFCURVE",
"211 3 OFFCURVE",
"308 3 CURVE",
"395 3 OFFCURVE",
"479 2 OFFCURVE",
"538 0 CURVE"
);
},
{
closed = 1;
nodes = (
"310 356 OFFCURVE",
"270 356 OFFCURVE",
"181 371 CURVE",
"181 287 LINE",
"270 303 OFFCURVE",
"310 303 OFFCURVE",
"400 287 CURVE",
"400 371 LINE"
);
},
{
closed = 1;
nodes = (
"367 454 LINE",
"341 351 LINE",
"341 308 LINE",
"367 204 LINE",
"429 204 LINE",
"424 282 OFFCURVE",
"424 374 OFFCURVE",
"429 454 CURVE"
);
},
{
closed = 1;
nodes = (
"31 0 LINE",
"82 3 OFFCURVE",
"129 3 OFFCURVE",
"182 3 CURVE SMOOTH",
"239 3 OFFCURVE",
"283 2 OFFCURVE",
"349 0 CURVE",
"362 37 LINE",
"259 65 LINE",
"255 245 OFFCURVE",
"258 369 OFFCURVE",
"259 578 CURVE",
"281 580 OFFCURVE",
"310 582 OFFCURVE",
"342 582 CURVE SMOOTH",
"384 582 OFFCURVE",
"423 578 OFFCURVE",
"475 569 CURVE",
"495 462 LINE",
"564 462 LINE",
"564 523 OFFCURVE",
"567 591 OFFCURVE",
"572 660 CURVE",
"539 659 OFFCURVE",
"263 656 OFFCURVE",
"182 656 CURVE SMOOTH",
"111 656 OFFCURVE",
"82 657 OFFCURVE",
"31 660 CURVE",
"18 621 LINE",
"108 595 LINE",
"115 440 OFFCURVE",
"114 251 OFFCURVE",
"109 62 CURVE",
"17 38 LINE"
);
}
);
};
layerId = "3B5B530A-BB7C-47AF-9BD0-0E3C29910424";
paths = (
{
closed = 1;
nodes = (
"370 364 OFFCURVE",
"353 360 OFFCURVE",
"291 360 CURVE SMOOTH",
"259 360 OFFCURVE",
"228 362 OFFCURVE",
"181 366 CURVE",
"181 292 LINE",
"225 298 OFFCURVE",
"261 299 OFFCURVE",
"293 299 CURVE SMOOTH",
"355 299 OFFCURVE",
"369 295 OFFCURVE",
"416 287 CURVE",
"416 371 LINE"
);
},
{
closed = 1;
nodes = (
"390 454 LINE",
"357 351 LINE",
"357 308 LINE",
"390 204 LINE",
"445 204 LINE",
"443 232 OFFCURVE",
"441 289 OFFCURVE",
"441 333 CURVE SMOOTH",
"441 376 OFFCURVE",
"443 414 OFFCURVE",
"445 454 CURVE"
);
},
{
closed = 1;
nodes = (
"562 68 OFFCURVE",
"558 149 OFFCURVE",
"558 210 CURVE",
"494 210 LINE",
"471 89 LINE",
"437 72 OFFCURVE",
"383 64 OFFCURVE",
"330 64 CURVE SMOOTH",
"306 64 OFFCURVE",
"281 66 OFFCURVE",
"259 69 CURVE",
"257 138 OFFCURVE",
"257 202 OFFCURVE",
"257 263 CURVE SMOOTH",
"257 362 OFFCURVE",
"258 467 OFFCURVE",
"259 587 CURVE",
"284 590 OFFCURVE",
"309 592 OFFCURVE",
"333 592 CURVE SMOOTH",
"385 592 OFFCURVE",
"434 584 OFFCURVE",
"467 567 CURVE",
"485 462 LINE",
"549 462 LINE",
"550 513 OFFCURVE",
"553 576 OFFCURVE",
"557 660 CURVE",
"507 657 OFFCURVE",
"290 656 OFFCURVE",
"192 656 CURVE SMOOTH",
"153 656 OFFCURVE",
"99 657 OFFCURVE",
"33 660 CURVE",
"20 621 LINE",
"108 597 LINE",
"111 528 OFFCURVE",
"113 460 OFFCURVE",
"113 376 CURVE SMOOTH",
"113 271 OFFCURVE",
"111 167 OFFCURVE",
"108 59 CURVE",
"20 38 LINE",
"32 0 LINE",
"105 2 OFFCURVE",
"141 3 OFFCURVE",
"188 3 CURVE SMOOTH",
"381 3 OFFCURVE",
"508 2 OFFCURVE",
"567 0 CURVE"
);
}
);
width = 602;
}
);
leftKerningGroup = "0";
rightKerningGroup = "0";
unicode = 0045;
},
{
glyphname = F;
layers = (
{
layerId = "0CED4075-D7BB-4A7E-97B8-19FE9A07C10E";
paths = (
{
closed = 1;
nodes = (
"236 604 OFFCURVE",
"267 606 OFFCURVE",
"297 606 CURVE SMOOTH",
"348 606 OFFCURVE",
"396 600 OFFCURVE",
"441 586 CURVE",
"461 474 LINE",
"508 474 LINE",
"509 525 OFFCURVE",
"512 596 OFFCURVE",
"516 660 CURVE",
"466 657 OFFCURVE",
"373 656 OFFCURVE",
"275 656 CURVE SMOOTH",
"186 656 OFFCURVE",
"99 657 OFFCURVE",
"33 660 CURVE",
"23 629 LINE",
"111 608 LINE",
"115 539 OFFCURVE",
"116 458 OFFCURVE",
"116 373 CURVE SMOOTH",
"116 266 OFFCURVE",
"114 154 OFFCURVE",
"111 51 CURVE",
"23 30 LINE",
"33 0 LINE",
"68 1 OFFCURVE",
"108 3 OFFCURVE",
"141 3 CURVE SMOOTH",
"192 3 OFFCURVE",
"268 2 OFFCURVE",
"306 0 CURVE",
"318 30 LINE",
"203 55 LINE",
"201 123 OFFCURVE",
"201 185 OFFCURVE",
"201 247 CURVE SMOOTH",
"201 352 OFFCURVE",
"203 462 OFFCURVE",
"204 601 CURVE"
);
},
{
closed = 1;
nodes = (
"324 369 OFFCURVE",
"292 367 OFFCURVE",
"260 367 CURVE SMOOTH",
"228 367 OFFCURVE",
"197 369 OFFCURVE",
"150 371 CURVE",
"150 310 LINE",
"194 312 OFFCURVE",
"226 313 OFFCURVE",
"258 313 CURVE SMOOTH",
"290 313 OFFCURVE",
"323 312 OFFCURVE",
"370 310 CURVE",
"370 371 LINE"
);
},
{
closed = 1;
nodes = (
"357 460 LINE",
"337 362 LINE",
"337 320 LINE",
"357 219 LINE",
"404 219 LINE",
"402 252 OFFCURVE",
"401 297 OFFCURVE",
"401 341 CURVE SMOOTH",
"401 384 OFFCURVE",
"402 420 OFFCURVE",
"404 460 CURVE"
);
}
);
width = 537;
},
{
anchors = (
{
name = bottom;
position = "{193, 0}";
},
{
name = top;
position = "{317, 660}";
}
);
background = {
paths = (
{
closed = 1;
nodes = (
"245 634 OFFCURVE",
"229 653 OFFCURVE",
"174 651 CURVE",
"140 650 OFFCURVE",
"95 654 OFFCURVE",
"56 655 CURVE",
"46 626 LINE",
"131 606 LINE",
"138 457 OFFCURVE",
"135 240 OFFCURVE",
"131 49 CURVE",
"46 29 LINE",
"56 0 LINE",
"95 1 OFFCURVE",
"140 4 OFFCURVE",
"174 3 CURVE",
"229 2 OFFCURVE",
"290 2 OFFCURVE",
"324 0 CURVE",
"335 29 LINE",
"225 52 LINE",
"221 243 OFFCURVE",
"224 387 OFFCURVE",
"225 606 CURVE",
"309 626 LINE",
"279 636 LINE"
);
},
{
closed = 1;
nodes = (
"198 566 OFFCURVE",
"232 598 OFFCURVE",
"328 598 CURVE",
"368 598 OFFCURVE",
"416 595 OFFCURVE",
"466 586 CURVE",
"485 477 LINE",
"530 477 LINE",
"530 536 OFFCURVE",
"533 589 OFFCURVE",
"538 655 CURVE",
"479 654 OFFCURVE",
"311 650 OFFCURVE",
"174 651 CURVE",
"205 581 LINE"
);
},
{
closed = 1;
nodes = (
"173 302 LINE",
"259 306 OFFCURVE",
"312 306 OFFCURVE",
"398 302 CURVE",
"398 362 LINE",
"312 358 OFFCURVE",
"259 358 OFFCURVE",
"173 362 CURVE"
);
},
{
closed = 1;
nodes = (
"367 312 LINE",
"386 207 LINE",
"431 207 LINE",
"427 270 OFFCURVE",
"427 381 OFFCURVE",
"431 457 CURVE",
"386 457 LINE",
"367 353 LINE"
);
},
{
closed = 1;
nodes = (
"372 364 OFFCURVE",
"355 360 OFFCURVE",
"293 360 CURVE SMOOTH",
"261 360 OFFCURVE",
"230 362 OFFCURVE",
"183 366 CURVE",
"183 292 LINE",
"227 298 OFFCURVE",
"263 299 OFFCURVE",
"295 299 CURVE SMOOTH",
"357 299 OFFCURVE",
"371 295 OFFCURVE",
"418 287 CURVE",
"418 371 LINE"
);
},
{
closed = 1;
nodes = (
"392 454 LINE",
"359 351 LINE",
"359 308 LINE",
"392 204 LINE",
"447 204 LINE",
"445 232 OFFCURVE",
"443 289 OFFCURVE",
"443 333 CURVE SMOOTH",
"443 376 OFFCURVE",
"445 414 OFFCURVE",
"447 454 CURVE"
);
},
{
closed = 1;
nodes = (
"564 68 OFFCURVE",
"560 149 OFFCURVE",
"560 210 CURVE",
"496 210 LINE",
"473 89 LINE",
"423 64 OFFCURVE",
"331 59 OFFCURVE",
"261 69 CURVE",
"259 138 OFFCURVE",
"259 202 OFFCURVE",
"259 263 CURVE SMOOTH",
"259 362 OFFCURVE",
"260 467 OFFCURVE",
"261 587 CURVE",
"339 597 OFFCURVE",
"420 592 OFFCURVE",
"469 567 CURVE",
"487 462 LINE",
"551 462 LINE",
"552 513 OFFCURVE",
"555 576 OFFCURVE",
"559 660 CURVE",
"509 657 OFFCURVE",
"292 656 OFFCURVE",
"194 656 CURVE SMOOTH",
"155 656 OFFCURVE",
"99 657 OFFCURVE",
"33 660 CURVE",
"20 621 LINE",
"110 597 LINE",
"113 528 OFFCURVE",
"115 460 OFFCURVE",
"115 376 CURVE SMOOTH",
"115 271 OFFCURVE",
"113 167 OFFCURVE",
"110 59 CURVE",
"21 38 LINE",
"33 0 LINE",
"106 2 OFFCURVE",
"143 3 OFFCURVE",
"190 3 CURVE SMOOTH",
"383 3 OFFCURVE",
"510 2 OFFCURVE",
"569 0 CURVE"
);
}
);
};
layerId = "3B5B530A-BB7C-47AF-9BD0-0E3C29910424";
paths = (
{
closed = 1;
nodes = (
"373 364 OFFCURVE",
"353 360 OFFCURVE",
"290 360 CURVE SMOOTH",
"258 360 OFFCURVE",
"228 362 OFFCURVE",
"183 366 CURVE",
"183 292 LINE",
"228 298 OFFCURVE",
"258 299 OFFCURVE",
"290 299 CURVE SMOOTH",
"353 299 OFFCURVE",
"373 295 OFFCURVE",
"418 287 CURVE",
"418 371 LINE"
);
},
{
closed = 1;
nodes = (
"392 454 LINE",
"359 351 LINE",
"359 308 LINE",
"392 204 LINE",
"447 204 LINE",
"445 243 OFFCURVE",
"443 286 OFFCURVE",
"443 328 CURVE SMOOTH",
"443 371 OFFCURVE",
"445 414 OFFCURVE",
"447 454 CURVE"
);
},
{
closed = 1;
nodes = (
"38 0 LINE",
"89 3 OFFCURVE",
"129 3 OFFCURVE",
"182 3 CURVE SMOOTH",
"269 3 OFFCURVE",
"303 2 OFFCURVE",
"369 0 CURVE",
"382 37 LINE",
"261 68 LINE",
"259 136 OFFCURVE",
"259 193 OFFCURVE",
"259 325 CURVE SMOOTH",
"259 351 OFFCURVE",
"260 457 OFFCURVE",
"261 587 CURVE",
"355 599 OFFCURVE",
"422 588 OFFCURVE",
"469 568 CURVE",
"487 462 LINE",
"551 462 LINE",
"552 526 OFFCURVE",
"556 591 OFFCURVE",
"559 660 CURVE",
"475 656 OFFCURVE",
"263 656 OFFCURVE",
"182 656 CURVE SMOOTH",
"111 656 OFFCURVE",
"84 657 OFFCURVE",
"33 660 CURVE",
"20 621 LINE",
"110 597 LINE",
"114 520 OFFCURVE",
"115 426 OFFCURVE",
"115 335 CURVE SMOOTH",
"115 245 OFFCURVE",
"113 154 OFFCURVE",
"110 59 CURVE",
"25 38 LINE"
);
}
);
width = 579;
}
);
leftKerningGroup = "0";
rightKerningGroup = "0";
unicode = 0046;
},
{
glyphname = G;
layers = (
{
layerId = "0CED4075-D7BB-4A7E-97B8-19FE9A07C10E";
paths = (
{
closed = 1;
nodes = (
"465 57 OFFCURVE",
"427 47 OFFCURVE",
"366 47 CURVE SMOOTH",
"221 47 OFFCURVE",
"145 194 OFFCURVE",
"145 339 CURVE SMOOTH",
"145 453 OFFCURVE",
"193 567 OFFCURVE",
"289 607 CURVE",
"366 607 OFFCURVE",
"426 593 OFFCURVE",
"500 556 CURVE",
"520 442 LINE",
"567 442 LINE",
"576 504 OFFCURVE",
"588 549 OFFCURVE",
"602 610 CURVE",
"522 647 OFFCURVE",
"442 665 OFFCURVE",
"365 665 CURVE SMOOTH",
"153 665 OFFCURVE",
"45 490 OFFCURVE",
"45 318 CURVE SMOOTH",
"45 154 OFFCURVE",
"145 -7 OFFCURVE",
"348 -7 CURVE SMOOTH",
"449 -7 OFFCURVE",
"535 23 OFFCURVE",
"600 48 CURVE",
"598 96 OFFCURVE",
"597 137 OFFCURVE",
"597 175 CURVE SMOOTH",
"596 214 OFFCURVE",
"596 250 OFFCURVE",
"596 286 CURVE",
"683 306 LINE",
"673 337 LINE",
"618 334 OFFCURVE",
"591 333 OFFCURVE",
"547 333 CURVE SMOOTH",
"510 333 OFFCURVE",
"483 334 OFFCURVE",
"422 337 CURVE",
"412 306 LINE",
"504 286 LINE",
"507 251 OFFCURVE",
"508 219 OFFCURVE",
"508 182 CURVE SMOOTH",
"508 153 OFFCURVE",
"507 118 OFFCURVE",
"505 99 CURVE"
);
}
);
width = 704;
},
{
anchors = (
{
name = bottom;
position = "{387, 0}";
},
{
name = top;
position = "{377, 660}";
}
);
background = {
paths = (
{
closed = 1;
nodes = (
"484 57 OFFCURVE",
"446 47 OFFCURVE",
"385 47 CURVE",
"243 47 OFFCURVE",
"170 194 OFFCURVE",
"170 339 CURVE",
"170 453 OFFCURVE",
"215 567 OFFCURVE",
"308 607 CURVE",
"385 607 OFFCURVE",
"445 593 OFFCURVE",
"519 556 CURVE",
"539 442 LINE",
"586 442 LINE",
"595 504 OFFCURVE",
"607 549 OFFCURVE",
"621 610 CURVE",
"541 647 OFFCURVE",
"461 665 OFFCURVE",
"384 665 CURVE",
"170 665 OFFCURVE",
"60 490 OFFCURVE",
"60 318 CURVE",
"60 154 OFFCURVE",
"161 -7 OFFCURVE",
"367 -7 CURVE",
"468 -7 OFFCURVE",
"552 23 OFFCURVE",
"622 48 CURVE",
"618 94 OFFCURVE",
"618 164 OFFCURVE",
"618 286 CURVE",
"707 306 LINE",
"695 337 LINE",
"660 336 OFFCURVE",
"603 333 OFFCURVE",
"566 333 CURVE",
"529 333 OFFCURVE",
"482 333 OFFCURVE",
"441 337 CURVE",
"431 306 LINE",
"521 286 LINE",
"525 251 OFFCURVE",
"527 209 OFFCURVE",
"527 172 CURVE",
"527 143 OFFCURVE",
"526 118 OFFCURVE",
"524 99 CURVE"
);
},
{
closed = 0;
nodes = (
"645 276 LINE",
"737 301 LINE",
"724 338 LINE",
"683 337 OFFCURVE",
"631 335 OFFCURVE",
"570 335 CURVE SMOOTH",
"502 335 OFFCURVE",
"446 337 OFFCURVE",
"417 338 CURVE",
"406 301 LINE",
"495 276 LINE"
);
}
);
};
layerId = "3B5B530A-BB7C-47AF-9BD0-0E3C29910424";
paths = (
{
closed = 1;
nodes = (
"450 67 OFFCURVE",
"422 53 OFFCURVE",
"382 53 CURVE SMOOTH",
"260 53 OFFCURVE",
"205 201 OFFCURVE",
"205 345 CURVE SMOOTH",
"205 462 OFFCURVE",
"238 553 OFFCURVE",
"312 607 CURVE",
"389 607 OFFCURVE",
"438 598 OFFCURVE",
"502 571 CURVE",
"522 439 LINE",
"589 439 LINE",
"598 501 OFFCURVE",
"610 561 OFFCURVE",
"624 622 CURVE",
"544 659 OFFCURVE",
"468 671 OFFCURVE",
"384 671 CURVE SMOOTH",
"148 671 OFFCURVE",
"45 502 OFFCURVE",
"45 327 CURVE SMOOTH",
"45 160 OFFCURVE",
"137 -7 OFFCURVE",
"377 -7 CURVE SMOOTH",
"485 -7 OFFCURVE",
"556 18 OFFCURVE",
"634 42 CURVE",
"632 92 OFFCURVE",
"628 135 OFFCURVE",
"628 175 CURVE SMOOTH",
"627 210 OFFCURVE",
"628 242 OFFCURVE",
"630 274 CURVE",
"718 301 LINE",
"705 338 LINE",
"657 335 OFFCURVE",
"611 334 OFFCURVE",
"560 334 CURVE SMOOTH",
"501 334 OFFCURVE",
"447 335 OFFCURVE",
"402 338 CURVE",
"391 301 LINE",
"480 274 LINE",
"484 246 OFFCURVE",
"485 218 OFFCURVE",
"485 189 CURVE SMOOTH",
"485 160 OFFCURVE",
"484 131 OFFCURVE",
"481 93 CURVE"
);
}
);
width = 738;
}
);
leftKerningGroup = "0";
rightKerningGroup = "0";
unicode = 0047;
},
{
glyphname = H;
layers = (
{
layerId = "0CED4075-D7BB-4A7E-97B8-19FE9A07C10E";
paths = (
{
closed = 1;
nodes = (
"238 657 OFFCURVE",
"198 656 OFFCURVE",
"155 656 CURVE SMOOTH",
"116 656 OFFCURVE",
"74 658 OFFCURVE",
"33 660 CURVE",
"23 629 LINE",
"111 608 LINE",
"114 520 OFFCURVE",
"116 426 OFFCURVE",
"116 332 CURVE SMOOTH",
"116 238 OFFCURVE",
"114 143 OFFCURVE",
"111 51 CURVE",
"23 30 LINE",
"33 0 LINE",
"74 1 OFFCURVE",
"116 3 OFFCURVE",
"155 3 CURVE SMOOTH",
"201 3 OFFCURVE",
"233 2 OFFCURVE",
"280 0 CURVE",
"291 30 LINE",
"203 51 LINE",
"203 145 OFFCURVE",
"202 240 OFFCURVE",
"202 334 CURVE SMOOTH",
"202 428 OFFCURVE",
"203 521 OFFCURVE",
"203 608 CURVE",
"291 629 LINE",
"280 660 LINE"
);
},
{
closed = 1;
nodes = (
"463 359 OFFCURVE",
"416 359 OFFCURVE",
"355 359 CURVE SMOOTH",
"291 359 OFFCURVE",
"251 359 OFFCURVE",
"176 364 CURVE",
"176 304 LINE",
"251 309 OFFCURVE",
"291 309 OFFCURVE",
"355 309 CURVE SMOOTH",
"416 309 OFFCURVE",
"463 309 OFFCURVE",
"546 304 CURVE",
"546 365 LINE"
);
},
{
closed = 1;
nodes = (
"645 657 OFFCURVE",
"605 656 OFFCURVE",
"562 656 CURVE SMOOTH",
"523 656 OFFCURVE",
"481 658 OFFCURVE",
"440 660 CURVE",
"430 629 LINE",
"518 608 LINE",
"521 520 OFFCURVE",
"523 426 OFFCURVE",
"523 332 CURVE SMOOTH",
"523 238 OFFCURVE",
"521 143 OFFCURVE",
"518 51 CURVE",
"430 30 LINE",
"440 0 LINE",
"481 1 OFFCURVE",
"523 3 OFFCURVE",
"562 3 CURVE SMOOTH",
"608 3 OFFCURVE",
"640 2 OFFCURVE",
"687 0 CURVE",
"698 30 LINE",
"610 51 LINE",
"610 145 OFFCURVE",
"609 240 OFFCURVE",
"609 334 CURVE SMOOTH",
"609 428 OFFCURVE",
"610 521 OFFCURVE",
"610 608 CURVE",
"698 629 LINE",
"687 660 LINE"
);
}
);
width = 719;
},
{
anchors = (
{
name = center;
position = "{387, 333}";
},
{
name = top;
position = "{391, 660}";
}
);
background = {
paths = (
{
closed = 1;
nodes = (
"656 652 OFFCURVE",
"624 651 OFFCURVE",
"580 651 CURVE",
"534 651 OFFCURVE",
"497 653 OFFCURVE",
"458 655 CURVE",
"448 626 LINE",
"534 606 LINE",
"539 441 OFFCURVE",
"539 230 OFFCURVE",
"534 49 CURVE",
"448 29 LINE",
"458 0 LINE",
"492 1 OFFCURVE",
"537 3 OFFCURVE",
"580 3 CURVE",
"623 3 OFFCURVE",
"670 2 OFFCURVE",
"701 0 CURVE",
"712 29 LINE",
"628 49 LINE",
"625 234 OFFCURVE",
"625 444 OFFCURVE",
"628 606 CURVE",
"712 626 LINE",
"701 655 LINE"
);
},
{
closed = 1;
nodes = (
"248 652 OFFCURVE",
"210 651 OFFCURVE",
"168 651 CURVE",
"124 651 OFFCURVE",
"84 653 OFFCURVE",
"45 655 CURVE",
"35 626 LINE",
"120 606 LINE",
"126 436 OFFCURVE",
"126 225 OFFCURVE",
"120 49 CURVE",
"35 29 LINE",
"45 0 LINE",
"84 1 OFFCURVE",
"124 3 OFFCURVE",
"168 3 CURVE",
"212 3 OFFCURVE",
"243 2 OFFCURVE",
"288 0 CURVE",
"298 29 LINE",
"214 49 LINE",
"213 227 OFFCURVE",
"213 438 OFFCURVE",
"214 606 CURVE",
"298 626 LINE",
"288 655 LINE"
);
},
{
closed = 1;
nodes = (
"482 366 OFFCURVE",
"428 366 OFFCURVE",
"369 366 CURVE",
"308 366 OFFCURVE",
"260 366 OFFCURVE",
"188 371 CURVE",
"188 306 LINE",
"260 311 OFFCURVE",
"308 311 OFFCURVE",
"369 311 CURVE",
"428 311 OFFCURVE",
"482 311 OFFCURVE",
"561 305 CURVE",
"561 372 LINE"
);
}
);
};
layerId = "3B5B530A-BB7C-47AF-9BD0-0E3C29910424";
paths = (
{
closed = 1;
nodes = (
"299 658 OFFCURVE",
"241 655 OFFCURVE",
"188 655 CURVE SMOOTH",
"126 655 OFFCURVE",
"74 657 OFFCURVE",
"32 660 CURVE",
"20 621 LINE",
"108 597 LINE",
"111 504 OFFCURVE",
"112 428 OFFCURVE",
"112 359 CURVE SMOOTH",
"112 259 OFFCURVE",
"110 172 OFFCURVE",
"108 59 CURVE",
"20 38 LINE",
"33 0 LINE",
"74 1 OFFCURVE",
"122 3 OFFCURVE",
"183 3 CURVE SMOOTH",
"248 3 OFFCURVE",
"299 2 OFFCURVE",
"335 0 CURVE",
"346 38 LINE",
"258 59 LINE",
"256 132 OFFCURVE",
"256 194 OFFCURVE",
"256 325 CURVE SMOOTH",
"256 356 OFFCURVE",
"257 455 OFFCURVE",
"258 597 CURVE",
"346 621 LINE",
"335 660 LINE"
);
},
{
closed = 1;
nodes = (
"494 364 OFFCURVE",
"435 362 OFFCURVE",
"378 362 CURVE SMOOTH",
"325 362 OFFCURVE",
"273 364 OFFCURVE",
"222 367 CURVE",
"222 297 LINE",
"273 300 OFFCURVE",
"325 302 OFFCURVE",
"378 302 CURVE SMOOTH",
"435 302 OFFCURVE",
"494 300 OFFCURVE",
"552 296 CURVE",
"552 368 LINE"
);
},
{
closed = 1;
nodes = (
"706 658 OFFCURVE",
"649 655 OFFCURVE",
"596 655 CURVE SMOOTH",
"534 655 OFFCURVE",
"480 657 OFFCURVE",
"439 660 CURVE",
"427 621 LINE",
"515 597 LINE",
"518 501 OFFCURVE",
"520 425 OFFCURVE",
"520 354 CURVE SMOOTH",
"520 258 OFFCURVE",
"517 172 OFFCURVE",
"515 59 CURVE",
"427 38 LINE",
"440 0 LINE",
"481 1 OFFCURVE",
"530 3 OFFCURVE",
"592 3 CURVE SMOOTH",
"655 3 OFFCURVE",
"706 2 OFFCURVE",
"742 0 CURVE",
"753 38 LINE",
"665 59 LINE",
"664 124 OFFCURVE",
"663 180 OFFCURVE",
"663 234 CURVE SMOOTH",
"663 343 OFFCURVE",
"665 445 OFFCURVE",
"665 597 CURVE",
"753 621 LINE",
"742 660 LINE"
);
}
);
width = 773;
}
);
leftKerningGroup = "0";
rightKerningGroup = "0";
unicode = 0048;
},
{
glyphname = I;
layers = (
{
anchors = (
{
name = ogonek;
position = "{182, 6}";
},
{
name = top;
position = "{165, 660}";
}
);
layerId = "0CED4075-D7BB-4A7E-97B8-19FE9A07C10E";
paths = (
{
closed = 1;
nodes = (
"253 658 OFFCURVE",
"217 656 OFFCURVE",
"166 656 CURVE SMOOTH",
"119 656 OFFCURVE",
"83 658 OFFCURVE",
"44 660 CURVE",
"33 629 LINE",
"120 608 LINE",
"128 380 OFFCURVE",
"124 267 OFFCURVE",
"120 51 CURVE",
"33 30 LINE",
"44 0 LINE",
"83 1 OFFCURVE",
"119 3 OFFCURVE",
"166 3 CURVE SMOOTH",
"212 3 OFFCURVE",
"253 2 OFFCURVE",
"288 0 CURVE",
"298 30 LINE",
"212 51 LINE",
"208 271 OFFCURVE",
"211 380 OFFCURVE",
"212 608 CURVE",
"298 629 LINE",
"288 660 LINE"
);
}
);
width = 329;
},
{
anchors = (
{
name = ogonek;
position = "{210, 2}";
},
{
name = top;
position = "{199, 660}";
}
);
background = {
paths = (
{
closed = 0;
nodes = (
"236 421 LINE",
"153 411 OFFCURVE",
"83 404 OFFCURVE",
"9 401 CURVE",
"21 364 LINE",
"95 346 LINE",
"100 278 OFFCURVE",
"103 262 OFFCURVE",
"103 206 CURVE SMOOTH",
"103 157 OFFCURVE",
"100 130 OFFCURVE",
"99 56 CURVE",
"27 36 LINE",
"42 0 LINE",
"80 1 OFFCURVE",
"112 3 OFFCURVE",
"162 3 CURVE SMOOTH",
"213 3 OFFCURVE",
"252 2 OFFCURVE",
"294 0 CURVE",
"307 36 LINE",
"237 56 LINE"
);
},
{
closed = 1;
nodes = (
"283 653 OFFCURVE",
"247 652 OFFCURVE",
"196 651 CURVE",
"157 650 OFFCURVE",
"113 654 OFFCURVE",
"74 655 CURVE",
"64 626 LINE",
"149 606 LINE",
"156 387 OFFCURVE",
"153 255 OFFCURVE",
"149 49 CURVE",
"64 29 LINE",
"74 0 LINE",
"113 1 OFFCURVE",
"157 4 OFFCURVE",
"196 3 CURVE",
"247 2 OFFCURVE",
"283 2 OFFCURVE",
"317 0 CURVE",
"327 29 LINE",
"243 49 LINE",
"239 259 OFFCURVE",
"242 387 OFFCURVE",
"243 606 CURVE",
"327 626 LINE",
"317 655 LINE"
);
}
);
};
layerId = "3B5B530A-BB7C-47AF-9BD0-0E3C29910424";
paths = (
{
closed = 1;
nodes = (
"314 658 OFFCURVE",
"256 656 OFFCURVE",
"202 656 CURVE SMOOTH",
"140 656 OFFCURVE",
"95 657 OFFCURVE",
"43 660 CURVE",
"30 621 LINE",
"122 597 LINE",
"129 369 OFFCURVE",
"128 275 OFFCURVE",
"122 59 CURVE",
"30 38 LINE",
"43 0 LINE",
"84 1 OFFCURVE",
"136 3 OFFCURVE",
"198 3 CURVE SMOOTH",
"262 3 OFFCURVE",
"314 2 OFFCURVE",
"350 0 CURVE",
"363 38 LINE",
"272 59 LINE",
"270 278 OFFCURVE",
"271 369 OFFCURVE",
"272 597 CURVE",
"363 621 LINE",
"350 660 LINE"
);
}
);
width = 393;
}
);
leftKerningGroup = "0";
rightKerningGroup = "0";
unicode = 0049;
},
{
glyphname = J;
layers = (
{
layerId = "0CED4075-D7BB-4A7E-97B8-19FE9A07C10E";
paths = (
{
closed = 1;
nodes = (
"207 25 OFFCURVE",
"207 197 CURVE SMOOTH",
"207 338 OFFCURVE",
"205 497 OFFCURVE",
"205 608 CURVE",
"294 629 LINE",
"282 660 LINE",
"247 658 OFFCURVE",
"210 656 OFFCURVE",
"162 656 CURVE SMOOTH",
"110 656 OFFCURVE",
"73 658 OFFCURVE",
"27 660 CURVE",
"17 629 LINE",
"113 608 LINE",
"116 524 OFFCURVE",
"121 368 OFFCURVE",
"120 185 CURVE SMOOTH",
"119 53 OFFCURVE",
"105 -18 OFFCURVE",
"5 -150 CURVE",
"30 -172 LINE",
"198 -11 OFFCURVE"
);
}
);
width = 325;
},
{
anchors = (
{
name = top;
position = "{204, 660}";
}
);
background = {
paths = (
{
closed = 1;
nodes = (
"276 100 OFFCURVE",
"279 164 OFFCURVE",
"279 227 CURVE SMOOTH",
"279 368 OFFCURVE",
"277 497 OFFCURVE",
"277 608 CURVE",
"366 629 LINE",
"354 660 LINE",
"319 658 OFFCURVE",
"282 656 OFFCURVE",
"234 656 CURVE SMOOTH",
"182 656 OFFCURVE",
"145 658 OFFCURVE",
"99 660 CURVE",
"89 629 LINE",
"185 608 LINE",
"188 524 OFFCURVE",
"193 368 OFFCURVE",
"192 185 CURVE SMOOTH",
"191 63 OFFCURVE",
"183 11 OFFCURVE",
"173 -25 CURVE SMOOTH",
"162 -66 OFFCURVE",
"141 -108 OFFCURVE",
"101 -149 CURVE",
"122 -172 LINE",
"214 -103 OFFCURVE",
"263 -27 OFFCURVE",
"272 58 CURVE SMOOTH"
);
}
);
};
layerId = "3B5B530A-BB7C-47AF-9BD0-0E3C29910424";
paths = (
{
closed = 1;
nodes = (
"274 51 OFFCURVE",
"276 177 CURVE SMOOTH",
"279 368 OFFCURVE",
"277 484 OFFCURVE",
"277 595 CURVE",
"366 621 LINE",
"354 660 LINE",
"319 658 OFFCURVE",
"282 656 OFFCURVE",
"204 656 CURVE SMOOTH",
"122 656 OFFCURVE",
"85 658 OFFCURVE",
"39 660 CURVE",
"29 621 LINE",
"125 595 LINE",
"128 511 OFFCURVE",
"136 358 OFFCURVE",
"130 175 CURVE SMOOTH",
"125 26 OFFCURVE",
"99 -47 OFFCURVE",
"5 -139 CURVE",
"39 -182 LINE",
"246 -37 OFFCURVE"
);
}
);
width = 396;
}
);
leftKerningGroup = "0";
rightKerningGroup = "0";
unicode = 004A;
},
{
glyphname = K;
layers = (
{
layerId = "0CED4075-D7BB-4A7E-97B8-19FE9A07C10E";
paths = (
{
closed = 1;
nodes = (
"225 658 OFFCURVE",
"191 657 OFFCURVE",
"159 657 CURVE SMOOTH",
"124 657 OFFCURVE",
"84 658 OFFCURVE",
"33 660 CURVE",
"23 629 LINE",
"111 608 LINE",
"115 539 OFFCURVE",
"116 404 OFFCURVE",
"116 323 CURVE SMOOTH",
"116 222 OFFCURVE",
"114 171 OFFCURVE",
"111 51 CURVE",
"23 30 LINE",
"33 0 LINE",
"74 1 OFFCURVE",
"123 3 OFFCURVE",
"158 3 CURVE SMOOTH",
"211 3 OFFCURVE",
"245 2 OFFCURVE",
"281 0 CURVE",
"292 30 LINE",
"204 51 LINE",
"202 132 OFFCURVE",
"202 259 OFFCURVE",
"202 323 CURVE SMOOTH",
"202 432 OFFCURVE",
"203 471 OFFCURVE",
"204 608 CURVE",
"292 629 LINE",
"281 660 LINE"
);
},
{
closed = 1;
nodes = (
"301 213 OFFCURVE",
"359 136 OFFCURVE",
"464 1 CURVE",
"486 1 OFFCURVE",
"511 3 OFFCURVE",
"545 3 CURVE SMOOTH",
"571 3 OFFCURVE",
"598 2 OFFCURVE",
"639 0 CURVE",
"650 31 LINE",
"551 52 LINE",
"451 165 OFFCURVE",
"377 259 OFFCURVE",
"294 368 CURVE",
"278 321 LINE",
"358 406 OFFCURVE",
"450 504 OFFCURVE",
"553 610 CURVE",
"634 629 LINE",
"623 660 LINE",
"587 658 OFFCURVE",
"547 657 OFFCURVE",
"511 657 CURVE SMOOTH",
"475 657 OFFCURVE",
"434 657 OFFCURVE",
"389 660 CURVE",
"379 631 LINE",
"460 610 LINE",
"379 503 OFFCURVE",
"326 438 OFFCURVE",
"209 327 CURVE"
);
}
);
width = 657;
},
{
anchors = (
{
name = bottom;
position = "{384, 0}";
},
{
name = top;
position = "{384, 660}";
}
);
background = {
paths = (
{
closed = 1;
nodes = (
"253 658 OFFCURVE",
"219 657 OFFCURVE",
"187 657 CURVE SMOOTH",
"152 657 OFFCURVE",
"112 658 OFFCURVE",
"61 660 CURVE",
"51 629 LINE",
"139 608 LINE",
"147 453 OFFCURVE",
"144 267 OFFCURVE",
"139 51 CURVE",
"51 30 LINE",
"61 0 LINE",
"102 1 OFFCURVE",
"151 3 OFFCURVE",
"186 3 CURVE SMOOTH",
"239 3 OFFCURVE",
"273 2 OFFCURVE",
"309 0 CURVE",
"320 30 LINE",
"232 51 LINE",
"227 271 OFFCURVE",
"231 391 OFFCURVE",
"232 608 CURVE",
"320 629 LINE",
"309 660 LINE"
);
},
{
closed = 1;
nodes = (
"329 213 OFFCURVE",
"387 136 OFFCURVE",
"492 1 CURVE",
"514 1 OFFCURVE",
"539 3 OFFCURVE",
"573 3 CURVE SMOOTH",
"599 3 OFFCURVE",
"626 2 OFFCURVE",
"667 0 CURVE",
"678 31 LINE",
"579 52 LINE",
"479 165 OFFCURVE",
"405 259 OFFCURVE",
"322 368 CURVE",
"316 321 LINE",
"386 403 OFFCURVE",
"491 514 OFFCURVE",
"580 610 CURVE",
"662 629 LINE",
"651 660 LINE",
"615 658 OFFCURVE",
"575 657 OFFCURVE",
"539 657 CURVE SMOOTH",
"503 657 OFFCURVE",
"462 657 OFFCURVE",
"417 660 CURVE",
"407 631 LINE",
"496 610 LINE",
"410 497 OFFCURVE",
"354 432 OFFCURVE",
"237 327 CURVE"
);
}
);
};
layerId = "3B5B530A-BB7C-47AF-9BD0-0E3C29910424";
paths = (
{
closed = 1;
nodes = (
"74 1 OFFCURVE",
"122 3 OFFCURVE",
"184 3 CURVE SMOOTH",
"248 3 OFFCURVE",
"300 2 OFFCURVE",
"336 0 CURVE",
"347 38 LINE",
"258 59 LINE",
"257 152 OFFCURVE",
"257 246 OFFCURVE",
"257 312 CURVE SMOOTH",
"257 403 OFFCURVE",
"257 463 OFFCURVE",
"258 595 CURVE",
"347 621 LINE",
"336 660 LINE",
"291 658 OFFCURVE",
"245 656 OFFCURVE",
"188 656 CURVE SMOOTH",
"126 656 OFFCURVE",
"74 657 OFFCURVE",
"32 660 CURVE",
"20 621 LINE",
"108 595 LINE",
"111 485 OFFCURVE",
"113 387 OFFCURVE",
"113 312 CURVE SMOOTH",
"113 230 OFFCURVE",
"111 171 OFFCURVE",
"108 59 CURVE",
"20 38 LINE",
"33 0 LINE"
);
},
{
closed = 1;
nodes = (
"715 38 LINE",
"614 59 LINE",
"527 173 OFFCURVE",
"464 268 OFFCURVE",
"383 399 CURVE",
"368 383 OFFCURVE",
"304 351 OFFCURVE",
"267 324 CURVE",
"355 192 OFFCURVE",
"395 126 OFFCURVE",
"468 1 CURVE",
"490 1 OFFCURVE",
"542 3 OFFCURVE",
"588 3 CURVE SMOOTH",
"623 3 OFFCURVE",
"661 2 OFFCURVE",
"701 0 CURVE"
);
},
{
closed = 1;
nodes = (
"435 413 OFFCURVE",
"517 501 OFFCURVE",
"610 600 CURVE",
"697 621 LINE",
"685 660 LINE",
"650 658 OFFCURVE",
"611 657 OFFCURVE",
"565 657 CURVE SMOOTH",
"519 657 OFFCURVE",
"482 657 OFFCURVE",
"436 660 CURVE",
"424 621 LINE",
"505 600 LINE",
"442 501 OFFCURVE",
"390 433 OFFCURVE",
"267 324 CURVE",
"353 313 LINE"
);
}
);
width = 740;
}
);
leftKerningGroup = "0";
rightKerningGroup = "0";
unicode = 004B;
},
{
glyphname = L;
layers = (
{
layerId = "0CED4075-D7BB-4A7E-97B8-19FE9A07C10E";
paths = (
{
closed = 1;
nodes = (
"524 58 OFFCURVE",
"520 124 OFFCURVE",
"519 185 CURVE",
"472 185 LINE",
"452 70 LINE",
"411 56 OFFCURVE",
"353 50 OFFCURVE",
"294 50 CURVE SMOOTH",
"263 50 OFFCURVE",
"232 52 OFFCURVE",
"204 55 CURVE",
"203 192 OFFCURVE",
"201 300 OFFCURVE",
"201 404 CURVE SMOOTH",
"201 464 OFFCURVE",
"201 529 OFFCURVE",
"203 607 CURVE",
"318 629 LINE",
"306 660 LINE",
"239 658 OFFCURVE",
"207 657 OFFCURVE",
"150 657 CURVE SMOOTH",
"100 657 OFFCURVE",
"74 658 OFFCURVE",
"33 660 CURVE",
"23 629 LINE",
"111 608 LINE",
"114 496 OFFCURVE",
"115 405 OFFCURVE",
"115 314 CURVE SMOOTH",
"115 232 OFFCURVE",
"114 149 OFFCURVE",
"111 51 CURVE",
"23 30 LINE",
"33 0 LINE",
"74 1 OFFCURVE",
"118 3 OFFCURVE",
"157 3 CURVE SMOOTH",
"353 3 OFFCURVE",
"424 2 OFFCURVE",
"528 0 CURVE"
);
}
);
width = 564;
},
{
anchors = (
{
name = bottom;
position = "{323, 0}";
},
{
name = top;
position = "{193, 660}";
},
{
name = topright;
position = "{453, 448}";
}
);
background = {
paths = (
{
closed = 1;
nodes = (
"319 29 LINE",
"235 49 LINE",
"234 268 OFFCURVE",
"231 395 OFFCURVE",
"235 605 CURVE",
"345 626 LINE",
"334 655 LINE",
"270 653 OFFCURVE",
"239 652 OFFCURVE",
"184 652 CURVE",
"130 652 OFFCURVE",
"105 653 OFFCURVE",
"66 655 CURVE",
"56 626 LINE",
"141 606 LINE",
"145 399 OFFCURVE",
"148 198 OFFCURVE",
"141 49 CURVE",
"56 29 LINE",
"66 0 LINE",
"105 1 OFFCURVE",
"150 3 OFFCURVE",
"184 3 CURVE",
"239 3 OFFCURVE",
"255 21 OFFCURVE",
"289 19 CURVE"
);
},
{
closed = 1;
nodes = (
"184 3 LINE",
"321 5 OFFCURVE",
"424 3 OFFCURVE",
"548 0 CURVE",
"544 56 OFFCURVE",
"541 119 OFFCURVE",
"540 177 CURVE",
"495 177 LINE",
"476 69 LINE",
"426 60 OFFCURVE",
"378 56 OFFCURVE",
"338 56 CURVE",
"243 56 OFFCURVE",
"215 74 OFFCURVE",
"215 74 CURVE"
);
},
{
closed = 1;
nodes = (
"564 68 OFFCURVE",
"560 149 OFFCURVE",
"560 210 CURVE",
"496 210 LINE",
"473 89 LINE",
"439 72 OFFCURVE",
"385 64 OFFCURVE",
"332 64 CURVE SMOOTH",
"308 64 OFFCURVE",
"283 66 OFFCURVE",
"261 69 CURVE",
"259 138 OFFCURVE",
"259 202 OFFCURVE",
"259 263 CURVE SMOOTH",
"259 362 OFFCURVE",
"260 467 OFFCURVE",
"261 587 CURVE",
"286 590 OFFCURVE",
"311 592 OFFCURVE",
"335 592 CURVE SMOOTH",
"387 592 OFFCURVE",
"436 584 OFFCURVE",
"469 567 CURVE",
"487 462 LINE",
"551 462 LINE",
"552 513 OFFCURVE",
"555 576 OFFCURVE",
"559 660 CURVE",
"509 657 OFFCURVE",
"292 656 OFFCURVE",
"194 656 CURVE SMOOTH",
"155 656 OFFCURVE",
"99 657 OFFCURVE",
"33 660 CURVE",
"20 621 LINE",
"110 597 LINE",
"113 528 OFFCURVE",
"115 460 OFFCURVE",
"115 376 CURVE SMOOTH",
"115 271 OFFCURVE",
"113 167 OFFCURVE",
"110 59 CURVE",
"21 38 LINE",
"33 0 LINE",
"106 2 OFFCURVE",
"143 3 OFFCURVE",
"190 3 CURVE SMOOTH",
"383 3 OFFCURVE",
"510 2 OFFCURVE",
"569 0 CURVE"
);
}
);
};
layerId = "3B5B530A-BB7C-47AF-9BD0-0E3C29910424";
paths = (
{
closed = 1;
nodes = (
"110 597 LINE",
"118 489 OFFCURVE",
"115 394 OFFCURVE",
"115 303 CURVE SMOOTH",
"115 239 OFFCURVE",
"112 164 OFFCURVE",
"110 59 CURVE",
"21 38 LINE",
"33 0 LINE",
"74 1 OFFCURVE",
"120 3 OFFCURVE",
"188 3 CURVE SMOOTH",
"280 3 OFFCURVE",
"406 3 OFFCURVE",
"569 0 CURVE",
"564 65 OFFCURVE",
"560 148 OFFCURVE",
"560 210 CURVE",
"496 210 LINE",
"473 89 LINE",
"415 63 OFFCURVE",
"344 59 OFFCURVE",
"261 69 CURVE",
"258 145 OFFCURVE",
"260 243 OFFCURVE",
"260 313 CURVE SMOOTH",
"260 403 OFFCURVE",
"260 487 OFFCURVE",
"261 598 CURVE",
"375 621 LINE",
"361 660 LINE",
"305 657 OFFCURVE",
"241 656 OFFCURVE",
"184 656 CURVE SMOOTH",
"121 656 OFFCURVE",
"81 657 OFFCURVE",
"33 660 CURVE",
"20 621 LINE"
);
}
);
width = 604;
}
);
leftKerningGroup = "0";
rightKerningGroup = "0";
unicode = 004C;
},
